<?xml version="1.0" encoding="UTF-8"?>
<!DOCTYPE svg PUBLIC "-//W3C//DTD SVG 1.1//EN" "http://www.w3.org/Graphics/SVG/1.1/DTD/svg11.dtd">
<!-- Creator: CorelDRAW X7 -->
<svg xmlns="http://www.w3.org/2000/svg" xml:space="preserve" width="10.6658mm" height="5.5626mm" version="1.1" style="shape-rendering:geometricPrecision; text-rendering:geometricPrecision; image-rendering:optimizeQuality; fill-rule:evenodd; clip-rule:evenodd"
viewBox="0 0 7983 4163"
 xmlns:xlink="http://www.w3.org/1999/xlink">
 <defs>
  <style type="text/css">
   <![CDATA[
    .fil0 {fill:#E31E24;fill-rule:nonzero}
   ]]>
  </style>
 </defs>
 <g id="Слой_x0020_1">
  <metadata id="CorelCorpID_0Corel-Layer"/>
  <g id="_868853536">
   <path class="fil0" d="M1234 433c0,-4 0,-6 2,-6 3,0 6,2 7,6l43 94c3,8 10,23 25,23l17 0c14,0 21,-15 25,-23l42 -91c1,-3 3,-8 6,-8 4,0 4,6 4,7l0 205c0,25 14,26 26,26l70 0c25,0 26,-14 26,-26l0 -466c0,-25 -14,-26 -26,-26l-70 0c-18,0 -21,6 -26,16l-78 186c-1,3 -4,9 -8,9 -4,0 -7,-6 -8,-9l-77 -184c-6,-18 -14,-18 -26,-18l-70 0c-12,0 -26,1 -26,26l0 466c0,12 1,26 26,26l70 0c12,0 26,-1 26,-26l0 -207zm512 124c0,-12 -1,-26 -27,-26l-82 0c-13,0 -26,1 -26,26l0 83c0,12 0,26 26,26l82 0c13,0 27,-1 27,-26l0 -83zm291 -257c0,132 81,162 148,162 57,0 89,-24 97,-24 6,0 5,5 5,10l0 185c0,17 0,33 33,33l73 0c16,0 32,0 32,-33l0 -586c0,-17 0,-33 -32,-33l-73 0c-33,0 -33,16 -33,33l0 210c0,30 -3,74 -55,74 -27,0 -57,-12 -57,-64l0 -220c0,-17 0,-33 -33,-33l-73 0c-32,0 -32,16 -32,33l0 253zm598 39c-4,0 -9,-1 -9,-9l0 -21c0,-19 2,-66 50,-66 44,0 48,44 48,66l0 21c0,2 1,9 -9,9l-80 0zm189 102c13,0 27,-1 27,-26l0 -87c0,-180 -129,-187 -175,-187 -158,0 -176,117 -176,187l0 157c0,168 136,188 209,188 23,0 75,-4 119,-20 15,-6 18,-12 18,-20l0 -74c0,-15 -8,-20 -23,-15 -29,10 -68,17 -106,17 -18,0 -91,-3 -91,-77l0 -32c0,-3 1,-11 11,-11l187 0zm223 -125c0,-19 3,-62 46,-62 42,0 45,43 45,62l0 182c0,19 -3,61 -45,61 -43,0 -46,-42 -46,-61l0 -182zm-127 458c0,12 1,26 26,26l75 0c12,0 26,-1 26,-26l0 -122c0,-5 2,-7 5,-7 15,0 22,28 86,28 119,0 129,-105 129,-170l0 -188c0,-57 -3,-174 -122,-174 -64,0 -79,34 -89,34 -3,0 -8,1 -8,-7l0 -7c0,-7 -3,-13 -17,-13l-85 0c-12,0 -26,1 -26,26l0 600zm421 -134c0,12 1,26 26,26l75 0c12,0 26,-1 26,-26l0 -185c0,-7 4,-11 11,-11l65 0c8,0 11,4 11,11l0 185c0,25 14,26 26,26l75 0c25,0 26,-14 26,-26l0 -466c0,-25 -14,-26 -26,-26l-75 0c-12,0 -26,1 -26,26l0 149c0,7 -3,11 -11,11l-65 0c-7,0 -11,-4 -11,-11l0 -149c0,-25 -14,-26 -26,-26l-75 0c-12,0 -26,1 -26,26l0 466zm542 -466c0,-25 -14,-26 -26,-26l-75 0c-12,0 -26,1 -26,26l0 466c0,12 1,26 26,26l75 0c12,0 26,-1 26,-26l0 -466zm0 -148c0,-25 -14,-26 -26,-26l-75 0c-25,0 -26,14 -26,26l0 57c0,12 1,26 26,26l75 0c25,0 26,-14 26,-26l0 -57zm201 425c0,-3 0,-13 11,-13l22 0c41,0 62,31 62,64 0,32 -20,64 -65,64l-22 0c-5,0 -8,-4 -8,-11l0 -104zm0 -194c0,-8 5,-9 9,-9l17 0c30,0 50,19 50,44 0,24 -16,47 -45,47l-22 0c-4,0 -9,-1 -9,-9l0 -73zm-127 383c0,7 0,26 22,26l150 0c38,0 186,-4 186,-158 0,-66 -28,-99 -57,-117 -8,-5 -18,-8 -20,-11 -3,-1 -3,-3 2,-6 17,-10 54,-40 54,-99 0,-65 -44,-127 -148,-127l-162 0c-13,0 -27,1 -27,26l0 466zm679 26c7,0 15,1 15,15l0 67c0,25 14,26 26,26l69 0c25,0 26,-14 26,-26l0 -159c0,-25 -14,-26 -26,-26l-13 0c-12,0 -12,-9 -12,-14l0 -375c0,-25 -14,-26 -26,-26l-75 0c-12,0 -26,1 -26,26l0 378c0,7 -3,11 -11,11l-65 0c-8,0 -11,-4 -11,-11l0 -378c0,-25 -14,-26 -26,-26l-75 0c-12,0 -26,1 -26,26l0 466c0,12 1,26 26,26l230 0zm307 -492c0,-25 -14,-26 -26,-26l-74 0c-12,0 -26,1 -26,26l0 466c0,12 1,26 26,26l74 0c12,0 26,-1 26,-26l0 -466zm0 -148c0,-25 -14,-26 -26,-26l-74 0c-25,0 -26,14 -26,26l0 57c0,12 1,26 26,26l74 0c25,0 26,-14 26,-26l0 -57zm110 505c-12,0 -26,1 -26,26l0 83c0,12 1,26 26,26l16 0c6,0 8,2 8,7l0 5c0,21 -8,34 -25,39 -14,4 -25,-1 -25,14l0 31c0,6 0,15 15,15l11 0c55,0 109,-43 109,-118l0 -102c0,-12 -1,-26 -26,-26l-83 0zm536 -80c0,-3 0,-13 12,-13l21 0c41,0 62,31 62,64 0,32 -20,64 -65,64l-21 0c-6,0 -9,-4 -9,-11l0 -104zm0 -194c0,-8 5,-9 10,-9l16 0c30,0 50,19 50,44 0,24 -16,47 -45,47l-21 0c-5,0 -10,-1 -10,-9l0 -73zm-126 383c0,7 0,26 21,26l150 0c38,0 186,-4 186,-158 0,-66 -28,-99 -57,-117 -8,-5 -17,-8 -20,-11 -3,-1 -3,-3 2,-6 18,-10 54,-40 54,-99 0,-65 -44,-127 -147,-127l-163 0c-12,0 -26,1 -26,26l0 466zm409 -492c-18,0 -21,11 -18,25l110 470c4,19 9,49 -31,49 -10,0 -18,-1 -26,-4 -10,-3 -16,-5 -23,-5 -18,0 -17,13 -17,18l0 70c0,14 -2,32 88,32 129,0 151,-77 169,-152l105 -478c3,-10 6,-25 -19,-25l-87 0c-16,0 -24,8 -27,25l-40 220c-3,10 -4,24 -11,24 -9,0 -10,-14 -12,-24l-45 -220c-3,-14 -6,-25 -27,-25l-89 0zm482 0c-25,0 -26,14 -26,26l-2 156c-3,173 -8,236 -57,236l-10 0c-12,0 -26,1 -26,26l0 58c0,22 22,23 51,23 152,0 159,-113 164,-324l2 -82c0,-6 2,-10 9,-10l40 0c12,0 12,8 12,12l0 371c0,25 14,26 26,26l75 0c25,0 26,-14 26,-26l0 -466c0,-25 -14,-26 -26,-26l-258 0zm502 409c0,-12 0,-26 -26,-26l-82 0c-13,0 -27,1 -27,26l0 83c0,12 1,26 27,26l82 0c13,0 26,-1 26,-26l0 -83zm-6826 583c-10,0 -30,7 -30,28l0 595c0,23 12,29 26,29l87 0c15,0 25,0 25,-35l0 -482c0,-8 3,-12 12,-12l196 0c14,0 22,-10 22,-22l0 -84c0,-10 -11,-17 -32,-17l-306 0zm515 325c-4,0 -9,-1 -9,-9l0 -21c0,-18 2,-66 51,-66 43,0 47,44 47,66l0 21c0,3 1,9 -9,9l-80 0zm189 102c13,0 27,0 27,-26l0 -87c0,-180 -129,-187 -174,-187 -159,0 -177,117 -177,187l0 157c0,169 136,188 209,188 23,0 75,-3 119,-19 15,-7 18,-12 18,-21l0 -74c0,-15 -8,-20 -23,-15 -29,10 -68,18 -106,18 -18,0 -91,-4 -91,-78l0 -31c0,-4 1,-12 11,-12l187 0zm223 -125c0,-19 3,-62 46,-62 42,0 45,43 45,62l0 182c0,19 -3,62 -45,62 -43,0 -46,-43 -46,-62l0 -182zm-127 458c0,12 1,26 26,26l75 0c12,0 26,-1 26,-26l0 -122c0,-5 2,-7 5,-7 15,0 22,28 86,28 119,0 129,-105 129,-170l0 -188c0,-57 -3,-174 -122,-174 -64,0 -79,34 -89,34 -2,0 -8,1 -8,-6l0 -8c0,-7 -3,-13 -17,-13l-85 0c-12,0 -26,1 -26,26l0 600zm542 -467c0,-49 27,-62 50,-62 24,0 51,13 51,62l0 201c0,48 -27,61 -51,61 -23,0 -50,-13 -50,-61l0 -201zm-126 179c0,71 18,187 176,187 159,0 177,-116 177,-187l0 -158c0,-71 -18,-187 -177,-187 -158,0 -176,116 -176,187l0 158zm575 -312c0,-25 -14,-26 -26,-26l-75 0c-12,0 -26,1 -26,26l0 466c0,12 1,26 26,26l75 0c25,0 26,-14 26,-26l0 -466zm58 -148c0,-25 -14,-26 -26,-26l-52 0c-12,0 -26,1 -26,26l0 57c0,25 14,26 26,26l52 0c25,0 26,-14 26,-26l0 -57zm-241 57c0,25 14,26 26,26l51 0c25,0 26,-14 26,-26l0 -57c0,-12 -1,-26 -26,-26l-51 0c-26,0 -26,14 -26,26l0 57zm411 368c0,-3 0,-13 11,-13l22 0c41,0 62,31 62,64 0,33 -20,64 -65,64l-22 0c-5,0 -8,-4 -8,-11l0 -104zm0 -194c0,-8 5,-9 9,-9l17 0c30,0 49,19 49,45 0,23 -15,46 -44,46l-22 0c-4,0 -9,-1 -9,-9l0 -73zm-127 383c0,7 0,26 22,26l150 0c38,0 186,-4 186,-157 0,-67 -28,-100 -57,-118 -8,-4 -18,-8 -20,-11 -3,-1 -3,-3 1,-6 18,-10 55,-40 55,-99 0,-64 -44,-127 -148,-127l-162 0c-13,0 -27,1 -27,26l0 466zm778 -348c0,-3 5,-5 6,-1l75 182c6,16 15,24 25,24l32 0c14,0 21,-14 25,-24l72 -175c1,-1 2,-2 3,-2 3,0 4,2 4,6l0 331c0,17 0,33 32,33l73 0c17,0 33,0 33,-33l0 -586c0,-17 0,-33 -33,-33l-78 0c-23,0 -31,17 -36,25l-100 200c-3,4 -6,14 -10,14 -5,0 -9,-9 -11,-15l-101 -201c-3,-4 -12,-23 -34,-23l-82 0c-33,0 -33,16 -33,33l0 586c0,33 16,33 33,33l72 0c17,0 33,0 33,-33l0 -341zm658 234c0,18 -18,35 -43,35 -30,0 -41,-25 -41,-58 0,-49 24,-71 55,-90l16 -11c6,-3 13,-1 13,5l0 119zm127 -238c0,-67 -16,-147 -175,-147 -128,0 -137,34 -137,49l0 58c0,8 6,17 17,17 11,0 20,-7 45,-13 22,-7 41,-10 63,-10 27,0 60,8 60,35 0,7 -3,12 -9,15l-24 8c-78,30 -183,67 -183,210 0,112 60,163 127,163 27,0 58,-9 76,-24 3,-3 6,-5 8,-5 9,0 8,5 8,12 0,4 2,10 17,10l79 0c21,0 28,-11 28,-22l0 -11 0 -345zm176 378c11,0 23,-1 31,-23l84 -216c1,-5 4,-7 7,-7 2,0 4,2 4,7l0 213c0,25 14,26 26,26l70 0c12,0 26,-1 26,-26l0 -466c0,-25 -14,-26 -26,-26l-73 0c-12,0 -25,1 -35,26l-84 217c-1,3 -3,5 -6,5 -3,0 -4,-3 -4,-8l0 -214c0,-25 -14,-26 -26,-26l-70 0c-12,0 -26,1 -26,26l0 466c0,12 1,26 26,26l76 0zm140 -557c35,0 54,-24 54,-55l0 -17c0,-9 -5,-12 -10,-12l-51 0c-8,0 -11,4 -11,12l0 5c0,16 -18,17 -29,17l-39 0c-12,0 -29,-1 -29,-17l0 -5c0,-8 -4,-12 -11,-12l-52 0c-4,0 -10,3 -10,12l0 17c0,31 20,55 54,55l134 0zm403 145c11,0 11,1 11,12l0 284c0,7 -1,13 -12,13l-69 0c-7,0 -9,-4 -9,-7 0,-24 21,-5 36,-261l1 -30c1,-11 7,-11 11,-11l31 0zm-129 -106c-25,0 -26,14 -26,26l-1 26c-7,187 -28,289 -35,318 -7,23 -9,45 -32,45l-10 0c-19,0 -20,21 -20,27l0 158c0,25 14,26 26,26l69 0c12,0 26,-1 26,-26l0 -67c0,-14 8,-15 15,-15l166 0c14,0 15,8 15,15l0 67c0,12 1,26 26,26l69 0c12,0 26,-1 26,-26l0 -158c0,-26 -14,-27 -26,-27l-10 0c-12,0 -12,-9 -12,-14l0 -375c0,-25 -14,-26 -26,-26l-240 0zm562 378c0,18 -17,35 -43,35 -29,0 -41,-25 -41,-58 0,-49 25,-71 55,-90l16 -11c7,-3 13,-1 13,5l0 119zm127 -238c0,-67 -16,-147 -175,-147 -128,0 -137,34 -137,49l0 58c0,8 6,17 18,17 10,0 19,-7 44,-13 22,-7 41,-10 64,-10 27,0 59,8 59,35 0,7 -3,12 -9,15l-23 8c-79,30 -184,67 -184,210 0,112 60,163 127,163 27,0 59,-9 76,-24 3,-3 6,-5 9,-5 8,0 7,5 7,12 0,4 2,10 18,10l78 0c21,0 28,-11 28,-22l0 -11 0 -345zm74 352c0,12 1,26 26,26l75 0c12,0 26,-1 26,-26l0 -185c0,-7 4,-11 11,-11l65 0c8,0 11,4 11,11l0 185c0,25 14,26 27,26l74 0c25,0 26,-14 26,-26l0 -466c0,-25 -14,-26 -26,-26l-74 0c-13,0 -27,1 -27,26l0 149c0,8 -3,11 -11,11l-65 0c-7,0 -11,-3 -11,-11l0 -149c0,-25 -14,-26 -26,-26l-75 0c-12,0 -26,1 -26,26l0 466zm402 -492c-18,0 -21,11 -18,25l110 470c4,19 9,49 -31,49 -10,0 -18,-1 -26,-4 -10,-3 -16,-4 -23,-4 -18,0 -17,13 -17,17l0 70c0,14 -2,33 88,33 129,0 151,-78 169,-153l105 -478c3,-10 7,-25 -19,-25l-87 0c-16,0 -24,9 -27,25l-40 220c-3,10 -4,24 -11,24 -9,0 -10,-14 -12,-24l-45 -220c-3,-14 -6,-25 -27,-25l-89 0zm433 383c-12,0 -26,1 -26,26l0 83c0,12 1,26 26,26l16 0c6,0 9,3 9,7l0 5c0,21 -9,34 -26,39 -14,5 -25,-1 -25,14l0 31c0,6 0,16 15,16l11 0c55,0 109,-44 109,-119l0 -102c0,-12 -1,-26 -26,-26l-83 0zm511 102c0,17 0,33 33,33l73 0c16,0 32,0 32,-33l0 -586c0,-17 0,-33 -32,-33l-52 0c-28,0 -19,10 -44,36 -23,22 -57,37 -90,37l-23 0c-25,0 -26,20 -26,31l0 42c0,17 0,33 33,33l84 0c9,0 12,4 12,12l0 428zm339 -459c0,-33 19,-56 46,-56 27,0 46,23 46,56l0 43c0,36 -21,55 -46,55 -25,0 -46,-19 -46,-55l0 -43zm-3 271c0,-44 19,-66 49,-66 22,0 49,13 49,66l0 50c0,21 -3,67 -49,67 -30,0 -49,-23 -49,-67l0 -50zm-133 67c0,112 82,161 182,161 104,0 182,-50 182,-161l0 -70c0,-121 -62,-102 -62,-131 0,-13 52,-27 52,-98l0 -46c0,-158 -149,-160 -172,-160 -168,0 -172,131 -172,160l0 46c0,71 52,85 52,98 0,29 -62,10 -62,131l0 70zm652 -4c0,28 -13,54 -47,54 -33,0 -48,-26 -48,-54l0 -114c0,-33 17,-54 48,-54 28,0 47,18 47,54l0 114zm-233 -34c0,72 17,199 178,199 119,0 190,-66 190,-171l0 -129c0,-119 -77,-152 -139,-152 -19,0 -45,3 -63,13 -14,7 -15,12 -21,12 -7,0 -7,-4 -7,-7l0 -23c0,-33 1,-98 80,-98 66,0 34,19 107,19 14,0 15,-8 15,-12l0 -72c0,-18 -4,-46 -132,-46 -197,0 -208,138 -208,213l0 254zm641 -30c12,0 26,-1 26,-26l0 -58c0,-12 -1,-26 -26,-26l-182 0c-12,0 -26,1 -26,26l0 58c0,12 1,26 26,26l182 0zm238 -65c0,-7 6,-11 12,-11l47 0c59,0 90,39 90,90 0,52 -39,87 -90,87l-47 0c-8,0 -12,-4 -12,-12l0 -154zm-105 -365c-34,0 -33,19 -33,33l0 586c0,14 -1,33 33,33l167 0c151,0 236,-91 236,-211 0,-71 -29,-208 -245,-208l-43 0c-10,0 -10,-7 -10,-13l0 -89c0,-10 7,-10 13,-10l218 0c7,0 17,-3 17,-18l0 -84c0,-8 1,-19 -17,-19l-336 0zm-6094 1504c0,-58 15,-163 87,-245 20,-22 27,-24 27,-38l0 -94c0,-6 0,-16 -7,-16 -15,0 -58,30 -69,39 -65,52 -167,162 -167,354 0,193 102,303 167,355 11,8 54,38 69,38 7,0 7,-9 7,-16l0 -94c0,-14 -7,-15 -27,-37 -72,-82 -87,-187 -87,-246zm330 -207c0,-52 26,-63 47,-63 45,0 46,43 46,63l0 311c0,14 -1,62 -46,62 -22,0 -47,-15 -47,-62l0 -311zm-137 292c0,131 84,197 184,197 99,0 184,-66 184,-197l0 -274c0,-131 -85,-196 -184,-196 -100,0 -184,65 -184,196l0 274zm563 -304c0,-29 13,-54 47,-54 33,0 48,25 48,54l0 113c0,33 -17,54 -48,54 -29,0 -47,-17 -47,-54l0 -113zm232 33c0,-70 -16,-199 -177,-199 -120,0 -190,66 -190,171l0 130c0,118 76,151 138,151 20,0 46,-2 64,-13 14,-7 15,-12 21,-12 7,0 7,4 7,7l0 23c0,34 -1,98 -80,98 -71,0 -32,-19 -117,-19 -14,0 -15,9 -15,12l0 72c0,15 -5,47 142,47 197,0 207,-136 207,-214l0 -254zm289 302c0,29 -13,54 -47,54 -33,0 -48,-25 -48,-54l0 -114c0,-32 17,-54 48,-54 28,0 47,18 47,54l0 114zm-233 -34c0,72 17,200 178,200 119,0 190,-67 190,-172l0 -129c0,-118 -77,-152 -139,-152 -19,0 -45,3 -63,13 -14,8 -15,12 -21,12 -7,0 -7,-3 -7,-6l0 -24c0,-33 1,-97 80,-97 66,0 34,18 107,18 14,0 15,-8 15,-12l0 -71c0,-19 -4,-47 -132,-47 -197,0 -208,138 -208,213l0 254zm443 295c0,7 0,16 7,16 15,0 58,-30 69,-38 65,-52 166,-162 166,-355 0,-192 -101,-302 -166,-354 -11,-9 -54,-39 -69,-39 -7,0 -7,10 -7,16l0 94c0,14 7,16 27,38 72,82 87,187 87,245 0,59 -15,164 -87,246 -20,22 -27,23 -27,37l0 94zm767 -261c0,29 -13,54 -48,54 -32,0 -47,-25 -47,-54l0 -114c0,-32 16,-54 47,-54 29,0 48,18 48,54l0 114zm-233 -34c0,72 17,200 178,200 119,0 190,-67 190,-172l0 -129c0,-118 -78,-152 -139,-152 -20,0 -46,3 -63,13 -14,8 -15,12 -22,12 -6,0 -6,-3 -6,-6l0 -24c0,-33 1,-97 80,-97 66,0 33,18 107,18 14,0 15,-8 15,-12l0 -71c0,-19 -4,-47 -133,-47 -197,0 -207,138 -207,213l0 254z"/>
   <path class="fil0" d="M3949 2266c-33,0 -33,16 -33,33l0 49c0,33 16,33 33,33l155 0c6,0 8,5 8,7 0,3 -1,8 -34,94 -84,220 -99,339 -99,392l0 12c0,16 0,32 32,32l69 0c31,0 33,-15 33,-32 3,-100 51,-300 111,-427 42,-90 52,-95 52,-114l0 -46c0,-17 0,-33 -33,-33l-294 0zm479 620c0,16 0,32 33,32l73 0c16,0 32,0 32,-32l0 -587c0,-17 0,-33 -32,-33l-52 0c-28,0 -19,11 -44,36 -23,22 -57,37 -90,37l-23 0c-25,0 -26,20 -26,31l0 43c0,16 0,32 33,32l84 0c9,0 12,4 12,12l0 429zm420 -189c12,0 26,-1 26,-27l0 -57c0,-12 -1,-26 -26,-26l-181 0c-12,0 -26,1 -26,26l0 57c0,13 1,27 26,27l181 0zm233 -260c0,-52 26,-63 47,-63 44,0 46,43 46,63l0 311c0,14 -1,62 -46,62 -23,0 -47,-15 -47,-62l0 -311zm-138 292c0,131 85,197 185,197 99,0 184,-66 184,-197l0 -274c0,-131 -85,-196 -184,-196 -100,0 -185,65 -185,196l0 274zm447 -463c-32,0 -32,16 -32,33l0 49c0,33 15,33 32,33l155 0c6,0 8,5 8,7 0,3 -1,8 -33,94 -85,220 -100,339 -100,392l0 12c0,16 0,32 33,32l68 0c31,0 33,-15 33,-32 3,-100 51,-300 111,-427 43,-90 52,-95 52,-114l0 -46c0,-17 0,-33 -33,-33l-294 0zm586 431c12,0 26,-1 26,-27l0 -57c0,-12 -1,-26 -26,-26l-182 0c-12,0 -26,1 -26,26l0 57c0,13 1,27 26,27l182 0zm202 189c0,16 0,32 32,32l73 0c17,0 33,0 33,-32l0 -587c0,-17 0,-33 -33,-33l-52 0c-28,0 -19,11 -44,36 -22,22 -57,37 -89,37l-24 0c-25,0 -26,20 -26,31l0 43c0,16 0,32 33,32l85 0c8,0 12,4 12,12l0 429zm313 0c0,16 0,32 33,32l73 0c16,0 32,0 32,-32l0 -587c0,-17 0,-33 -32,-33l-52 0c-28,0 -19,11 -44,36 -23,22 -57,37 -90,37l-23 0c-25,0 -26,20 -26,31l0 43c0,16 0,32 33,32l84 0c9,0 12,4 12,12l0 429zm-5211 885c0,-59 15,-164 88,-246 19,-22 27,-23 27,-37l0 -94c0,-7 0,-16 -8,-16 -15,0 -57,30 -69,38 -65,52 -166,162 -166,355 0,192 101,302 166,354 12,9 54,38 69,38 8,0 8,-9 8,-15l0 -94c0,-14 -8,-16 -27,-38 -73,-82 -88,-187 -88,-245zm331 -208c0,-52 26,-62 46,-62 45,0 47,42 47,62l0 311c0,14 -1,62 -47,62 -22,0 -46,-15 -46,-62l0 -311zm-138 292c0,132 85,197 184,197 100,0 184,-65 184,-197l0 -273c0,-132 -84,-197 -184,-197 -99,0 -184,65 -184,197l0 273zm661 31c0,29 -13,54 -48,54 -32,0 -47,-25 -47,-54l0 -114c0,-32 17,-53 47,-53 29,0 48,17 48,53l0 114zm-233 -33c0,71 17,199 178,199 119,0 190,-66 190,-172l0 -129c0,-118 -77,-152 -139,-152 -19,0 -46,3 -63,13 -14,8 -15,12 -22,12 -6,0 -6,-3 -6,-6l0 -23c0,-34 1,-98 80,-98 66,0 33,19 107,19 14,0 15,-9 15,-13l0 -71c0,-19 -4,-47 -132,-47 -198,0 -208,138 -208,213l0 255zm656 33c0,29 -13,54 -47,54 -33,0 -48,-25 -48,-54l0 -114c0,-32 17,-53 48,-53 29,0 47,17 47,53l0 114zm-232 -33c0,71 16,199 177,199 120,0 190,-66 190,-172l0 -129c0,-118 -77,-152 -138,-152 -20,0 -46,3 -64,13 -14,8 -15,12 -21,12 -7,0 -7,-3 -7,-6l0 -23c0,-34 1,-98 81,-98 66,0 33,19 107,19 14,0 14,-9 14,-13l0 -71c0,-19 -3,-47 -132,-47 -197,0 -207,138 -207,213l0 255zm442 295c0,6 0,15 7,15 15,0 58,-29 69,-38 65,-52 167,-162 167,-354 0,-193 -102,-303 -167,-355 -11,-8 -54,-38 -69,-38 -7,0 -7,9 -7,16l0 94c0,14 7,15 27,37 72,82 87,187 87,246 0,58 -15,163 -87,245 -20,22 -27,24 -27,38l0 94zm656 -358c-4,0 -8,0 -8,-6 0,-11 11,-20 45,-92 22,-43 25,-58 31,-58 3,0 4,1 4,3l0 4 0 139c0,6 1,10 -10,10l-62 0zm166 254c31,0 32,-15 32,-32l0 -112c0,-6 3,-9 10,-9l8 0c17,0 33,0 33,-33l0 -35c0,-17 0,-33 -33,-33l-8 0c-7,0 -10,-3 -10,-9l0 -356c0,-17 0,-32 -32,-32l-62 0c-17,0 -26,2 -36,20l-194 358c-4,8 -10,16 -10,28l0 59c0,33 16,33 33,33l166 0c7,0 9,-1 9,9l0 112c0,17 0,32 32,32l62 0zm261 -481c0,-52 27,-62 47,-62 45,0 47,42 47,62l0 311c0,14 -1,62 -47,62 -22,0 -47,-15 -47,-62l0 -311zm-137 292c0,132 84,197 184,197 100,0 184,-65 184,-197l0 -273c0,-132 -84,-197 -184,-197 -100,0 -184,65 -184,197l0 273zm763 189c17,0 33,0 33,-32l0 -47c0,-32 -16,-32 -33,-32l-167 0c-8,0 -7,-6 -6,-11 45,-180 210,-137 210,-343 0,-116 -75,-194 -188,-194 -75,0 -184,34 -184,178l0 25c0,33 16,33 32,33l62 0c17,0 33,0 33,-33l0 -21c0,-25 3,-70 52,-70 42,0 56,33 56,84 0,79 -40,110 -108,185 -44,49 -122,141 -125,238l0 8c0,17 0,32 32,32l301 0zm310 -221c12,0 26,-1 26,-26l0 -58c0,-12 -1,-26 -26,-26l-182 0c-12,0 -26,1 -26,26l0 58c0,12 1,26 26,26l182 0zm119 3c-14,0 -28,1 -28,27l0 35c0,107 70,164 177,164 123,0 190,-76 190,-211 0,-148 -67,-98 -79,-152l0 -2c5,-21 70,-21 70,-134 0,-105 -67,-168 -176,-168 -78,0 -162,41 -162,131l0 25c0,27 16,28 27,28l54 0c32,0 32,-13 32,-24l0 -5c0,-26 16,-43 41,-43 34,0 51,21 51,64 0,75 -36,83 -69,83l-28 0c-18,0 -33,2 -33,33l0 39c0,32 16,32 33,32l21 0c40,0 78,4 78,105 0,42 -3,87 -55,87 -24,0 -49,-14 -49,-51l0 -31c0,-17 0,-32 -32,-32l-63 0zm536 -263c0,-52 26,-62 47,-62 45,0 47,42 47,62l0 311c0,14 -1,62 -47,62 -22,0 -47,-15 -47,-62l0 -311zm-137 292c0,132 84,197 184,197 100,0 184,-65 184,-197l0 -273c0,-132 -84,-197 -184,-197 -100,0 -184,65 -184,197l0 273zm645 -32c12,0 26,-1 26,-26l0 -58c0,-12 -1,-26 -26,-26l-182 0c-12,0 -26,1 -26,26l0 58c0,12 1,26 26,26l182 0zm233 -260c0,-52 26,-62 46,-62 45,0 47,42 47,62l0 311c0,14 -1,62 -47,62 -22,0 -46,-15 -46,-62l0 -311zm-138 292c0,132 84,197 184,197 100,0 184,-65 184,-197l0 -273c0,-132 -84,-197 -184,-197 -100,0 -184,65 -184,197l0 273zm763 189c17,0 33,0 33,-32l0 -47c0,-32 -16,-32 -33,-32l-167 0c-8,0 -7,-6 -6,-11 45,-180 210,-137 210,-343 0,-116 -75,-194 -188,-194 -75,0 -184,34 -184,178l0 25c0,33 16,33 32,33l62 0c17,0 33,0 33,-33l0 -21c0,-25 3,-70 52,-70 42,0 56,33 56,84 0,79 -40,110 -108,185 -44,49 -122,141 -125,238l0 8c0,17 0,32 32,32l301 0z"/>
  </g>
 </g>
</svg>
