<?xml version="1.0" encoding="UTF-8"?>
<!DOCTYPE svg PUBLIC "-//W3C//DTD SVG 1.1//EN" "http://www.w3.org/Graphics/SVG/1.1/DTD/svg11.dtd">
<!-- Creator: CorelDRAW X7 -->
<svg xmlns="http://www.w3.org/2000/svg" xml:space="preserve" width="11.3676mm" height="7.9452mm" version="1.1" style="shape-rendering:geometricPrecision; text-rendering:geometricPrecision; image-rendering:optimizeQuality; fill-rule:evenodd; clip-rule:evenodd"
viewBox="0 0 378 264"
 xmlns:xlink="http://www.w3.org/1999/xlink">
 <defs>
  <style type="text/css">
   <![CDATA[
    .str0 {stroke:#FEFEFE;stroke-width:12.8393;stroke-linecap:round;stroke-linejoin:round}
    .fil0 {fill:none;fill-rule:nonzero}
    .fil1 {fill:#393185;fill-rule:nonzero}
   ]]>
  </style>
 </defs>
 <g id="Слой_x0020_1">
  <metadata id="CorelCorpID_0Corel-Layer"/>
  <g id="_818169664">
   <g>
    <path class="fil0 str0" d="M6 37c0,2 1,2 2,2l4 0c0,1 1,1 1,-1l2 -12c0,0 0,0 0,0l2 0c2,0 4,1 4,5l-1 8c0,1 0,1 1,1l4 1c2,0 2,-1 2,-2l1 -10c0,-5 -3,-5 -3,-6l0 0c0,-1 2,-1 2,-4l1 -4c0,0 0,-1 1,-1l1 0c0,0 1,0 1,-1l0 -3c0,-1 0,-2 -1,-2l-3 0c-3,0 -5,1 -6,5l0 4c0,2 -2,3 -3,3l-2 -1c-1,0 -1,0 -1,0l1 -10c1,-1 1,-2 -1,-2l-4 -1c-1,0 -1,1 -1,2l-4 29zm36 -1c-1,0 -2,1 -3,1 -1,0 -2,-1 -2,-3 1,-3 2,-3 4,-4l1 -1c0,0 0,0 0,1l0 6zm7 -12c1,-3 0,-7 -8,-8 -6,-1 -7,1 -7,2l0 3c0,0 0,1 1,1 0,0 1,-1 2,-1 1,0 2,0 3,0 1,0 3,1 3,2 0,0 0,1 -1,1l-1 0c-4,1 -9,2 -10,10 -1,5 2,8 5,8 2,1 3,0 4,0 0,0 1,-1 1,-1 0,0 0,1 0,1 0,0 0,1 1,1l4 0c1,0 1,0 1,-1l0 0 2 -18zm9 -6c-1,0 -2,1 -2,1l-1 8c-1,9 -1,12 -4,12l0 0c-1,-1 -1,-1 -2,1l0 3c0,1 1,1 3,1 7,1 8,-5 9,-15l1 -4c0,-1 0,-1 1,-1l2 0c0,0 0,1 0,1l-2 19c0,1 1,1 1,1l4 0c1,1 1,0 1,-1l3 -23c0,-1 -1,-1 -1,-2l-13 -1zm20 28c1,1 1,1 2,-1l5 -10c0,0 0,0 1,0 0,0 0,0 0,0l-1 11c-1,1 0,1 1,1l3 1c1,0 2,0 2,-2l2 -23c0,-1 0,-1 -1,-1l-4 -1c0,0 -1,0 -2,1l-5 11c0,0 0,0 0,0 0,0 0,0 0,0l1 -11c0,-1 -1,-1 -1,-1l-4 -1c-1,0 -1,0 -1,1l-3 24c0,0 0,1 1,1l4 0zm16 1c0,0 0,1 2,1l3 1c1,0 2,0 2,-1l1 -10c0,0 0,0 0,0l4 0c0,0 0,0 0,1l-1 9c0,1 1,1 1,1l4 1c1,0 1,-1 2,-1l2 -24c0,-1 -1,-1 -1,-1l-4 0c-1,-1 -1,-1 -1,1l-1 7c0,1 0,1 -1,1l-3 -1c0,0 -1,0 -1,0l1 -8c0,-1 0,-1 -1,-1l-4 -1c0,0 -1,0 -1,2l-3 23zm30 -21c0,-1 -1,-1 -1,-1l-4 0c0,-1 -1,-1 -1,1l-3 23c0,1 0,1 1,1l4 1c1,0 1,0 2,-1l2 -24zm1 -7c0,-1 -1,-1 -1,-1l-4 -1c-1,0 -1,1 -2,1l0 3c0,1 0,1 1,2l4 0c1,0 1,-1 2,-1l0 -3zm8 22c0,0 0,0 0,0l1 0c2,0 3,2 3,3 0,2 -1,3 -3,3l-2 0c0,0 0,0 0,0l1 -6zm1 -9c0,-1 0,-1 0,-1l1 0c2,0 2,2 2,3 0,1 -1,2 -2,2l-1 0c-1,0 -1,0 -1,-1l1 -3zm-9 18c0,0 0,1 1,2l8 0c2,1 9,1 10,-7 0,-3 -1,-5 -2,-6 -1,0 -1,0 -1,0 0,0 0,-1 0,-1 1,0 3,-1 3,-4 0,-4 -1,-7 -7,-8l-8 0c0,0 -1,0 -1,1l-3 23zm29 -12c0,-2 1,-4 4,-4 2,0 2,1 4,1 1,0 1,0 1,-1l0 -3c0,-1 0,-2 -5,-3 -8,-1 -10,4 -10,8l-1 8c0,4 -1,10 9,11 5,1 5,-1 5,-1l0 -4c0,0 0,-1 -1,-1 0,0 0,0 -1,0 -1,0 -2,0 -2,0 -4,0 -4,-3 -4,-4l1 -7zm17 7c0,-1 1,-1 1,-1l1 0c2,1 3,2 3,4 0,2 -1,3 -3,3l-2 0c0,0 0,-1 0,-1l0 -5zm1 11c7,1 11,-3 11,-8 1,-4 -3,-8 -8,-9l-2 0c-1,0 -1,0 -1,-1l1 -6c0,-2 -1,-2 -1,-2l-4 0c-1,0 -1,0 -2,1l-2 23c0,1 0,1 1,2l7 0zm18 2c1,0 1,0 2,-1l1 -9c0,0 0,-1 0,-1l1 0c2,1 2,3 2,4l-1 6c0,2 1,2 2,2l3 0c1,0 2,0 2,-1l1 -8c0,-4 -3,-4 -3,-5 0,0 1,0 1,-1 1,0 1,-1 1,-2l0 -3c0,-1 1,-1 1,-1l1 0c0,0 1,0 1,-1l0 -2c0,-1 -1,-1 -1,-2l-3 0c-4,0 -5,3 -5,4l0 3c0,2 -1,2 -2,2l0 0c-1,0 -1,0 -1,0l1 -8c0,-2 -1,-2 -1,-2l-4 0c0,0 -1,0 -1,1l-3 23c0,1 0,2 1,2l4 0zm21 2c0,0 1,0 1,-1l6 -10c0,0 0,0 0,0 0,0 0,0 0,0l-1 11c0,1 1,1 1,1l4 1c0,0 1,0 1,-2l3 -23c0,-1 -1,-1 -1,-1l-4 -1c-1,0 -1,0 -2,1l-5 11c0,0 -1,0 -1,0 0,0 0,0 0,0l1 -11c0,-1 0,-1 -1,-2l-3 0c-1,0 -2,0 -2,1l-2 24c0,0 0,1 1,1l4 0zm21 3c0,0 1,0 2,-1l5 -11c0,0 0,0 0,0 0,0 1,0 1,0l-2 11c0,1 1,1 2,1l3 1c1,0 1,0 2,-1l2 -24c0,-1 -1,-1 -1,-1l-4 -1c0,0 -1,0 -2,2l-5 10c0,0 0,0 0,0 -1,0 -1,0 -1,0l2 -11c0,-1 -1,-1 -2,-1l-3 -1c-1,0 -1,0 -2,1l-2 24c0,0 0,1 1,1l4 1zm10 -28c2,1 3,0 3,-2l0 -1c0,0 0,0 0,0l-3 -1c0,0 -1,0 -1,1l0 0c0,1 -1,1 -1,1l-2 0c-1,-1 -2,-1 -2,-1l1 -1c0,0 -1,0 -1,0l-3 -1c0,0 0,0 0,1l0 1c0,1 0,3 2,3l7 0zm25 14c0,-1 1,-3 3,-3 2,0 2,2 2,3l-1 9c0,1 -1,3 -3,3 -2,0 -2,-2 -2,-3l1 -9zm-9 22c0,0 0,1 2,1l3 1c1,0 2,0 2,-1l0 -7c0,0 1,0 1,0 0,0 1,2 4,2 6,1 7,-5 7,-8l1 -9c0,-3 1,-9 -5,-10 -3,0 -4,2 -5,2 0,0 0,0 0,-1l0 0c0,-1 0,-1 -1,-1l-4 0c-1,0 -1,0 -1,1l-4 30zm27 -3c1,0 1,0 2,-1l5 -10c0,0 0,0 1,0 0,0 0,0 0,0l-1 11c-1,1 0,1 1,1l3 0c1,0 2,0 2,-1l2 -23c0,-1 0,-1 -1,-2l-4 0c0,0 -1,0 -2,1l-5 11c0,0 0,0 0,0 0,0 0,0 0,-1l1 -10c0,-2 -1,-2 -1,-2l-4 0c-1,0 -1,0 -1,1l-3 23c0,1 0,2 1,2l4 0zm16 1c0,0 0,1 2,1l3 0c1,1 2,1 2,-1l1 -9c0,0 0,0 0,0l4 0c0,0 0,0 0,1l-1 9c0,1 1,1 1,1l4 1c1,0 1,-1 2,-2l2 -23c0,-1 -1,-1 -1,-1l-4 -1c-1,0 -1,0 -1,1l-1 8c0,0 0,0 -1,0l-3 0c0,0 -1,0 -1,-1l1 -7c0,-1 0,-1 -1,-1l-4 -1c0,0 -1,0 -1,1l-3 24zm29 -14c0,-3 2,-3 3,-3 1,0 2,1 2,3l-1 10c0,3 -2,3 -3,3 -1,0 -2,-1 -2,-3l1 -10zm-7 8c-1,4 0,10 8,10 8,1 9,-5 10,-8l0 -8c1,-4 0,-9 -8,-10 -7,-1 -9,5 -9,8l-1 8zm25 12c1,0 1,0 1,-1l1 -10c0,0 1,0 1,0l1 0c2,0 2,2 2,3l-1 7c0,1 1,1 2,2l3 0c1,0 2,0 2,-1l1 -8c0,-4 -3,-5 -3,-5 0,-1 0,0 1,-1 1,-1 1,-2 1,-2l0 -4c0,0 1,-1 1,0l0 0c1,0 1,0 2,-1l0 -3c0,-1 -1,-1 -1,-1l-3 0c-4,-1 -5,3 -5,4l0 3c0,2 -1,2 -2,2l0 0c-1,0 -1,0 -1,-1l1 -8c0,-1 -1,-1 -1,-1l-4 0c-1,-1 -1,-1 -1,1l-3 23c0,1 0,1 1,1l4 1zm18 -5c-1,0 -1,0 -1,1l-1 4c0,1 0,2 1,2l1 0c0,0 0,0 0,0l0 0c0,1 0,2 -1,2 -1,0 -1,0 -1,1l-1 1c0,1 0,1 1,1l1 0c2,1 5,-1 6,-5l0 -5c0,-1 0,-2 -1,-2l-4 0zm-271 0c1,-1 2,-2 3,-2 1,0 2,1 2,3l0 2c0,2 -1,3 -3,2 -1,0 -2,-1 -2,-3l0 -2zm-1 14c0,-2 1,-3 3,-3 1,0 2,1 2,3l0 3c-1,1 -1,3 -3,3 -2,0 -3,-2 -2,-4l0 -2zm-7 2c-1,6 3,9 8,9 5,1 10,-1 10,-7l0 -3c1,-6 -2,-6 -2,-7 0,-1 3,-1 3,-5l0 -2c1,-8 -6,-9 -7,-9 -9,-1 -10,6 -10,7l0 2c0,4 2,5 2,6 0,1 -3,0 -4,6l0 3zm32 0c1,0 1,0 2,-1l0 -3c0,0 0,-1 -1,-1l-9 -1c-1,0 -2,0 -2,1l0 3c0,1 0,1 1,1l9 1zm9 13c1,0 1,0 2,-1l5 -11c0,0 0,0 0,0 1,0 1,0 1,0l-1 11c-1,1 0,1 1,1l3 1c1,0 2,0 2,-1l2 -24c0,-1 0,-1 -1,-1l-4 -1c0,0 -1,0 -2,2l-5 10c0,0 0,0 0,0 0,0 0,0 0,0l1 -11c0,-1 -1,-1 -1,-1l-4 -1c-1,0 -1,0 -1,1l-3 24c0,0 0,1 1,1l4 1zm10 -28c2,1 3,-1 3,-2l0 -1c0,0 0,-1 0,-1l-3 0c0,0 0,0 -1,1l0 0c0,1 -1,1 -1,1l-2 -1c-1,0 -1,0 -1,-1l0 0c0,0 0,0 -1,0l-2 -1c-1,0 -1,0 -1,1l0 1c0,1 1,3 2,3l7 0zm25 15c0,-2 1,-4 4,-4 2,0 2,1 4,1 0,0 0,-1 1,-1l0 -4c0,0 0,-1 -5,-2 -8,-1 -10,4 -10,8l-1 8c-1,3 -1,10 8,11 5,0 5,-1 5,-2l1 -3c0,-1 0,-1 -1,-1 0,0 -1,0 -2,0 -1,0 -1,0 -2,0 -3,-1 -3,-3 -3,-4l1 -7zm18 2c0,0 0,-1 0,-1l0 -1c0,-1 0,-3 3,-3 2,0 2,2 2,4l0 1c0,0 0,0 -1,0l-4 0zm9 6c1,0 1,0 1,-1l1 -5c1,-9 -5,-10 -8,-10 -8,-1 -9,5 -10,8l0 8c-1,9 5,10 9,11 1,0 4,0 6,-1 1,0 1,0 1,-1l1 -3c0,-1 -1,-1 -2,-1 -1,0 -3,0 -5,0 -1,0 -4,-1 -4,-4l0 -2c0,0 0,0 1,0l9 1zm9 12c0,0 1,0 1,-1l1 -9c0,-1 0,-1 1,-1l1 0c2,0 2,2 2,4l-1 6c0,1 1,2 1,2l4 0c1,0 1,0 1,-1l1 -8c1,-4 -2,-4 -2,-5 0,0 0,0 1,-1 0,0 0,-1 1,-2l0 -3c0,-1 1,-1 1,-1l0 0c0,0 1,0 1,-1l0 -2c1,-2 0,-2 -1,-2l-2 0c-4,0 -5,3 -5,4l0 3c-1,2 -2,2 -2,2l-1 0c0,0 0,0 0,-1l1 -8c0,-1 -1,-1 -2,-1l-3 0c-1,0 -2,0 -2,1l-2 23c0,1 0,1 1,2l4 0zm27 -17c0,-1 1,-1 1,-1l3 1c2,0 2,-1 2,-2l0 -2c0,-2 -1,-2 -1,-2l-15 -1c0,0 -1,0 -1,1l0 3c0,1 0,1 1,1l3 0c1,1 1,1 1,1l-2 19c0,1 0,1 1,1l4 1c0,0 1,0 1,-2l2 -18zm13 3c1,-2 2,-3 3,-3 1,0 3,1 2,4l-1 10c0,2 -1,3 -2,2 -2,0 -3,0 -3,-3l1 -10zm-7 8c0,4 0,10 8,11 8,1 10,-5 10,-9l1 -8c0,-3 0,-9 -8,-10 -8,-1 -10,5 -10,8l-1 8zm29 -5c0,-1 0,-3 2,-3 2,0 2,2 2,3l-1 9c0,1 0,3 -2,3 -3,0 -2,-2 -2,-3l1 -9zm-9 22c0,1 0,1 1,1l4 1c0,0 1,0 1,-1l1 -6c0,-1 0,-1 0,-1 1,0 1,2 4,2 6,1 7,-4 8,-8l1 -9c0,-3 0,-9 -6,-10 -3,0 -4,2 -4,2 0,0 -1,0 -1,-1l0 0c0,0 0,-1 0,-1l-5 0c0,0 -1,0 -1,1l-3 30zm24 -10c-1,0 -1,0 -2,1l0 5c0,0 0,1 1,1l1 0c0,0 0,0 0,1l0 0c0,1 0,1 -1,2 -1,0 -1,-1 -1,0l-1 2c0,0 0,0 1,1l1 0c2,0 5,-2 6,-6l0 -5c0,0 0,-1 -1,-1l-4 -1zm-243 17c0,-1 0,-1 0,-1 0,0 0,0 0,1l2 5c0,0 0,1 1,1l1 0c1,0 1,-1 1,-1l3 -4c0,-1 0,-1 0,-1 1,0 0,1 0,1l-1 10c0,1 1,1 2,1l3 1c1,0 1,-1 2,-1l2 -24c0,-1 -1,-1 -1,-1l-4 -1c-1,0 -1,1 -1,1l-5 9c0,0 0,0 0,0 -1,0 -1,0 -1,0l-3 -10c0,-1 0,-1 -1,-1l-3 0c-1,0 -2,0 -2,1l-2 23c0,1 0,2 1,2l3 0c1,0 2,0 2,-1l1 -10zm28 7c0,1 -1,2 -2,2 -2,0 -2,-2 -2,-3 0,-3 2,-4 3,-5l1 0c0,0 1,0 1,0l-1 6zm8 -11c0,-3 0,-7 -8,-8 -7,-1 -7,1 -7,1l-1 3c0,1 0,1 1,1 1,0 1,0 2,0 1,0 2,0 4,0 1,0 3,0 2,2 0,0 0,0 0,0l-1 1c-4,1 -10,2 -11,9 0,6 2,9 6,9 1,0 3,0 4,-1 0,0 0,0 0,0 1,0 1,0 1,1 -1,0 0,0 0,0l4 1c1,0 2,-1 2,-1l0 -1 2 -17zm10 0c0,0 0,0 0,0l7 0c1,1 1,0 1,-1l1 -3c0,-1 -1,-1 -1,-1l-13 -1c0,-1 -1,-1 -1,1l-2 23c-1,1 -1,1 1,1l3 1c1,0 2,0 2,-1l2 -19zm19 15c0,1 -1,2 -2,2 -2,0 -2,-2 -2,-3 0,-3 2,-4 3,-5l1 0c1,0 1,0 1,0l-1 6zm8 -11c0,-3 0,-8 -8,-8 -7,-1 -7,1 -7,1l-1 3c0,1 1,1 1,1 1,0 1,0 2,0 2,0 3,0 4,0 1,0 3,0 2,2 0,0 0,0 0,0l-1 1c-4,1 -10,2 -11,9 0,6 3,9 6,9 1,0 3,0 4,-1 0,0 0,0 0,0 1,0 1,0 1,1 0,0 0,0 0,0l4 1c1,0 2,-1 2,-1l0 -1 2 -17zm4 7c0,0 0,1 1,1l1 0c4,1 4,3 4,4 -1,1 -1,3 -4,2 -2,0 -1,0 -4,-1 0,0 0,0 -1,1l0 4c0,0 0,2 5,2 8,1 10,-4 10,-7 1,-3 -1,-5 -2,-6 0,0 -1,-1 -1,-1 0,0 1,0 1,-1 1,0 2,-1 3,-4 0,-3 -1,-7 -8,-8 -1,0 -3,0 -4,1 -1,0 -1,0 -1,1l-1 3c0,0 0,0 1,1 0,0 1,0 1,0 1,-1 2,-1 2,-1 3,1 3,2 3,3 0,1 -1,2 -3,2l-2 0c-1,0 -1,1 -1,1l0 3zm20 15c0,0 1,0 1,-1l6 -11c0,0 0,0 0,0 0,0 0,0 0,0l-1 11c0,1 1,1 1,1l4 1c1,0 1,0 1,-1l3 -24c0,-1 -1,-1 -1,-1l-4 -1c-1,0 -1,0 -2,2l-5 10c0,0 0,0 -1,0 0,0 0,0 0,0l1 -11c1,-1 0,-1 -1,-1l-3 -1c-1,0 -2,0 -2,1l-2 24c0,0 0,1 1,1l4 1zm16 0c0,1 0,1 1,1l4 1c1,0 1,0 1,-1l1 -10c0,0 1,0 1,0l3 0c1,0 1,0 1,1l-1 9c0,1 0,1 1,2l4 0c1,0 1,-1 1,-1l3 -24c0,-1 -1,-1 -2,-1l-3 0c-1,0 -2,0 -2,1l-1 7c0,1 0,1 0,1l-3 -1c-1,0 -1,0 -1,0l1 -8c0,-1 -1,-1 -1,-1l-4 -1c-1,0 -1,0 -1,2l-3 23zm65 -12c0,0 0,2 0,3l0 2 0 2c0,1 0,2 -1,2 -1,0 -1,-1 -1,-3l0 -1c0,-2 0,-5 2,-5zm0 -4c-4,0 -5,1 -6,8 -1,7 0,9 4,9 4,1 6,-1 6,-8 1,-7 0,-8 -4,-9zm-7 22c-1,1 0,1 1,1l7 1c1,0 2,0 2,-1l0 -2c0,-1 -1,-1 -2,-1l-6 -1c-1,0 -2,0 -2,1l0 2zm-1 -22c0,-2 0,-5 4,-4 2,0 4,1 4,1 1,0 1,0 1,-1l0 -3c1,-2 -1,-2 -5,-3 -4,0 -9,0 -10,7l-1 10c0,1 0,1 0,1 0,0 -1,-1 -1,-1l-5 -17c0,-1 -1,-1 -1,-1l-3 -1c-2,0 -2,1 -2,2l-2 24c0,1 -1,3 -2,3l-1 -1c-1,0 -1,1 -2,1l0 3c0,0 0,1 3,1 7,1 7,-3 7,-5l2 -11c0,-1 0,-1 0,-1 0,0 0,0 0,1l5 16c0,1 0,1 1,1l4 1c1,0 1,-1 1,-2l3 -21z"/>
    <path id="1" class="fil1" d="M6 37c0,2 1,2 2,2l4 0c0,1 1,1 1,-1l2 -12c0,0 0,0 0,0l2 0c2,0 4,1 4,5l-1 8c0,1 0,1 1,1l4 1c2,0 2,-1 2,-2l1 -10c0,-5 -3,-5 -3,-6l0 0c0,-1 2,-1 2,-4l1 -4c0,0 0,-1 1,-1l1 0c0,0 1,0 1,-1l0 -3c0,-1 0,-2 -1,-2l-3 0c-3,0 -5,1 -6,5l0 4c0,2 -2,3 -3,3l-2 -1c-1,0 -1,0 -1,0l1 -10c1,-1 1,-2 -1,-2l-4 -1c-1,0 -1,1 -1,2l-4 29zm36 -1c-1,0 -2,1 -3,1 -1,0 -2,-1 -2,-3 1,-3 2,-3 4,-4l1 -1c0,0 0,0 0,1l0 6zm7 -12c1,-3 0,-7 -8,-8 -6,-1 -7,1 -7,2l0 3c0,0 0,1 1,1 0,0 1,-1 2,-1 1,0 2,0 3,0 1,0 3,1 3,2 0,0 0,1 -1,1l-1 0c-4,1 -9,2 -10,10 -1,5 2,8 5,8 2,1 3,0 4,0 0,0 1,-1 1,-1 0,0 0,1 0,1 0,0 0,1 1,1l4 0c1,0 1,0 1,-1l0 0 2 -18zm9 -6c-1,0 -2,1 -2,1l-1 8c-1,9 -1,12 -4,12l0 0c-1,-1 -1,-1 -2,1l0 3c0,1 1,1 3,1 7,1 8,-5 9,-15l1 -4c0,-1 0,-1 1,-1l2 0c0,0 0,1 0,1l-2 19c0,1 1,1 1,1l4 0c1,1 1,0 1,-1l3 -23c0,-1 -1,-1 -1,-2l-13 -1zm20 28c1,1 1,1 2,-1l5 -10c0,0 0,0 1,0 0,0 0,0 0,0l-1 11c-1,1 0,1 1,1l3 1c1,0 2,0 2,-2l2 -23c0,-1 0,-1 -1,-1l-4 -1c0,0 -1,0 -2,1l-5 11c0,0 0,0 0,0 0,0 0,0 0,0l1 -11c0,-1 -1,-1 -1,-1l-4 -1c-1,0 -1,0 -1,1l-3 24c0,0 0,1 1,1l4 0zm16 1c0,0 0,1 2,1l3 1c1,0 2,0 2,-1l1 -10c0,0 0,0 0,0l4 0c0,0 0,0 0,1l-1 9c0,1 1,1 1,1l4 1c1,0 1,-1 2,-1l2 -24c0,-1 -1,-1 -1,-1l-4 0c-1,-1 -1,-1 -1,1l-1 7c0,1 0,1 -1,1l-3 -1c0,0 -1,0 -1,0l1 -8c0,-1 0,-1 -1,-1l-4 -1c0,0 -1,0 -1,2l-3 23zm30 -21c0,-1 -1,-1 -1,-1l-4 0c0,-1 -1,-1 -1,1l-3 23c0,1 0,1 1,1l4 1c1,0 1,0 2,-1l2 -24zm1 -7c0,-1 -1,-1 -1,-1l-4 -1c-1,0 -1,1 -2,1l0 3c0,1 0,1 1,2l4 0c1,0 1,-1 2,-1l0 -3zm8 22c0,0 0,0 0,0l1 0c2,0 3,2 3,3 0,2 -1,3 -3,3l-2 0c0,0 0,0 0,0l1 -6zm1 -9c0,-1 0,-1 0,-1l1 0c2,0 2,2 2,3 0,1 -1,2 -2,2l-1 0c-1,0 -1,0 -1,-1l1 -3zm-9 18c0,0 0,1 1,2l8 0c2,1 9,1 10,-7 0,-3 -1,-5 -2,-6 -1,0 -1,0 -1,0 0,0 0,-1 0,-1 1,0 3,-1 3,-4 0,-4 -1,-7 -7,-8l-8 0c0,0 -1,0 -1,1l-3 23zm29 -12c0,-2 1,-4 4,-4 2,0 2,1 4,1 1,0 1,0 1,-1l0 -3c0,-1 0,-2 -5,-3 -8,-1 -10,4 -10,8l-1 8c0,4 -1,10 9,11 5,1 5,-1 5,-1l0 -4c0,0 0,-1 -1,-1 0,0 0,0 -1,0 -1,0 -2,0 -2,0 -4,0 -4,-3 -4,-4l1 -7zm17 7c0,-1 1,-1 1,-1l1 0c2,1 3,2 3,4 0,2 -1,3 -3,3l-2 0c0,0 0,-1 0,-1l0 -5zm1 11c7,1 11,-3 11,-8 1,-4 -3,-8 -8,-9l-2 0c-1,0 -1,0 -1,-1l1 -6c0,-2 -1,-2 -1,-2l-4 0c-1,0 -1,0 -2,1l-2 23c0,1 0,1 1,2l7 0zm18 2c1,0 1,0 2,-1l1 -9c0,0 0,-1 0,-1l1 0c2,1 2,3 2,4l-1 6c0,2 1,2 2,2l3 0c1,0 2,0 2,-1l1 -8c0,-4 -3,-4 -3,-5 0,0 1,0 1,-1 1,0 1,-1 1,-2l0 -3c0,-1 1,-1 1,-1l1 0c0,0 1,0 1,-1l0 -2c0,-1 -1,-1 -1,-2l-3 0c-4,0 -5,3 -5,4l0 3c0,2 -1,2 -2,2l0 0c-1,0 -1,0 -1,0l1 -8c0,-2 -1,-2 -1,-2l-4 0c0,0 -1,0 -1,1l-3 23c0,1 0,2 1,2l4 0zm21 2c0,0 1,0 1,-1l6 -10c0,0 0,0 0,0 0,0 0,0 0,0l-1 11c0,1 1,1 1,1l4 1c0,0 1,0 1,-2l3 -23c0,-1 -1,-1 -1,-1l-4 -1c-1,0 -1,0 -2,1l-5 11c0,0 -1,0 -1,0 0,0 0,0 0,0l1 -11c0,-1 0,-1 -1,-2l-3 0c-1,0 -2,0 -2,1l-2 24c0,0 0,1 1,1l4 0zm21 3c0,0 1,0 2,-1l5 -11c0,0 0,0 0,0 0,0 1,0 1,0l-2 11c0,1 1,1 2,1l3 1c1,0 1,0 2,-1l2 -24c0,-1 -1,-1 -1,-1l-4 -1c0,0 -1,0 -2,2l-5 10c0,0 0,0 0,0 -1,0 -1,0 -1,0l2 -11c0,-1 -1,-1 -2,-1l-3 -1c-1,0 -1,0 -2,1l-2 24c0,0 0,1 1,1l4 1zm10 -28c2,1 3,0 3,-2l0 -1c0,0 0,0 0,0l-3 -1c0,0 -1,0 -1,1l0 0c0,1 -1,1 -1,1l-2 0c-1,-1 -2,-1 -2,-1l1 -1c0,0 -1,0 -1,0l-3 -1c0,0 0,0 0,1l0 1c0,1 0,3 2,3l7 0zm25 14c0,-1 1,-3 3,-3 2,0 2,2 2,3l-1 9c0,1 -1,3 -3,3 -2,0 -2,-2 -2,-3l1 -9zm-9 22c0,0 0,1 2,1l3 1c1,0 2,0 2,-1l0 -7c0,0 1,0 1,0 0,0 1,2 4,2 6,1 7,-5 7,-8l1 -9c0,-3 1,-9 -5,-10 -3,0 -4,2 -5,2 0,0 0,0 0,-1l0 0c0,-1 0,-1 -1,-1l-4 0c-1,0 -1,0 -1,1l-4 30zm27 -3c1,0 1,0 2,-1l5 -10c0,0 0,0 1,0 0,0 0,0 0,0l-1 11c-1,1 0,1 1,1l3 0c1,0 2,0 2,-1l2 -23c0,-1 0,-1 -1,-2l-4 0c0,0 -1,0 -2,1l-5 11c0,0 0,0 0,0 0,0 0,0 0,-1l1 -10c0,-2 -1,-2 -1,-2l-4 0c-1,0 -1,0 -1,1l-3 23c0,1 0,2 1,2l4 0zm16 1c0,0 0,1 2,1l3 0c1,1 2,1 2,-1l1 -9c0,0 0,0 0,0l4 0c0,0 0,0 0,1l-1 9c0,1 1,1 1,1l4 1c1,0 1,-1 2,-2l2 -23c0,-1 -1,-1 -1,-1l-4 -1c-1,0 -1,0 -1,1l-1 8c0,0 0,0 -1,0l-3 0c0,0 -1,0 -1,-1l1 -7c0,-1 0,-1 -1,-1l-4 -1c0,0 -1,0 -1,1l-3 24zm29 -14c0,-3 2,-3 3,-3 1,0 2,1 2,3l-1 10c0,3 -2,3 -3,3 -1,0 -2,-1 -2,-3l1 -10zm-7 8c-1,4 0,10 8,10 8,1 9,-5 10,-8l0 -8c1,-4 0,-9 -8,-10 -7,-1 -9,5 -9,8l-1 8zm25 12c1,0 1,0 1,-1l1 -10c0,0 1,0 1,0l1 0c2,0 2,2 2,3l-1 7c0,1 1,1 2,2l3 0c1,0 2,0 2,-1l1 -8c0,-4 -3,-5 -3,-5 0,-1 0,0 1,-1 1,-1 1,-2 1,-2l0 -4c0,0 1,-1 1,0l0 0c1,0 1,0 2,-1l0 -3c0,-1 -1,-1 -1,-1l-3 0c-4,-1 -5,3 -5,4l0 3c0,2 -1,2 -2,2l0 0c-1,0 -1,0 -1,-1l1 -8c0,-1 -1,-1 -1,-1l-4 0c-1,-1 -1,-1 -1,1l-3 23c0,1 0,1 1,1l4 1zm18 -5c-1,0 -1,0 -1,1l-1 4c0,1 0,2 1,2l1 0c0,0 0,0 0,0l0 0c0,1 0,2 -1,2 -1,0 -1,0 -1,1l-1 1c0,1 0,1 1,1l1 0c2,1 5,-1 6,-5l0 -5c0,-1 0,-2 -1,-2l-4 0zm-271 0c1,-1 2,-2 3,-2 1,0 2,1 2,3l0 2c0,2 -1,3 -3,2 -1,0 -2,-1 -2,-3l0 -2zm-1 14c0,-2 1,-3 3,-3 1,0 2,1 2,3l0 3c-1,1 -1,3 -3,3 -2,0 -3,-2 -2,-4l0 -2zm-7 2c-1,6 3,9 8,9 5,1 10,-1 10,-7l0 -3c1,-6 -2,-6 -2,-7 0,-1 3,-1 3,-5l0 -2c1,-8 -6,-9 -7,-9 -9,-1 -10,6 -10,7l0 2c0,4 2,5 2,6 0,1 -3,0 -4,6l0 3zm32 0c1,0 1,0 2,-1l0 -3c0,0 0,-1 -1,-1l-9 -1c-1,0 -2,0 -2,1l0 3c0,1 0,1 1,1l9 1zm9 13c1,0 1,0 2,-1l5 -11c0,0 0,0 0,0 1,0 1,0 1,0l-1 11c-1,1 0,1 1,1l3 1c1,0 2,0 2,-1l2 -24c0,-1 0,-1 -1,-1l-4 -1c0,0 -1,0 -2,2l-5 10c0,0 0,0 0,0 0,0 0,0 0,0l1 -11c0,-1 -1,-1 -1,-1l-4 -1c-1,0 -1,0 -1,1l-3 24c0,0 0,1 1,1l4 1zm10 -28c2,1 3,-1 3,-2l0 -1c0,0 0,-1 0,-1l-3 0c0,0 0,0 -1,1l0 0c0,1 -1,1 -1,1l-2 -1c-1,0 -1,0 -1,-1l0 0c0,0 0,0 -1,0l-2 -1c-1,0 -1,0 -1,1l0 1c0,1 1,3 2,3l7 0zm25 15c0,-2 1,-4 4,-4 2,0 2,1 4,1 0,0 0,-1 1,-1l0 -4c0,0 0,-1 -5,-2 -8,-1 -10,4 -10,8l-1 8c-1,3 -1,10 8,11 5,0 5,-1 5,-2l1 -3c0,-1 0,-1 -1,-1 0,0 -1,0 -2,0 -1,0 -1,0 -2,0 -3,-1 -3,-3 -3,-4l1 -7zm18 2c0,0 0,-1 0,-1l0 -1c0,-1 0,-3 3,-3 2,0 2,2 2,4l0 1c0,0 0,0 -1,0l-4 0zm9 6c1,0 1,0 1,-1l1 -5c1,-9 -5,-10 -8,-10 -8,-1 -9,5 -10,8l0 8c-1,9 5,10 9,11 1,0 4,0 6,-1 1,0 1,0 1,-1l1 -3c0,-1 -1,-1 -2,-1 -1,0 -3,0 -5,0 -1,0 -4,-1 -4,-4l0 -2c0,0 0,0 1,0l9 1zm9 12c0,0 1,0 1,-1l1 -9c0,-1 0,-1 1,-1l1 0c2,0 2,2 2,4l-1 6c0,1 1,2 1,2l4 0c1,0 1,0 1,-1l1 -8c1,-4 -2,-4 -2,-5 0,0 0,0 1,-1 0,0 0,-1 1,-2l0 -3c0,-1 1,-1 1,-1l0 0c0,0 1,0 1,-1l0 -2c1,-2 0,-2 -1,-2l-2 0c-4,0 -5,3 -5,4l0 3c-1,2 -2,2 -2,2l-1 0c0,0 0,0 0,-1l1 -8c0,-1 -1,-1 -2,-1l-3 0c-1,0 -2,0 -2,1l-2 23c0,1 0,1 1,2l4 0zm27 -17c0,-1 1,-1 1,-1l3 1c2,0 2,-1 2,-2l0 -2c0,-2 -1,-2 -1,-2l-15 -1c0,0 -1,0 -1,1l0 3c0,1 0,1 1,1l3 0c1,1 1,1 1,1l-2 19c0,1 0,1 1,1l4 1c0,0 1,0 1,-2l2 -18zm13 3c1,-2 2,-3 3,-3 1,0 3,1 2,4l-1 10c0,2 -1,3 -2,2 -2,0 -3,0 -3,-3l1 -10zm-7 8c0,4 0,10 8,11 8,1 10,-5 10,-9l1 -8c0,-3 0,-9 -8,-10 -8,-1 -10,5 -10,8l-1 8zm29 -5c0,-1 0,-3 2,-3 2,0 2,2 2,3l-1 9c0,1 0,3 -2,3 -3,0 -2,-2 -2,-3l1 -9zm-9 22c0,1 0,1 1,1l4 1c0,0 1,0 1,-1l1 -6c0,-1 0,-1 0,-1 1,0 1,2 4,2 6,1 7,-4 8,-8l1 -9c0,-3 0,-9 -6,-10 -3,0 -4,2 -4,2 0,0 -1,0 -1,-1l0 0c0,0 0,-1 0,-1l-5 0c0,0 -1,0 -1,1l-3 30zm24 -10c-1,0 -1,0 -2,1l0 5c0,0 0,1 1,1l1 0c0,0 0,0 0,1l0 0c0,1 0,1 -1,2 -1,0 -1,-1 -1,0l-1 2c0,0 0,0 1,1l1 0c2,0 5,-2 6,-6l0 -5c0,0 0,-1 -1,-1l-4 -1zm-243 17c0,-1 0,-1 0,-1 0,0 0,0 0,1l2 5c0,0 0,1 1,1l1 0c1,0 1,-1 1,-1l3 -4c0,-1 0,-1 0,-1 1,0 0,1 0,1l-1 10c0,1 1,1 2,1l3 1c1,0 1,-1 2,-1l2 -24c0,-1 -1,-1 -1,-1l-4 -1c-1,0 -1,1 -1,1l-5 9c0,0 0,0 0,0 -1,0 -1,0 -1,0l-3 -10c0,-1 0,-1 -1,-1l-3 0c-1,0 -2,0 -2,1l-2 23c0,1 0,2 1,2l3 0c1,0 2,0 2,-1l1 -10zm28 7c0,1 -1,2 -2,2 -2,0 -2,-2 -2,-3 0,-3 2,-4 3,-5l1 0c0,0 1,0 1,0l-1 6zm8 -11c0,-3 0,-7 -8,-8 -7,-1 -7,1 -7,1l-1 3c0,1 0,1 1,1 1,0 1,0 2,0 1,0 2,0 4,0 1,0 3,0 2,2 0,0 0,0 0,0l-1 1c-4,1 -10,2 -11,9 0,6 2,9 6,9 1,0 3,0 4,-1 0,0 0,0 0,0 1,0 1,0 1,1 -1,0 0,0 0,0l4 1c1,0 2,-1 2,-1l0 -1 2 -17zm10 0c0,0 0,0 0,0l7 0c1,1 1,0 1,-1l1 -3c0,-1 -1,-1 -1,-1l-13 -1c0,-1 -1,-1 -1,1l-2 23c-1,1 -1,1 1,1l3 1c1,0 2,0 2,-1l2 -19zm19 15c0,1 -1,2 -2,2 -2,0 -2,-2 -2,-3 0,-3 2,-4 3,-5l1 0c1,0 1,0 1,0l-1 6zm8 -11c0,-3 0,-8 -8,-8 -7,-1 -7,1 -7,1l-1 3c0,1 1,1 1,1 1,0 1,0 2,0 2,0 3,0 4,0 1,0 3,0 2,2 0,0 0,0 0,0l-1 1c-4,1 -10,2 -11,9 0,6 3,9 6,9 1,0 3,0 4,-1 0,0 0,0 0,0 1,0 1,0 1,1 0,0 0,0 0,0l4 1c1,0 2,-1 2,-1l0 -1 2 -17zm4 7c0,0 0,1 1,1l1 0c4,1 4,3 4,4 -1,1 -1,3 -4,2 -2,0 -1,0 -4,-1 0,0 0,0 -1,1l0 4c0,0 0,2 5,2 8,1 10,-4 10,-7 1,-3 -1,-5 -2,-6 0,0 -1,-1 -1,-1 0,0 1,0 1,-1 1,0 2,-1 3,-4 0,-3 -1,-7 -8,-8 -1,0 -3,0 -4,1 -1,0 -1,0 -1,1l-1 3c0,0 0,0 1,1 0,0 1,0 1,0 1,-1 2,-1 2,-1 3,1 3,2 3,3 0,1 -1,2 -3,2l-2 0c-1,0 -1,1 -1,1l0 3zm20 15c0,0 1,0 1,-1l6 -11c0,0 0,0 0,0 0,0 0,0 0,0l-1 11c0,1 1,1 1,1l4 1c1,0 1,0 1,-1l3 -24c0,-1 -1,-1 -1,-1l-4 -1c-1,0 -1,0 -2,2l-5 10c0,0 0,0 -1,0 0,0 0,0 0,0l1 -11c1,-1 0,-1 -1,-1l-3 -1c-1,0 -2,0 -2,1l-2 24c0,0 0,1 1,1l4 1zm16 0c0,1 0,1 1,1l4 1c1,0 1,0 1,-1l1 -10c0,0 1,0 1,0l3 0c1,0 1,0 1,1l-1 9c0,1 0,1 1,2l4 0c1,0 1,-1 1,-1l3 -24c0,-1 -1,-1 -2,-1l-3 0c-1,0 -2,0 -2,1l-1 7c0,1 0,1 0,1l-3 -1c-1,0 -1,0 -1,0l1 -8c0,-1 -1,-1 -1,-1l-4 -1c-1,0 -1,0 -1,2l-3 23zm65 -12c0,0 0,2 0,3l0 2 0 2c0,1 0,2 -1,2 -1,0 -1,-1 -1,-3l0 -1c0,-2 0,-5 2,-5zm0 -4c-4,0 -5,1 -6,8 -1,7 0,9 4,9 4,1 6,-1 6,-8 1,-7 0,-8 -4,-9zm-7 22c-1,1 0,1 1,1l7 1c1,0 2,0 2,-1l0 -2c0,-1 -1,-1 -2,-1l-6 -1c-1,0 -2,0 -2,1l0 2zm-1 -22c0,-2 0,-5 4,-4 2,0 4,1 4,1 1,0 1,0 1,-1l0 -3c1,-2 -1,-2 -5,-3 -4,0 -9,0 -10,7l-1 10c0,1 0,1 0,1 0,0 -1,-1 -1,-1l-5 -17c0,-1 -1,-1 -1,-1l-3 -1c-2,0 -2,1 -2,2l-2 24c0,1 -1,3 -2,3l-1 -1c-1,0 -1,1 -2,1l0 3c0,0 0,1 3,1 7,1 7,-3 7,-5l2 -11c0,-1 0,-1 0,-1 0,0 0,0 0,1l5 16c0,1 0,1 1,1l4 1c1,0 1,-1 1,-2l3 -21z"/>
   </g>
   <g>
    <path class="fil0 str0" d="M245 158c1,0 2,0 2,-2l0 -2c0,-2 -1,-2 -1,-2l-9 -1c0,0 0,0 0,0 3,-9 11,-6 12,-16 1,-6 -2,-11 -8,-11 -4,-1 -9,1 -10,8l0 1c-1,2 0,2 1,2l3 0c1,0 2,0 2,-1l0 -1c0,-2 1,-4 3,-4 2,1 3,2 2,5 0,4 -2,5 -6,9 -2,2 -7,6 -7,11l0 0c-1,1 -1,2 1,2l15 2zm14 -24c0,-1 1,-2 3,-2 1,0 2,1 2,3l-1 2c0,2 -1,3 -2,2 -1,0 -2,-1 -2,-3l0 -2zm-2 14c1,-2 2,-3 3,-3 1,0 3,1 2,3l0 3c0,1 0,3 -3,3 -1,0 -2,-1 -2,-4l0 -2zm-6 2c-1,6 3,9 8,10 5,0 9,-2 10,-8l0 -3c1,-6 -2,-6 -2,-7 0,-1 2,-1 3,-5l0 -2c1,-8 -7,-9 -8,-9 -8,-1 -9,6 -9,7l0 3c-1,3 2,4 2,5 -1,1 -3,0 -4,6l0 3zm23 4c-1,0 -2,0 -2,1l0 4c0,1 0,1 1,2l1 0c0,0 0,0 0,0l0 0c0,1 -1,2 -1,2 -1,0 -2,0 -2,1l0 1c0,1 0,1 1,1l0 0c3,1 6,-1 6,-5l1 -5c0,-1 0,-2 -1,-2l-4 0zm36 10c1,1 1,1 2,-1l0 -2c0,-2 -1,-2 -2,-2l-8 -1c0,0 0,0 0,-1 3,-8 11,-5 12,-16 1,-5 -3,-10 -8,-10 -4,-1 -10,0 -10,8l-1 1c0,2 1,2 2,2l3 0c1,0 2,0 2,-1l0 -2c0,-1 0,-3 3,-3 2,0 2,2 2,5 0,4 -2,5 -6,8 -3,3 -7,7 -8,12l0 0c0,1 0,2 2,2l15 1zm14 -23c0,-1 1,-3 2,-2 2,0 3,1 3,2l-1 6c0,2 -1,3 -3,3 -1,-1 -2,-2 -2,-3l1 -6zm11 3c1,-4 0,-10 -8,-11 -6,-1 -9,2 -10,8l-1 6c0,6 3,8 6,8 1,0 3,0 4,0 0,0 1,0 1,0 0,0 0,0 0,0l0 1c0,2 -1,5 -5,5 -3,-1 -1,-2 -5,-2 -1,0 -1,0 -1,1l0 3c-1,1 -1,2 6,3 10,1 12,-6 12,-9l1 -13zm-293 25c0,-3 1,-8 5,-12 1,-1 2,-1 2,-1l0 -5c0,0 0,-1 0,-1 -1,0 -3,1 -4,2 -3,2 -9,7 -10,17 -1,9 4,15 7,18 0,1 2,2 3,3 0,0 0,-1 0,-1l1 -5c0,-1 -1,-1 -1,-2 -4,-4 -4,-10 -3,-13zm17 -8c0,-3 2,-3 3,-3 2,0 2,2 2,3l-2 16c0,0 0,3 -2,3 -2,-1 -3,-1 -2,-4l1 -15zm-8 14c-1,6 3,10 8,10 5,1 9,-2 10,-9l2 -13c0,-7 -4,-11 -9,-11 -5,-1 -9,2 -10,9l-1 14zm30 -13c0,-1 0,-2 2,-2 2,0 2,1 2,3l0 5c0,2 -1,3 -3,3 -1,0 -2,-1 -2,-3l1 -6zm11 3c0,-3 0,-10 -8,-11 -6,0 -10,3 -10,8l-1 6c-1,6 3,8 6,9 1,0 3,0 3,-1 1,0 1,0 2,0 0,0 0,0 0,0l0 1c0,2 -1,5 -5,5 -3,-1 -1,-1 -5,-2 -1,0 -1,1 -1,1l-1 3c0,1 0,3 7,3 10,2 11,-5 12,-9l1 -13zm13 17c0,1 -1,2 -3,2 -1,0 -2,-1 -2,-3l1 -5c0,-2 1,-3 2,-3 2,0 3,1 2,3l0 6zm-12 -3c0,3 0,10 8,11 6,0 10,-3 11,-8l0 -6c1,-6 -3,-8 -6,-9 -1,0 -2,0 -3,1 -1,0 -1,0 -1,0 0,0 0,0 0,0l0 -1c0,-2 0,-5 4,-5 3,1 2,1 5,2 1,0 1,-1 1,-1l1 -3c0,-1 0,-3 -7,-3 -10,-1 -11,5 -11,9l-2 13zm21 17c0,0 0,1 0,1 1,0 3,-1 4,-2 3,-2 9,-7 10,-17 1,-9 -3,-15 -6,-18 -1,-1 -3,-2 -4,-3 0,0 0,1 0,1l-1 5c0,1 1,1 2,2 3,4 3,10 3,13 -1,3 -2,8 -6,12 -1,1 -1,1 -2,1l0 5zm40 -9c0,1 -1,3 -3,2 -1,0 -2,-1 -2,-3l1 -5c0,-2 1,-3 2,-3 2,0 3,1 2,3l0 6zm-12 -3c0,4 0,10 8,11 6,1 10,-2 11,-8l0 -6c1,-6 -3,-8 -6,-8 -1,-1 -2,-1 -3,0 -1,0 -1,0 -1,0 -1,0 -1,0 -1,0l1 -1c0,-2 0,-5 4,-5 3,1 2,1 5,2 1,0 1,0 1,-1l1 -3c0,-1 0,-3 -7,-3 -10,-1 -11,6 -11,9l-2 13zm25 -21c-2,0 -2,1 -2,2l0 2c0,2 0,2 1,2l8 1c0,0 0,0 0,0 0,0 0,1 -2,5 -5,10 -7,16 -7,19l0 0c0,1 0,2 2,2l3 1c2,0 2,-1 2,-2 1,-5 4,-15 8,-21 2,-4 3,-4 3,-5l0 -2c0,-1 0,-2 -1,-2l-15 -2zm21 34c0,1 -1,1 1,2l4 0c1,0 1,0 2,-1l3 -30c0,-1 0,-1 -2,-2l-2 0c-2,0 -1,1 -3,2 -1,1 -3,1 -4,1l-2 0c-1,0 -1,1 -1,1l0 2c0,1 -1,2 1,2l4 1c1,0 1,0 1,0l-2 22zm22 -7c0,0 1,0 1,-2l0 -2c0,-1 1,-2 -1,-2l-9 -1c0,0 -1,0 -1,1l-1 3c0,1 0,2 2,2l9 1zm13 -12c0,-3 1,-3 2,-3 3,0 2,2 2,3l-1 16c0,1 -1,3 -3,3 -1,0 -2,-1 -2,-4l2 -15zm-9 14c0,6 3,10 8,11 5,0 10,-3 11,-9l1 -14c1,-7 -3,-10 -8,-11 -5,0 -10,2 -10,9l-2 14zm25 -21c-2,0 -2,1 -2,1l0 3c0,1 1,2 1,2l8 0c1,0 1,1 1,1 0,0 0,0 -3,4 -5,11 -6,17 -7,20l0 0c0,1 0,2 2,2l3 0c2,0 2,0 2,-1 1,-5 4,-15 8,-21 2,-4 3,-4 3,-5l0 -3c0,-1 0,-1 -1,-2l-15 -1zm27 25c1,0 1,0 2,-2l0 -3c0,0 0,-1 -1,-1l-9 -1c-1,0 -2,0 -2,1l0 3c0,1 0,1 1,2l9 1zm9 10c0,1 0,2 2,2l3 0c1,0 2,0 2,-1l3 -30c0,0 0,-1 -1,-1l-3 -1c-1,0 -1,1 -2,2 -1,1 -3,1 -5,1l-1 0c-1,0 -1,1 -1,2l-1 2c0,1 0,1 2,1l4 1c0,0 1,0 1,1l-3 21zm20 -21c0,-2 2,-3 3,-2 2,0 2,2 2,3l-2 15c0,1 0,4 -3,3 -1,0 -2,-1 -2,-3l2 -16zm-9 14c0,7 4,11 9,11 5,1 9,-2 10,-9l1 -13c1,-7 -3,-11 -8,-11 -5,-1 -9,2 -10,9l-2 13zm24 6c-1,-1 -1,-1 -2,1l0 4c0,0 0,1 1,1l1 0c0,0 0,1 0,1l0 0c0,1 0,2 -1,2 -1,0 -1,0 -2,0l0 2c0,0 0,1 1,1l1 0c2,0 5,-2 6,-5l0 -6c0,0 0,-1 -1,-1l-4 0zm-272 11c0,-3 1,-8 5,-12 2,-1 2,-1 2,-2l1 -5c0,0 0,0 -1,0 -1,0 -3,1 -3,1 -4,2 -10,7 -11,17 -1,10 4,16 7,19 0,0 2,2 3,2 0,0 1,0 1,-1l0 -4c0,-1 0,-1 -1,-3 -3,-4 -4,-9 -3,-12zm17 -9c1,-3 2,-3 3,-3 2,0 2,3 2,4l-2 15c0,1 0,3 -2,3 -1,0 -2,-1 -2,-3l1 -16zm-8 14c-1,7 3,10 8,11 5,0 10,-3 10,-9l2 -14c1,-6 -3,-10 -8,-11 -5,0 -10,3 -11,9l-1 14zm30 -12c0,-2 1,-3 2,-3 2,0 3,2 3,3l-1 6c0,2 -1,3 -3,2 -1,0 -2,-1 -2,-3l1 -5zm11 3c1,-4 1,-10 -8,-11 -6,-1 -9,2 -10,7l-1 7c0,6 3,8 7,8 0,0 2,0 3,0 0,-1 1,-1 1,-1 0,0 0,0 0,1l0 1c0,1 -1,5 -4,4 -4,0 -2,-1 -6,-1 -1,0 -1,0 -1,0l0 4c0,1 -1,2 6,3 10,1 12,-6 12,-10l1 -12zm10 -1c0,-2 1,-3 3,-3 1,1 2,2 2,3l-1 6c0,2 -1,3 -2,3 -2,-1 -3,-2 -3,-3l1 -6zm12 3c0,-4 0,-10 -8,-11 -6,-1 -10,2 -11,7l0 7c-1,6 3,8 6,8 1,0 2,0 3,0 1,0 1,-1 1,-1 0,1 0,1 0,1l0 1c0,2 0,5 -4,5 -4,-1 -2,-2 -6,-2 -1,0 -1,0 -1,0l0 4c0,1 -1,2 7,3 10,1 11,-6 11,-9l2 -13zm0 28c0,1 0,1 1,1 0,0 3,-1 3,-1 4,-3 9,-8 10,-17 1,-10 -3,-16 -6,-19 -1,0 -3,-2 -3,-2 -1,0 -1,0 -1,1l0 4c0,1 0,1 1,2 3,5 3,10 3,13 0,3 -2,8 -6,12 -1,1 -1,1 -1,2l-1 4zm30 -13c-1,0 -1,0 -1,1l-1 2c0,6 3,9 8,9 7,1 10,-2 11,-9 1,-8 -3,-5 -3,-8l0 0c0,-1 4,-1 4,-7 1,-5 -2,-8 -8,-9 -4,0 -8,1 -9,6l0 1c0,1 1,1 1,1l3 1c2,0 2,-1 2,-1l0 0c0,-2 1,-3 2,-2 2,0 3,1 2,3 0,4 -2,4 -3,4l-2 0c-1,0 -2,0 -2,1l0 2c0,2 1,2 2,2l1 0c2,0 4,1 3,6 0,2 -1,4 -3,4 -1,0 -3,-1 -2,-3l0 -2c0,0 0,-1 -2,-1l-3 -1zm31 7c0,1 -1,2 -2,2 -2,0 -3,-1 -2,-3l0 -6c0,-1 1,-2 3,-2 1,0 2,1 2,3l-1 6zm-11 -3c-1,3 0,10 8,11 6,0 10,-3 10,-8l1 -6c0,-6 -3,-8 -6,-9 -1,0 -3,0 -4,1 0,0 0,0 -1,0 0,0 0,0 0,0l0 -2c0,-1 1,-4 5,-4 3,0 1,1 5,2 1,0 1,-1 1,-1l0 -4c0,-1 0,-2 -6,-3 -10,-1 -11,6 -12,10l-1 13zm32 5c0,1 0,2 -2,2 -2,0 -2,-1 -2,-3l0 -5c0,-2 1,-3 3,-3 1,0 2,1 2,3l-1 6zm-11 -3c0,4 0,10 8,11 6,0 10,-2 10,-8l1 -6c1,-6 -3,-8 -6,-9 -1,0 -2,0 -3,1 -1,0 -1,0 -2,0 0,0 0,0 0,0l0 -1c0,-2 1,-5 5,-5 3,1 1,1 5,2 1,0 1,-1 1,-1l0 -3c0,-1 0,-3 -6,-3 -10,-1 -11,5 -12,9l-1 13zm32 2c1,0 2,0 2,-1l0 -3c0,-1 0,-2 -1,-2l-9 -1c-1,0 -2,0 -2,2l0 2c0,1 0,2 1,2l9 1zm9 10c0,1 0,2 2,2l3 1c1,0 2,0 2,-2l3 -29c0,-1 1,-2 -1,-2l-3 0c-1,-1 -1,0 -2,1 -1,1 -3,2 -5,2l-1 -1c-1,0 -1,1 -1,2l-1 2c0,1 0,2 2,2l4 0c1,0 1,0 1,1l-3 21zm20 -21c0,-1 1,-3 2,-2 2,0 3,1 2,3l0 5c0,2 -1,3 -3,3 -1,0 -2,-1 -2,-3l1 -6zm11 3c1,-4 0,-10 -8,-11 -6,-1 -10,2 -10,8l-1 6c0,6 3,8 6,8 1,1 3,1 4,0 0,0 0,0 1,0 0,0 0,0 0,0l0 1c0,2 -1,5 -5,5 -3,-1 -1,-2 -5,-2 -1,0 -1,0 -1,1l0 3c-1,1 -1,2 6,3 10,1 11,-5 12,-9l1 -13zm13 13c0,0 1,0 1,-1l0 -3c0,0 0,-1 -1,-1l-9 -1c-1,0 -1,0 -1,1l-1 3c0,1 0,1 2,1l9 1zm13 -11c0,-3 1,-3 2,-3 3,0 2,2 2,3l-1 16c0,0 -1,3 -3,2 -1,0 -2,-1 -2,-3l2 -15zm-9 13c0,7 3,11 8,11 5,1 10,-2 11,-9l1 -13c1,-7 -3,-11 -8,-11 -5,-1 -10,2 -10,9l-2 13zm30 -11c1,-3 2,-3 3,-3 2,0 2,2 2,3l-2 16c0,1 0,3 -2,3 -1,0 -3,-1 -2,-4l1 -15zm-8 14c-1,6 3,10 8,11 5,0 10,-3 10,-9l2 -14c0,-7 -3,-10 -8,-11 -5,0 -10,2 -11,9l-1 14z"/>
    <path id="1" class="fil1" d="M245 158c1,0 2,0 2,-2l0 -2c0,-2 -1,-2 -1,-2l-9 -1c0,0 0,0 0,0 3,-9 11,-6 12,-16 1,-6 -2,-11 -8,-11 -4,-1 -9,1 -10,8l0 1c-1,2 0,2 1,2l3 0c1,0 2,0 2,-1l0 -1c0,-2 1,-4 3,-4 2,1 3,2 2,5 0,4 -2,5 -6,9 -2,2 -7,6 -7,11l0 0c-1,1 -1,2 1,2l15 2zm14 -24c0,-1 1,-2 3,-2 1,0 2,1 2,3l-1 2c0,2 -1,3 -2,2 -1,0 -2,-1 -2,-3l0 -2zm-2 14c1,-2 2,-3 3,-3 1,0 3,1 2,3l0 3c0,1 0,3 -3,3 -1,0 -2,-1 -2,-4l0 -2zm-6 2c-1,6 3,9 8,10 5,0 9,-2 10,-8l0 -3c1,-6 -2,-6 -2,-7 0,-1 2,-1 3,-5l0 -2c1,-8 -7,-9 -8,-9 -8,-1 -9,6 -9,7l0 3c-1,3 2,4 2,5 -1,1 -3,0 -4,6l0 3zm23 4c-1,0 -2,0 -2,1l0 4c0,1 0,1 1,2l1 0c0,0 0,0 0,0l0 0c0,1 -1,2 -1,2 -1,0 -2,0 -2,1l0 1c0,1 0,1 1,1l0 0c3,1 6,-1 6,-5l1 -5c0,-1 0,-2 -1,-2l-4 0zm36 10c1,1 1,1 2,-1l0 -2c0,-2 -1,-2 -2,-2l-8 -1c0,0 0,0 0,-1 3,-8 11,-5 12,-16 1,-5 -3,-10 -8,-10 -4,-1 -10,0 -10,8l-1 1c0,2 1,2 2,2l3 0c1,0 2,0 2,-1l0 -2c0,-1 0,-3 3,-3 2,0 2,2 2,5 0,4 -2,5 -6,8 -3,3 -7,7 -8,12l0 0c0,1 0,2 2,2l15 1zm14 -23c0,-1 1,-3 2,-2 2,0 3,1 3,2l-1 6c0,2 -1,3 -3,3 -1,-1 -2,-2 -2,-3l1 -6zm11 3c1,-4 0,-10 -8,-11 -6,-1 -9,2 -10,8l-1 6c0,6 3,8 6,8 1,0 3,0 4,0 0,0 1,0 1,0 0,0 0,0 0,0l0 1c0,2 -1,5 -5,5 -3,-1 -1,-2 -5,-2 -1,0 -1,0 -1,1l0 3c-1,1 -1,2 6,3 10,1 12,-6 12,-9l1 -13zm-293 25c0,-3 1,-8 5,-12 1,-1 2,-1 2,-1l0 -5c0,0 0,-1 0,-1 -1,0 -3,1 -4,2 -3,2 -9,7 -10,17 -1,9 4,15 7,18 0,1 2,2 3,3 0,0 0,-1 0,-1l1 -5c0,-1 -1,-1 -1,-2 -4,-4 -4,-10 -3,-13zm17 -8c0,-3 2,-3 3,-3 2,0 2,2 2,3l-2 16c0,0 0,3 -2,3 -2,-1 -3,-1 -2,-4l1 -15zm-8 14c-1,6 3,10 8,10 5,1 9,-2 10,-9l2 -13c0,-7 -4,-11 -9,-11 -5,-1 -9,2 -10,9l-1 14zm30 -13c0,-1 0,-2 2,-2 2,0 2,1 2,3l0 5c0,2 -1,3 -3,3 -1,0 -2,-1 -2,-3l1 -6zm11 3c0,-3 0,-10 -8,-11 -6,0 -10,3 -10,8l-1 6c-1,6 3,8 6,9 1,0 3,0 3,-1 1,0 1,0 2,0 0,0 0,0 0,0l0 1c0,2 -1,5 -5,5 -3,-1 -1,-1 -5,-2 -1,0 -1,1 -1,1l-1 3c0,1 0,3 7,3 10,2 11,-5 12,-9l1 -13zm13 17c0,1 -1,2 -3,2 -1,0 -2,-1 -2,-3l1 -5c0,-2 1,-3 2,-3 2,0 3,1 2,3l0 6zm-12 -3c0,3 0,10 8,11 6,0 10,-3 11,-8l0 -6c1,-6 -3,-8 -6,-9 -1,0 -2,0 -3,1 -1,0 -1,0 -1,0 0,0 0,0 0,0l0 -1c0,-2 0,-5 4,-5 3,1 2,1 5,2 1,0 1,-1 1,-1l1 -3c0,-1 0,-3 -7,-3 -10,-1 -11,5 -11,9l-2 13zm21 17c0,0 0,1 0,1 1,0 3,-1 4,-2 3,-2 9,-7 10,-17 1,-9 -3,-15 -6,-18 -1,-1 -3,-2 -4,-3 0,0 0,1 0,1l-1 5c0,1 1,1 2,2 3,4 3,10 3,13 -1,3 -2,8 -6,12 -1,1 -1,1 -2,1l0 5zm40 -9c0,1 -1,3 -3,2 -1,0 -2,-1 -2,-3l1 -5c0,-2 1,-3 2,-3 2,0 3,1 2,3l0 6zm-12 -3c0,4 0,10 8,11 6,1 10,-2 11,-8l0 -6c1,-6 -3,-8 -6,-8 -1,-1 -2,-1 -3,0 -1,0 -1,0 -1,0 -1,0 -1,0 -1,0l1 -1c0,-2 0,-5 4,-5 3,1 2,1 5,2 1,0 1,0 1,-1l1 -3c0,-1 0,-3 -7,-3 -10,-1 -11,6 -11,9l-2 13zm25 -21c-2,0 -2,1 -2,2l0 2c0,2 0,2 1,2l8 1c0,0 0,0 0,0 0,0 0,1 -2,5 -5,10 -7,16 -7,19l0 0c0,1 0,2 2,2l3 1c2,0 2,-1 2,-2 1,-5 4,-15 8,-21 2,-4 3,-4 3,-5l0 -2c0,-1 0,-2 -1,-2l-15 -2zm21 34c0,1 -1,1 1,2l4 0c1,0 1,0 2,-1l3 -30c0,-1 0,-1 -2,-2l-2 0c-2,0 -1,1 -3,2 -1,1 -3,1 -4,1l-2 0c-1,0 -1,1 -1,1l0 2c0,1 -1,2 1,2l4 1c1,0 1,0 1,0l-2 22zm22 -7c0,0 1,0 1,-2l0 -2c0,-1 1,-2 -1,-2l-9 -1c0,0 -1,0 -1,1l-1 3c0,1 0,2 2,2l9 1zm13 -12c0,-3 1,-3 2,-3 3,0 2,2 2,3l-1 16c0,1 -1,3 -3,3 -1,0 -2,-1 -2,-4l2 -15zm-9 14c0,6 3,10 8,11 5,0 10,-3 11,-9l1 -14c1,-7 -3,-10 -8,-11 -5,0 -10,2 -10,9l-2 14zm25 -21c-2,0 -2,1 -2,1l0 3c0,1 1,2 1,2l8 0c1,0 1,1 1,1 0,0 0,0 -3,4 -5,11 -6,17 -7,20l0 0c0,1 0,2 2,2l3 0c2,0 2,0 2,-1 1,-5 4,-15 8,-21 2,-4 3,-4 3,-5l0 -3c0,-1 0,-1 -1,-2l-15 -1zm27 25c1,0 1,0 2,-2l0 -3c0,0 0,-1 -1,-1l-9 -1c-1,0 -2,0 -2,1l0 3c0,1 0,1 1,2l9 1zm9 10c0,1 0,2 2,2l3 0c1,0 2,0 2,-1l3 -30c0,0 0,-1 -1,-1l-3 -1c-1,0 -1,1 -2,2 -1,1 -3,1 -5,1l-1 0c-1,0 -1,1 -1,2l-1 2c0,1 0,1 2,1l4 1c0,0 1,0 1,1l-3 21zm20 -21c0,-2 2,-3 3,-2 2,0 2,2 2,3l-2 15c0,1 0,4 -3,3 -1,0 -2,-1 -2,-3l2 -16zm-9 14c0,7 4,11 9,11 5,1 9,-2 10,-9l1 -13c1,-7 -3,-11 -8,-11 -5,-1 -9,2 -10,9l-2 13zm24 6c-1,-1 -1,-1 -2,1l0 4c0,0 0,1 1,1l1 0c0,0 0,1 0,1l0 0c0,1 0,2 -1,2 -1,0 -1,0 -2,0l0 2c0,0 0,1 1,1l1 0c2,0 5,-2 6,-5l0 -6c0,0 0,-1 -1,-1l-4 0zm-272 11c0,-3 1,-8 5,-12 2,-1 2,-1 2,-2l1 -5c0,0 0,0 -1,0 -1,0 -3,1 -3,1 -4,2 -10,7 -11,17 -1,10 4,16 7,19 0,0 2,2 3,2 0,0 1,0 1,-1l0 -4c0,-1 0,-1 -1,-3 -3,-4 -4,-9 -3,-12zm17 -9c1,-3 2,-3 3,-3 2,0 2,3 2,4l-2 15c0,1 0,3 -2,3 -1,0 -2,-1 -2,-3l1 -16zm-8 14c-1,7 3,10 8,11 5,0 10,-3 10,-9l2 -14c1,-6 -3,-10 -8,-11 -5,0 -10,3 -11,9l-1 14zm30 -12c0,-2 1,-3 2,-3 2,0 3,2 3,3l-1 6c0,2 -1,3 -3,2 -1,0 -2,-1 -2,-3l1 -5zm11 3c1,-4 1,-10 -8,-11 -6,-1 -9,2 -10,7l-1 7c0,6 3,8 7,8 0,0 2,0 3,0 0,-1 1,-1 1,-1 0,0 0,0 0,1l0 1c0,1 -1,5 -4,4 -4,0 -2,-1 -6,-1 -1,0 -1,0 -1,0l0 4c0,1 -1,2 6,3 10,1 12,-6 12,-10l1 -12zm10 -1c0,-2 1,-3 3,-3 1,1 2,2 2,3l-1 6c0,2 -1,3 -2,3 -2,-1 -3,-2 -3,-3l1 -6zm12 3c0,-4 0,-10 -8,-11 -6,-1 -10,2 -11,7l0 7c-1,6 3,8 6,8 1,0 2,0 3,0 1,0 1,-1 1,-1 0,1 0,1 0,1l0 1c0,2 0,5 -4,5 -4,-1 -2,-2 -6,-2 -1,0 -1,0 -1,0l0 4c0,1 -1,2 7,3 10,1 11,-6 11,-9l2 -13zm0 28c0,1 0,1 1,1 0,0 3,-1 3,-1 4,-3 9,-8 10,-17 1,-10 -3,-16 -6,-19 -1,0 -3,-2 -3,-2 -1,0 -1,0 -1,1l0 4c0,1 0,1 1,2 3,5 3,10 3,13 0,3 -2,8 -6,12 -1,1 -1,1 -1,2l-1 4zm30 -13c-1,0 -1,0 -1,1l-1 2c0,6 3,9 8,9 7,1 10,-2 11,-9 1,-8 -3,-5 -3,-8l0 0c0,-1 4,-1 4,-7 1,-5 -2,-8 -8,-9 -4,0 -8,1 -9,6l0 1c0,1 1,1 1,1l3 1c2,0 2,-1 2,-1l0 0c0,-2 1,-3 2,-2 2,0 3,1 2,3 0,4 -2,4 -3,4l-2 0c-1,0 -2,0 -2,1l0 2c0,2 1,2 2,2l1 0c2,0 4,1 3,6 0,2 -1,4 -3,4 -1,0 -3,-1 -2,-3l0 -2c0,0 0,-1 -2,-1l-3 -1zm31 7c0,1 -1,2 -2,2 -2,0 -3,-1 -2,-3l0 -6c0,-1 1,-2 3,-2 1,0 2,1 2,3l-1 6zm-11 -3c-1,3 0,10 8,11 6,0 10,-3 10,-8l1 -6c0,-6 -3,-8 -6,-9 -1,0 -3,0 -4,1 0,0 0,0 -1,0 0,0 0,0 0,0l0 -2c0,-1 1,-4 5,-4 3,0 1,1 5,2 1,0 1,-1 1,-1l0 -4c0,-1 0,-2 -6,-3 -10,-1 -11,6 -12,10l-1 13zm32 5c0,1 0,2 -2,2 -2,0 -2,-1 -2,-3l0 -5c0,-2 1,-3 3,-3 1,0 2,1 2,3l-1 6zm-11 -3c0,4 0,10 8,11 6,0 10,-2 10,-8l1 -6c1,-6 -3,-8 -6,-9 -1,0 -2,0 -3,1 -1,0 -1,0 -2,0 0,0 0,0 0,0l0 -1c0,-2 1,-5 5,-5 3,1 1,1 5,2 1,0 1,-1 1,-1l0 -3c0,-1 0,-3 -6,-3 -10,-1 -11,5 -12,9l-1 13zm32 2c1,0 2,0 2,-1l0 -3c0,-1 0,-2 -1,-2l-9 -1c-1,0 -2,0 -2,2l0 2c0,1 0,2 1,2l9 1zm9 10c0,1 0,2 2,2l3 1c1,0 2,0 2,-2l3 -29c0,-1 1,-2 -1,-2l-3 0c-1,-1 -1,0 -2,1 -1,1 -3,2 -5,2l-1 -1c-1,0 -1,1 -1,2l-1 2c0,1 0,2 2,2l4 0c1,0 1,0 1,1l-3 21zm20 -21c0,-1 1,-3 2,-2 2,0 3,1 2,3l0 5c0,2 -1,3 -3,3 -1,0 -2,-1 -2,-3l1 -6zm11 3c1,-4 0,-10 -8,-11 -6,-1 -10,2 -10,8l-1 6c0,6 3,8 6,8 1,1 3,1 4,0 0,0 0,0 1,0 0,0 0,0 0,0l0 1c0,2 -1,5 -5,5 -3,-1 -1,-2 -5,-2 -1,0 -1,0 -1,1l0 3c-1,1 -1,2 6,3 10,1 11,-5 12,-9l1 -13zm13 13c0,0 1,0 1,-1l0 -3c0,0 0,-1 -1,-1l-9 -1c-1,0 -1,0 -1,1l-1 3c0,1 0,1 2,1l9 1zm13 -11c0,-3 1,-3 2,-3 3,0 2,2 2,3l-1 16c0,0 -1,3 -3,2 -1,0 -2,-1 -2,-3l2 -15zm-9 13c0,7 3,11 8,11 5,1 10,-2 11,-9l1 -13c1,-7 -3,-11 -8,-11 -5,-1 -10,2 -10,9l-2 13zm30 -11c1,-3 2,-3 3,-3 2,0 2,2 2,3l-2 16c0,1 0,3 -2,3 -1,0 -3,-1 -2,-4l1 -15zm-8 14c-1,6 3,10 8,11 5,0 10,-3 10,-9l2 -14c0,-7 -3,-10 -8,-11 -5,0 -10,2 -11,9l-1 14z"/>
   </g>
  </g>
 </g>
</svg>
