<?xml version="1.0" encoding="UTF-8"?>
<!DOCTYPE svg PUBLIC "-//W3C//DTD SVG 1.1//EN" "http://www.w3.org/Graphics/SVG/1.1/DTD/svg11.dtd">
<!-- Creator: CorelDRAW X7 -->
<svg xmlns="http://www.w3.org/2000/svg" xml:space="preserve" width="10.2876mm" height="8.2731mm" version="1.1" style="shape-rendering:geometricPrecision; text-rendering:geometricPrecision; image-rendering:optimizeQuality; fill-rule:evenodd; clip-rule:evenodd"
viewBox="0 0 162 130"
 xmlns:xlink="http://www.w3.org/1999/xlink">
 <defs>
  <style type="text/css">
   <![CDATA[
    .str0 {stroke:#FEFEFE;stroke-width:4.70153;stroke-linecap:round;stroke-linejoin:round}
    .fil0 {fill:none;fill-rule:nonzero}
    .fil1 {fill:#393185;fill-rule:nonzero}
   ]]>
  </style>
 </defs>
 <g id="Слой_x0020_1">
  <metadata id="CorelCorpID_0Corel-Layer"/>
  <g id="_866004192">
   <g>
    <path class="fil0 str0" d="M20 2c0,0 -1,0 -1,1l0 2c0,0 0,0 1,0l2 1c1,0 1,0 1,0l-2 11c0,1 0,1 1,1l2 0c1,1 1,0 1,0l1 -11c0,-1 0,-1 0,-1l3 1c1,0 1,-1 1,-1l0 -2c0,0 0,0 0,0l-10 -2zm14 3c0,0 0,-1 0,-1l-2 0c-1,0 -1,0 -1,1l-2 13c0,1 1,1 1,1l7 1c0,0 0,0 0,0l0 2c0,1 0,1 1,1l1 0c1,0 1,0 1,0l1 -5c0,0 -1,0 -1,0l-1 -1c0,0 0,0 0,0l2 -11c0,-1 0,-1 -1,-1l-2 0c-1,0 -1,0 -1,0l-1 12c0,0 0,0 0,0l-3 0c0,0 0,0 0,-1l1 -11zm18 10c0,0 0,0 0,0 0,0 0,0 0,1l2 3c0,1 0,1 1,1l1 0c1,0 1,0 1,-1l-2 -3c0,0 0,0 0,0 0,0 0,-1 0,-1l2 -3c1,0 1,0 1,0 0,0 0,0 -1,0l-1 -1c-1,0 -1,1 -1,1l-3 3zm-4 -1c0,0 0,1 0,1 0,0 0,0 0,0l1 4c0,0 0,0 1,0l1 0c1,1 1,0 1,0l-2 -4c0,0 0,0 0,0 0,0 0,0 1,0l2 -3c0,0 0,0 0,-1 0,0 0,0 0,0l-2 0c-1,0 -1,0 -1,0l-2 3zm18 6c0,0 0,1 -1,1l-2 -1c0,0 0,0 0,0 0,0 0,0 0,0 1,-4 1,-2 2,-8l0 -1c0,0 0,0 0,0l1 0c1,0 1,0 1,0l-1 9zm-3 -12c0,0 -1,0 -1,0l0 2c0,2 -1,5 -2,8 0,1 -1,2 -1,2l0 0c-1,0 -1,0 -1,1l-1 4c0,0 0,0 1,1l2 0c0,0 0,0 0,-1l1 -2c0,0 0,0 0,0l5 1c1,0 1,0 1,0l0 2c0,0 -1,1 0,1l2 0c0,0 1,0 1,-1l0 -4c0,-1 0,-1 0,-1l-1 0c0,0 0,0 0,0l1 -12c0,0 0,0 0,-1l-7 0zm12 8c0,-1 1,-1 1,-1 1,0 2,0 1,1l0 5c0,1 -1,2 -2,1 0,0 -1,0 -1,-1l1 -5zm-4 4c0,2 0,4 4,5 4,0 5,-2 5,-4l0 -4c0,-1 0,-4 -3,-5 -4,0 -5,3 -5,4l-1 4zm14 -3c0,-1 1,-1 1,-1 1,0 1,1 1,2l0 4c-1,2 -1,2 -2,2 0,0 -1,-1 -1,-2l1 -5zm4 -6c-1,0 0,0 -1,0 0,0 0,0 -1,0 -4,1 -5,4 -5,6l-1 4c0,2 0,5 4,5 4,1 4,-2 5,-4l0 -3c0,-1 1,-5 -3,-5 -1,0 -1,0 -2,0 0,0 0,0 0,0 0,-1 2,-1 3,-1 1,0 3,0 3,-2 0,0 0,0 0,0l-2 0zm6 8c0,-1 0,-2 1,-2 1,1 1,2 1,2l-1 4c0,1 0,2 -1,2 -1,0 -1,-1 -1,-2l1 -4zm-4 10c-1,1 -1,1 0,1l2 0c0,0 0,0 0,0l1 -3c0,0 0,0 0,0 0,0 0,0 2,1 3,0 3,-3 3,-4l1 -5c0,-1 0,-4 -2,-4 -2,0 -2,1 -3,0 0,0 0,0 0,0l0 0c0,0 0,0 0,0l-2 0c0,0 -1,-1 -1,0l-1 14zm14 -9c0,-1 0,-2 1,-2 1,1 1,1 1,2l-1 5c0,1 0,1 -1,1 0,0 -1,0 -1,-1l1 -5zm-4 4c0,1 0,4 4,5 4,0 4,-3 5,-4l0 -4c0,-2 0,-5 -4,-5 -3,0 -4,2 -4,4l-1 4zm14 -3c0,-1 0,-1 1,-1 0,0 1,0 1,1l-1 5c0,1 -1,1 -1,1 -1,0 -1,0 -1,-1l1 -5zm3 -7c0,0 0,0 0,1 0,0 0,0 -1,0 -5,0 -5,3 -5,6l-1 4c0,2 0,4 4,5 3,0 4,-2 4,-4l1 -4c0,0 0,-4 -3,-5 -2,0 -1,1 -2,0 0,0 0,0 0,0 0,0 2,0 2,0 2,0 4,0 4,-2 0,0 0,0 -1,0l-2 -1zm4 4c-1,0 -1,0 -1,1l1 11c0,0 0,1 0,1 -1,0 -1,0 -1,0 0,0 0,0 -1,0 0,0 0,0 0,0l0 2c0,0 0,1 2,1 3,0 4,-2 4,-3l4 -11c0,-1 0,-1 0,-1l-2 0c-1,0 -1,0 -1,0l-2 5c0,1 0,1 0,1 0,0 0,0 0,-1l-1 -5c0,0 0,-1 0,-1l-2 0zm13 5c0,-1 1,-1 1,-1l1 1c1,0 1,-1 1,-1l0 -1c0,-1 0,-1 0,-1l-7 -1c0,0 -1,0 -1,1l0 1c0,1 0,1 1,1l1 0c0,0 0,0 0,0l-1 9c0,1 1,1 1,1l2 0c0,0 0,0 0,-1l1 -8zm8 4c1,0 1,0 1,-1 0,0 0,0 0,0l-2 -4c0,0 0,0 -1,0l-1 0c-1,0 -1,0 -1,0l2 4c0,0 0,0 0,0 0,0 0,0 0,0l-3 3c0,1 0,1 0,1 0,0 0,0 1,0l1 0c1,0 1,0 1,0l2 -3zm5 0c0,0 0,0 0,0 0,0 0,0 0,0l-1 -4c0,0 0,0 -1,-1l-2 0c0,0 0,1 0,1l2 3c0,1 0,1 0,1 0,0 0,0 -1,0l-2 3c0,0 0,0 0,0 0,0 0,1 0,1l2 0c1,0 1,0 1,0l2 -4zm3 4c0,0 -1,0 -1,0l0 2c0,1 0,1 0,1l1 0c0,0 0,0 0,0l0 0c0,1 0,1 -1,1 0,0 0,0 0,0l0 1c0,0 0,1 0,1l0 0c1,0 3,-1 3,-3l0 -2c0,-1 0,-1 0,-1l-2 0zm-110 7c-1,0 -1,0 -1,0 0,0 1,0 2,-2 0,-1 0,-1 1,-1 0,0 0,0 0,0l0 0 -1 3c0,0 0,0 0,0l-1 0zm3 7c0,0 1,-1 1,-1l0 -3c0,0 0,0 0,0l0 0c1,0 1,0 1,0l0 -1c0,-1 0,-1 0,-1l-1 0c0,0 0,0 0,0l1 -9c0,0 0,-1 0,-1l-2 0c0,0 0,0 -1,1l-5 7c-1,1 -1,1 -1,1l0 1c0,1 0,1 1,1l4 1c0,0 0,0 0,0l0 3c0,0 -1,0 0,1l2 0zm8 -5c1,0 1,1 1,0l0 -1c0,-1 0,-1 0,-1l-5 -1c0,0 0,0 0,1l-1 1c0,1 0,1 1,1l4 0zm4 6c1,0 1,0 1,0l3 -5c0,0 0,0 0,0 0,0 0,0 0,0l0 5c-1,1 0,1 0,1l2 0c0,0 0,0 0,-1l2 -11c0,0 0,0 -1,0l-2 -1c0,0 0,0 0,1l-3 5c0,0 0,0 0,0 0,0 0,0 0,0l0 -5c0,-1 0,-1 0,-1l-2 0c0,0 0,0 -1,0l-1 11c0,1 0,1 1,1l1 0zm5 -12c1,0 2,-1 2,-2l0 0c0,0 0,0 0,0l-2 0c0,0 0,0 0,0l0 0c0,0 0,0 -1,0l-1 0c0,0 0,0 0,0l0 -1c0,0 0,0 0,0l-2 0c0,0 0,0 0,0l0 1c0,0 0,1 1,1l3 1zm12 6c0,0 0,-1 2,-1 1,0 1,0 2,0 0,0 0,0 0,0l0 -2c0,0 0,-1 -2,-1 -4,-1 -5,2 -5,4l0 4c-1,1 -1,4 4,5 2,0 2,-1 2,-1l0 -2c0,0 0,0 0,0 0,0 0,0 -1,0 0,0 -1,0 -1,0 -2,0 -1,-2 -1,-2l0 -4zm9 2c0,0 -1,-1 -1,-1l0 0c1,-1 1,-2 2,-2 1,1 1,2 1,2l0 1c0,0 0,0 -1,0l-1 0zm4 2c0,1 0,1 0,0l1 -2c0,-4 -3,-5 -4,-5 -4,0 -4,2 -5,4l0 4c0,4 3,4 4,5 1,0 2,0 3,0 1,-1 1,-1 1,-1l0 -2c0,0 0,0 -1,0 0,0 -1,0 -2,0 -1,0 -2,0 -2,-2l0 -1c0,0 0,0 0,0l5 0zm4 6c0,0 0,0 0,0l1 -5c0,0 0,0 0,0l1 0c1,0 1,1 1,2l-1 3c0,1 1,1 1,1l2 0c0,0 0,0 0,-1l1 -3c0,-2 -1,-2 -1,-3 0,0 0,0 0,0 0,0 0,-1 1,-1l0 -2c0,0 0,0 0,0l0 0c0,0 1,0 1,-1l0 -1c0,0 0,0 -1,0l-1 0c-2,-1 -2,1 -2,1l0 2c0,1 -1,1 -1,1l0 0c-1,0 -1,0 -1,0l1 -4c0,-1 0,-1 -1,-1l-1 0c-1,0 -1,0 -1,0l-2 11c0,1 0,1 1,1l2 0zm13 -8c0,0 0,0 0,0l2 0c0,1 1,0 1,0l0 -1c0,-1 -1,-1 -1,-1l-7 -1c0,0 0,0 0,1l0 1c-1,1 0,1 0,1l2 0c0,0 0,0 0,0l-1 9c0,0 0,1 0,1l2 0c0,0 1,0 1,-1l1 -9zm6 2c0,-1 1,-1 2,-1 0,0 1,0 1,1l-1 5c0,1 -1,2 -1,1 -1,0 -2,0 -1,-1l0 -5zm-3 4c-1,2 0,4 3,5 4,0 5,-2 5,-4l0 -4c1,-1 1,-4 -3,-5 -4,0 -5,3 -5,4l0 4zm13 -2c0,-1 0,-2 1,-2 1,0 1,1 1,2l0 4c0,1 0,2 -2,1 -1,0 0,-1 0,-1l0 -4zm-4 10c0,0 0,1 0,1l2 0c0,0 1,0 1,-1l0 -2c0,-1 0,-1 0,-1 1,0 1,1 2,1 3,1 4,-2 4,-3l0 -5c0,-1 1,-4 -2,-4 -2,0 -2,0 -2,0 0,0 0,0 0,0l0 0c0,0 0,0 -1,0l-2 -1c0,0 0,0 0,1l-2 14zm11 -4c0,0 0,0 0,0l-1 2c0,0 0,1 1,1l0 0c0,0 0,0 0,0l0 0c0,1 0,1 0,1 -1,0 -1,0 -1,0l0 1c0,0 0,0 0,0l1 0c1,1 2,0 2,-2l1 -2c0,-1 0,-1 -1,-1l-2 0zm-17 22c0,0 0,-1 -1,-1l-2 0c0,0 0,0 -1,0l0 2c0,1 0,1 1,1l2 0c0,0 0,0 0,0l1 -2zm-106 -16c0,0 0,0 -1,1l0 1c0,2 2,4 4,4 3,0 5,-1 5,-4 1,-4 -1,-3 -1,-4l0 0c0,-1 1,-1 2,-3 0,-3 -1,-4 -4,-5 -2,0 -4,1 -4,3l0 1c0,0 0,0 0,0l2 0c0,1 1,0 1,0l0 0c0,-1 0,-1 1,-1 0,0 1,1 1,2 -1,1 -1,1 -2,1l-1 0c0,0 -1,0 -1,1l0 1c0,1 0,1 1,1l0 0c1,0 2,0 2,3 0,1 0,2 -2,1 0,0 -1,0 -1,-1l0 -1c0,0 0,0 0,-1l-2 0zm15 2c0,0 0,0 0,-1l1 -1c0,0 0,-1 -1,-1l-4 0c-1,0 -1,0 -1,0l0 2c0,0 0,0 0,0l5 1zm4 6c0,0 0,0 1,-1l2 -4c0,-1 0,-1 0,-1 0,0 1,0 1,1l-1 5c0,0 0,0 0,0l2 0c0,1 1,1 1,0l1 -11c0,-1 0,-1 0,-1l-2 0c0,0 -1,0 -1,1l-3 4c0,0 0,1 0,1 0,0 0,-1 0,-1l1 -5c0,0 -1,0 -1,0l-1 -1c-1,0 -1,0 -1,1l-1 11c-1,0 -1,1 0,1l2 0zm5 -13c1,0 1,0 1,-1l0 0c0,-1 0,-1 0,-1l-1 0c0,0 0,0 0,0l0 0c-1,1 -1,1 -1,1l-1 0c0,0 -1,0 -1,-1l0 0c0,0 0,0 0,0l-1 0c0,0 0,0 0,0l-1 0c0,1 1,2 2,2l3 0zm12 6c0,0 0,-1 1,-1 1,0 1,1 1,2l-1 4c0,1 0,2 -1,1 -1,0 -1,-1 -1,-1l1 -5zm-5 11c0,0 0,1 1,1l2 0c0,0 0,0 0,-1l1 -3c0,0 0,0 0,0 0,0 0,1 2,1 3,1 3,-2 3,-3l1 -5c0,-1 0,-4 -3,-4 -1,-1 -2,0 -2,0 0,0 0,0 0,0l0 0c0,0 0,0 0,-1l-2 0c-1,0 -1,0 -1,1l-2 14zm17 -11c0,0 0,1 0,1l0 2c0,0 0,0 0,0l-1 0c-1,0 -2,-1 -1,-2 0,0 0,-1 1,-1l1 0zm-1 -2c-3,0 -4,1 -5,3 0,2 2,2 2,3 0,0 0,0 0,0l-3 5c0,0 0,1 0,1l2 0c1,0 1,0 1,-1l3 -4c0,0 0,0 0,0l0 0c0,0 1,0 1,0l-1 5c0,0 0,0 1,0l1 1c1,0 1,0 1,-1l1 -11c0,-1 0,-1 0,-1l-4 0zm11 4c0,0 0,0 0,0l-1 7c0,0 0,0 0,0l-1 0c-1,0 -1,0 -1,0 0,-1 1,0 2,-6l0 -1c0,0 0,0 0,0l1 0zm-3 -3c0,0 0,0 0,0l0 1c-1,4 -2,7 -2,7 0,1 -1,2 -1,1l0 0c-1,0 -1,1 -1,1l0 4c0,0 0,0 0,0l2 1c0,0 0,0 1,-1l0 -2c0,0 0,0 0,0l4 1c0,0 0,0 0,0l0 2c0,0 0,0 1,0l1 1c1,0 1,0 1,-1l0 -4c1,0 0,0 0,0l0 0c-1,-1 -1,-1 -1,-1l2 -9c0,0 -1,0 -1,0l-6 -1zm9 10c-1,0 -1,0 -1,1l0 2c0,0 0,0 0,0l1 0c0,0 0,0 0,1l0 0c0,0 -1,0 -1,0 0,1 -1,0 -1,1l0 0c0,1 0,1 1,1l0 0c1,0 3,-1 3,-3l0 -2c0,0 0,-1 -1,-1l-1 0zm12 -1c0,0 0,0 0,0 1,0 1,0 1,0l0 3c0,0 1,0 1,0l0 0c1,0 1,0 1,0l1 -2c0,0 0,0 0,0 0,0 0,0 0,0l0 5c0,0 0,0 0,0l2 1c1,0 1,-1 1,-1l1 -11c0,-1 0,-1 0,-1l-2 0c-1,0 -1,0 -1,0l-2 5c0,0 0,0 0,0 0,0 -1,0 -1,0l-1 -5c0,0 0,0 0,0l-2 -1c0,0 -1,0 -1,1l-1 11c0,0 0,0 0,1l2 0c0,0 1,0 1,-1l0 -5zm14 4c0,1 -1,1 -1,1 -1,0 -1,-1 -1,-2 0,-1 0,-1 1,-2l1 0c0,0 0,0 0,0l0 3zm3 -5c0,-2 0,-4 -3,-4 -3,0 -4,0 -4,1l0 1c0,0 0,0 0,1 1,0 1,-1 2,-1 0,0 0,0 1,0 1,0 1,1 1,1 0,0 0,1 0,1l-1 0c-1,0 -4,1 -4,4 -1,3 0,4 2,4 1,0 1,0 2,0 0,0 0,0 0,0 0,0 0,0 0,0 0,0 0,0 1,1l2 0c0,0 0,0 0,-1l0 0 1 -8zm5 0c0,0 0,0 0,0l3 0c1,0 1,0 1,0l0 -2c0,0 0,0 0,0l-6 -1c0,0 -1,0 -1,0l-1 11c0,1 0,1 1,1l1 0c1,0 1,0 1,0l1 -9zm30 4c1,0 1,0 0,1l0 1 0 1c0,1 0,1 0,1 -1,0 -1,-1 -1,-1l0 -1c0,-1 1,-2 1,-2zm0 -2c-2,0 -2,0 -3,4 0,3 1,4 2,4 2,0 3,-1 3,-4 1,-3 0,-4 -2,-4zm-3 10c0,1 0,1 0,1l4 0c0,0 0,0 0,0l1 -1c0,-1 -1,-1 -1,-1l-3 0c-1,0 -1,0 -1,0l0 1zm-1 -10c1,-1 1,-2 3,-2 1,0 1,0 2,0 0,0 0,0 0,0l0 -1c0,-1 0,-1 -3,-2 -1,0 -4,0 -4,4l-1 4c0,0 0,0 0,0 0,0 0,0 0,0l-2 -8c-1,-1 -1,-1 -1,-1l-1 0c-1,0 -1,0 -1,1l-2 11c0,1 0,1 0,1l-1 0c0,0 -1,0 -1,1l0 1c0,0 0,0 2,1 3,0 3,-2 3,-3l1 -5c0,0 0,0 0,0 0,0 0,0 0,0l2 7c0,1 0,1 1,1l1 1c1,0 1,-1 1,-1l1 -10zm20 13c1,0 1,0 1,0l0 -2c0,0 0,0 0,0l-4 -1c-1,0 -1,0 -1,0 2,-4 6,-3 6,-8 1,-2 -1,-4 -3,-5 -2,0 -5,0 -5,4l0 0c0,1 0,1 0,1l2 1c0,0 1,0 1,-1l0 -1c0,0 0,-1 1,-1 1,0 1,1 1,2 0,2 -1,2 -3,4 -1,1 -3,3 -4,5l0 0c0,1 0,1 1,1l7 1zm8 -3c0,1 0,2 -1,2 -1,-1 -1,-1 -1,-2l0 -3c1,0 1,-1 2,-1 0,0 1,1 1,2l-1 2zm-5 -1c0,2 0,5 4,5 2,1 4,-1 5,-3l0 -3c0,-3 -1,-4 -3,-4 0,0 -1,0 -1,0 -1,0 -1,0 -1,0 0,0 0,0 0,0l0 -1c0,-1 0,-2 2,-2 2,0 1,1 3,1 0,0 0,0 0,0l0 -2c0,0 0,-1 -3,-1 -4,-1 -5,2 -5,4l-1 6z"/>
    <path id="1" class="fil1" d="M20 2c0,0 -1,0 -1,1l0 2c0,0 0,0 1,0l2 1c1,0 1,0 1,0l-2 11c0,1 0,1 1,1l2 0c1,1 1,0 1,0l1 -11c0,-1 0,-1 0,-1l3 1c1,0 1,-1 1,-1l0 -2c0,0 0,0 0,0l-10 -2zm14 3c0,0 0,-1 0,-1l-2 0c-1,0 -1,0 -1,1l-2 13c0,1 1,1 1,1l7 1c0,0 0,0 0,0l0 2c0,1 0,1 1,1l1 0c1,0 1,0 1,0l1 -5c0,0 -1,0 -1,0l-1 -1c0,0 0,0 0,0l2 -11c0,-1 0,-1 -1,-1l-2 0c-1,0 -1,0 -1,0l-1 12c0,0 0,0 0,0l-3 0c0,0 0,0 0,-1l1 -11zm18 10c0,0 0,0 0,0 0,0 0,0 0,1l2 3c0,1 0,1 1,1l1 0c1,0 1,0 1,-1l-2 -3c0,0 0,0 0,0 0,0 0,-1 0,-1l2 -3c1,0 1,0 1,0 0,0 0,0 -1,0l-1 -1c-1,0 -1,1 -1,1l-3 3zm-4 -1c0,0 0,1 0,1 0,0 0,0 0,0l1 4c0,0 0,0 1,0l1 0c1,1 1,0 1,0l-2 -4c0,0 0,0 0,0 0,0 0,0 1,0l2 -3c0,0 0,0 0,-1 0,0 0,0 0,0l-2 0c-1,0 -1,0 -1,0l-2 3zm18 6c0,0 0,1 -1,1l-2 -1c0,0 0,0 0,0 0,0 0,0 0,0 1,-4 1,-2 2,-8l0 -1c0,0 0,0 0,0l1 0c1,0 1,0 1,0l-1 9zm-3 -12c0,0 -1,0 -1,0l0 2c0,2 -1,5 -2,8 0,1 -1,2 -1,2l0 0c-1,0 -1,0 -1,1l-1 4c0,0 0,0 1,1l2 0c0,0 0,0 0,-1l1 -2c0,0 0,0 0,0l5 1c1,0 1,0 1,0l0 2c0,0 -1,1 0,1l2 0c0,0 1,0 1,-1l0 -4c0,-1 0,-1 0,-1l-1 0c0,0 0,0 0,0l1 -12c0,0 0,0 0,-1l-7 0zm12 8c0,-1 1,-1 1,-1 1,0 2,0 1,1l0 5c0,1 -1,2 -2,1 0,0 -1,0 -1,-1l1 -5zm-4 4c0,2 0,4 4,5 4,0 5,-2 5,-4l0 -4c0,-1 0,-4 -3,-5 -4,0 -5,3 -5,4l-1 4zm14 -3c0,-1 1,-1 1,-1 1,0 1,1 1,2l0 4c-1,2 -1,2 -2,2 0,0 -1,-1 -1,-2l1 -5zm4 -6c-1,0 0,0 -1,0 0,0 0,0 -1,0 -4,1 -5,4 -5,6l-1 4c0,2 0,5 4,5 4,1 4,-2 5,-4l0 -3c0,-1 1,-5 -3,-5 -1,0 -1,0 -2,0 0,0 0,0 0,0 0,-1 2,-1 3,-1 1,0 3,0 3,-2 0,0 0,0 0,0l-2 0zm6 8c0,-1 0,-2 1,-2 1,1 1,2 1,2l-1 4c0,1 0,2 -1,2 -1,0 -1,-1 -1,-2l1 -4zm-4 10c-1,1 -1,1 0,1l2 0c0,0 0,0 0,0l1 -3c0,0 0,0 0,0 0,0 0,0 2,1 3,0 3,-3 3,-4l1 -5c0,-1 0,-4 -2,-4 -2,0 -2,1 -3,0 0,0 0,0 0,0l0 0c0,0 0,0 0,0l-2 0c0,0 -1,-1 -1,0l-1 14zm14 -9c0,-1 0,-2 1,-2 1,1 1,1 1,2l-1 5c0,1 0,1 -1,1 0,0 -1,0 -1,-1l1 -5zm-4 4c0,1 0,4 4,5 4,0 4,-3 5,-4l0 -4c0,-2 0,-5 -4,-5 -3,0 -4,2 -4,4l-1 4zm14 -3c0,-1 0,-1 1,-1 0,0 1,0 1,1l-1 5c0,1 -1,1 -1,1 -1,0 -1,0 -1,-1l1 -5zm3 -7c0,0 0,0 0,1 0,0 0,0 -1,0 -5,0 -5,3 -5,6l-1 4c0,2 0,4 4,5 3,0 4,-2 4,-4l1 -4c0,0 0,-4 -3,-5 -2,0 -1,1 -2,0 0,0 0,0 0,0 0,0 2,0 2,0 2,0 4,0 4,-2 0,0 0,0 -1,0l-2 -1zm4 4c-1,0 -1,0 -1,1l1 11c0,0 0,1 0,1 -1,0 -1,0 -1,0 0,0 0,0 -1,0 0,0 0,0 0,0l0 2c0,0 0,1 2,1 3,0 4,-2 4,-3l4 -11c0,-1 0,-1 0,-1l-2 0c-1,0 -1,0 -1,0l-2 5c0,1 0,1 0,1 0,0 0,0 0,-1l-1 -5c0,0 0,-1 0,-1l-2 0zm13 5c0,-1 1,-1 1,-1l1 1c1,0 1,-1 1,-1l0 -1c0,-1 0,-1 0,-1l-7 -1c0,0 -1,0 -1,1l0 1c0,1 0,1 1,1l1 0c0,0 0,0 0,0l-1 9c0,1 1,1 1,1l2 0c0,0 0,0 0,-1l1 -8zm8 4c1,0 1,0 1,-1 0,0 0,0 0,0l-2 -4c0,0 0,0 -1,0l-1 0c-1,0 -1,0 -1,0l2 4c0,0 0,0 0,0 0,0 0,0 0,0l-3 3c0,1 0,1 0,1 0,0 0,0 1,0l1 0c1,0 1,0 1,0l2 -3zm5 0c0,0 0,0 0,0 0,0 0,0 0,0l-1 -4c0,0 0,0 -1,-1l-2 0c0,0 0,1 0,1l2 3c0,1 0,1 0,1 0,0 0,0 -1,0l-2 3c0,0 0,0 0,0 0,0 0,1 0,1l2 0c1,0 1,0 1,0l2 -4zm3 4c0,0 -1,0 -1,0l0 2c0,1 0,1 0,1l1 0c0,0 0,0 0,0l0 0c0,1 0,1 -1,1 0,0 0,0 0,0l0 1c0,0 0,1 0,1l0 0c1,0 3,-1 3,-3l0 -2c0,-1 0,-1 0,-1l-2 0zm-110 7c-1,0 -1,0 -1,0 0,0 1,0 2,-2 0,-1 0,-1 1,-1 0,0 0,0 0,0l0 0 -1 3c0,0 0,0 0,0l-1 0zm3 7c0,0 1,-1 1,-1l0 -3c0,0 0,0 0,0l0 0c1,0 1,0 1,0l0 -1c0,-1 0,-1 0,-1l-1 0c0,0 0,0 0,0l1 -9c0,0 0,-1 0,-1l-2 0c0,0 0,0 -1,1l-5 7c-1,1 -1,1 -1,1l0 1c0,1 0,1 1,1l4 1c0,0 0,0 0,0l0 3c0,0 -1,0 0,1l2 0zm8 -5c1,0 1,1 1,0l0 -1c0,-1 0,-1 0,-1l-5 -1c0,0 0,0 0,1l-1 1c0,1 0,1 1,1l4 0zm4 6c1,0 1,0 1,0l3 -5c0,0 0,0 0,0 0,0 0,0 0,0l0 5c-1,1 0,1 0,1l2 0c0,0 0,0 0,-1l2 -11c0,0 0,0 -1,0l-2 -1c0,0 0,0 0,1l-3 5c0,0 0,0 0,0 0,0 0,0 0,0l0 -5c0,-1 0,-1 0,-1l-2 0c0,0 0,0 -1,0l-1 11c0,1 0,1 1,1l1 0zm5 -12c1,0 2,-1 2,-2l0 0c0,0 0,0 0,0l-2 0c0,0 0,0 0,0l0 0c0,0 0,0 -1,0l-1 0c0,0 0,0 0,0l0 -1c0,0 0,0 0,0l-2 0c0,0 0,0 0,0l0 1c0,0 0,1 1,1l3 1zm12 6c0,0 0,-1 2,-1 1,0 1,0 2,0 0,0 0,0 0,0l0 -2c0,0 0,-1 -2,-1 -4,-1 -5,2 -5,4l0 4c-1,1 -1,4 4,5 2,0 2,-1 2,-1l0 -2c0,0 0,0 0,0 0,0 0,0 -1,0 0,0 -1,0 -1,0 -2,0 -1,-2 -1,-2l0 -4zm9 2c0,0 -1,-1 -1,-1l0 0c1,-1 1,-2 2,-2 1,1 1,2 1,2l0 1c0,0 0,0 -1,0l-1 0zm4 2c0,1 0,1 0,0l1 -2c0,-4 -3,-5 -4,-5 -4,0 -4,2 -5,4l0 4c0,4 3,4 4,5 1,0 2,0 3,0 1,-1 1,-1 1,-1l0 -2c0,0 0,0 -1,0 0,0 -1,0 -2,0 -1,0 -2,0 -2,-2l0 -1c0,0 0,0 0,0l5 0zm4 6c0,0 0,0 0,0l1 -5c0,0 0,0 0,0l1 0c1,0 1,1 1,2l-1 3c0,1 1,1 1,1l2 0c0,0 0,0 0,-1l1 -3c0,-2 -1,-2 -1,-3 0,0 0,0 0,0 0,0 0,-1 1,-1l0 -2c0,0 0,0 0,0l0 0c0,0 1,0 1,-1l0 -1c0,0 0,0 -1,0l-1 0c-2,-1 -2,1 -2,1l0 2c0,1 -1,1 -1,1l0 0c-1,0 -1,0 -1,0l1 -4c0,-1 0,-1 -1,-1l-1 0c-1,0 -1,0 -1,0l-2 11c0,1 0,1 1,1l2 0zm13 -8c0,0 0,0 0,0l2 0c0,1 1,0 1,0l0 -1c0,-1 -1,-1 -1,-1l-7 -1c0,0 0,0 0,1l0 1c-1,1 0,1 0,1l2 0c0,0 0,0 0,0l-1 9c0,0 0,1 0,1l2 0c0,0 1,0 1,-1l1 -9zm6 2c0,-1 1,-1 2,-1 0,0 1,0 1,1l-1 5c0,1 -1,2 -1,1 -1,0 -2,0 -1,-1l0 -5zm-3 4c-1,2 0,4 3,5 4,0 5,-2 5,-4l0 -4c1,-1 1,-4 -3,-5 -4,0 -5,3 -5,4l0 4zm13 -2c0,-1 0,-2 1,-2 1,0 1,1 1,2l0 4c0,1 0,2 -2,1 -1,0 0,-1 0,-1l0 -4zm-4 10c0,0 0,1 0,1l2 0c0,0 1,0 1,-1l0 -2c0,-1 0,-1 0,-1 1,0 1,1 2,1 3,1 4,-2 4,-3l0 -5c0,-1 1,-4 -2,-4 -2,0 -2,0 -2,0 0,0 0,0 0,0l0 0c0,0 0,0 -1,0l-2 -1c0,0 0,0 0,1l-2 14zm11 -4c0,0 0,0 0,0l-1 2c0,0 0,1 1,1l0 0c0,0 0,0 0,0l0 0c0,1 0,1 0,1 -1,0 -1,0 -1,0l0 1c0,0 0,0 0,0l1 0c1,1 2,0 2,-2l1 -2c0,-1 0,-1 -1,-1l-2 0zm-17 22c0,0 0,-1 -1,-1l-2 0c0,0 0,0 -1,0l0 2c0,1 0,1 1,1l2 0c0,0 0,0 0,0l1 -2zm-106 -16c0,0 0,0 -1,1l0 1c0,2 2,4 4,4 3,0 5,-1 5,-4 1,-4 -1,-3 -1,-4l0 0c0,-1 1,-1 2,-3 0,-3 -1,-4 -4,-5 -2,0 -4,1 -4,3l0 1c0,0 0,0 0,0l2 0c0,1 1,0 1,0l0 0c0,-1 0,-1 1,-1 0,0 1,1 1,2 -1,1 -1,1 -2,1l-1 0c0,0 -1,0 -1,1l0 1c0,1 0,1 1,1l0 0c1,0 2,0 2,3 0,1 0,2 -2,1 0,0 -1,0 -1,-1l0 -1c0,0 0,0 0,-1l-2 0zm15 2c0,0 0,0 0,-1l1 -1c0,0 0,-1 -1,-1l-4 0c-1,0 -1,0 -1,0l0 2c0,0 0,0 0,0l5 1zm4 6c0,0 0,0 1,-1l2 -4c0,-1 0,-1 0,-1 0,0 1,0 1,1l-1 5c0,0 0,0 0,0l2 0c0,1 1,1 1,0l1 -11c0,-1 0,-1 0,-1l-2 0c0,0 -1,0 -1,1l-3 4c0,0 0,1 0,1 0,0 0,-1 0,-1l1 -5c0,0 -1,0 -1,0l-1 -1c-1,0 -1,0 -1,1l-1 11c-1,0 -1,1 0,1l2 0zm5 -13c1,0 1,0 1,-1l0 0c0,-1 0,-1 0,-1l-1 0c0,0 0,0 0,0l0 0c-1,1 -1,1 -1,1l-1 0c0,0 -1,0 -1,-1l0 0c0,0 0,0 0,0l-1 0c0,0 0,0 0,0l-1 0c0,1 1,2 2,2l3 0zm12 6c0,0 0,-1 1,-1 1,0 1,1 1,2l-1 4c0,1 0,2 -1,1 -1,0 -1,-1 -1,-1l1 -5zm-5 11c0,0 0,1 1,1l2 0c0,0 0,0 0,-1l1 -3c0,0 0,0 0,0 0,0 0,1 2,1 3,1 3,-2 3,-3l1 -5c0,-1 0,-4 -3,-4 -1,-1 -2,0 -2,0 0,0 0,0 0,0l0 0c0,0 0,0 0,-1l-2 0c-1,0 -1,0 -1,1l-2 14zm17 -11c0,0 0,1 0,1l0 2c0,0 0,0 0,0l-1 0c-1,0 -2,-1 -1,-2 0,0 0,-1 1,-1l1 0zm-1 -2c-3,0 -4,1 -5,3 0,2 2,2 2,3 0,0 0,0 0,0l-3 5c0,0 0,1 0,1l2 0c1,0 1,0 1,-1l3 -4c0,0 0,0 0,0l0 0c0,0 1,0 1,0l-1 5c0,0 0,0 1,0l1 1c1,0 1,0 1,-1l1 -11c0,-1 0,-1 0,-1l-4 0zm11 4c0,0 0,0 0,0l-1 7c0,0 0,0 0,0l-1 0c-1,0 -1,0 -1,0 0,-1 1,0 2,-6l0 -1c0,0 0,0 0,0l1 0zm-3 -3c0,0 0,0 0,0l0 1c-1,4 -2,7 -2,7 0,1 -1,2 -1,1l0 0c-1,0 -1,1 -1,1l0 4c0,0 0,0 0,0l2 1c0,0 0,0 1,-1l0 -2c0,0 0,0 0,0l4 1c0,0 0,0 0,0l0 2c0,0 0,0 1,0l1 1c1,0 1,0 1,-1l0 -4c1,0 0,0 0,0l0 0c-1,-1 -1,-1 -1,-1l2 -9c0,0 -1,0 -1,0l-6 -1zm9 10c-1,0 -1,0 -1,1l0 2c0,0 0,0 0,0l1 0c0,0 0,0 0,1l0 0c0,0 -1,0 -1,0 0,1 -1,0 -1,1l0 0c0,1 0,1 1,1l0 0c1,0 3,-1 3,-3l0 -2c0,0 0,-1 -1,-1l-1 0zm12 -1c0,0 0,0 0,0 1,0 1,0 1,0l0 3c0,0 1,0 1,0l0 0c1,0 1,0 1,0l1 -2c0,0 0,0 0,0 0,0 0,0 0,0l0 5c0,0 0,0 0,0l2 1c1,0 1,-1 1,-1l1 -11c0,-1 0,-1 0,-1l-2 0c-1,0 -1,0 -1,0l-2 5c0,0 0,0 0,0 0,0 -1,0 -1,0l-1 -5c0,0 0,0 0,0l-2 -1c0,0 -1,0 -1,1l-1 11c0,0 0,0 0,1l2 0c0,0 1,0 1,-1l0 -5zm14 4c0,1 -1,1 -1,1 -1,0 -1,-1 -1,-2 0,-1 0,-1 1,-2l1 0c0,0 0,0 0,0l0 3zm3 -5c0,-2 0,-4 -3,-4 -3,0 -4,0 -4,1l0 1c0,0 0,0 0,1 1,0 1,-1 2,-1 0,0 0,0 1,0 1,0 1,1 1,1 0,0 0,1 0,1l-1 0c-1,0 -4,1 -4,4 -1,3 0,4 2,4 1,0 1,0 2,0 0,0 0,0 0,0 0,0 0,0 0,0 0,0 0,0 1,1l2 0c0,0 0,0 0,-1l0 0 1 -8zm5 0c0,0 0,0 0,0l3 0c1,0 1,0 1,0l0 -2c0,0 0,0 0,0l-6 -1c0,0 -1,0 -1,0l-1 11c0,1 0,1 1,1l1 0c1,0 1,0 1,0l1 -9zm30 4c1,0 1,0 0,1l0 1 0 1c0,1 0,1 0,1 -1,0 -1,-1 -1,-1l0 -1c0,-1 1,-2 1,-2zm0 -2c-2,0 -2,0 -3,4 0,3 1,4 2,4 2,0 3,-1 3,-4 1,-3 0,-4 -2,-4zm-3 10c0,1 0,1 0,1l4 0c0,0 0,0 0,0l1 -1c0,-1 -1,-1 -1,-1l-3 0c-1,0 -1,0 -1,0l0 1zm-1 -10c1,-1 1,-2 3,-2 1,0 1,0 2,0 0,0 0,0 0,0l0 -1c0,-1 0,-1 -3,-2 -1,0 -4,0 -4,4l-1 4c0,0 0,0 0,0 0,0 0,0 0,0l-2 -8c-1,-1 -1,-1 -1,-1l-1 0c-1,0 -1,0 -1,1l-2 11c0,1 0,1 0,1l-1 0c0,0 -1,0 -1,1l0 1c0,0 0,0 2,1 3,0 3,-2 3,-3l1 -5c0,0 0,0 0,0 0,0 0,0 0,0l2 7c0,1 0,1 1,1l1 1c1,0 1,-1 1,-1l1 -10zm20 13c1,0 1,0 1,0l0 -2c0,0 0,0 0,0l-4 -1c-1,0 -1,0 -1,0 2,-4 6,-3 6,-8 1,-2 -1,-4 -3,-5 -2,0 -5,0 -5,4l0 0c0,1 0,1 0,1l2 1c0,0 1,0 1,-1l0 -1c0,0 0,-1 1,-1 1,0 1,1 1,2 0,2 -1,2 -3,4 -1,1 -3,3 -4,5l0 0c0,1 0,1 1,1l7 1zm8 -3c0,1 0,2 -1,2 -1,-1 -1,-1 -1,-2l0 -3c1,0 1,-1 2,-1 0,0 1,1 1,2l-1 2zm-5 -1c0,2 0,5 4,5 2,1 4,-1 5,-3l0 -3c0,-3 -1,-4 -3,-4 0,0 -1,0 -1,0 -1,0 -1,0 -1,0 0,0 0,0 0,0l0 -1c0,-1 0,-2 2,-2 2,0 1,1 3,1 0,0 0,0 0,0l0 -2c0,0 0,-1 -3,-1 -4,-1 -5,2 -5,4l-1 6z"/>
   </g>
   <g>
    <path class="fil0 str0" d="M12 82c0,-2 1,-4 3,-6 0,0 1,0 1,0l0 -3c0,0 0,0 0,0 -1,0 -2,0 -2,1 -2,1 -4,3 -5,8 0,4 2,7 3,8 0,1 1,1 2,1 0,0 0,0 0,0l0 -2c0,0 0,0 0,-1 -2,-2 -2,-5 -2,-6zm9 -4c0,-1 0,-1 1,-1 1,0 1,1 1,1l-1 8c0,0 0,1 -1,1 -1,0 -1,-1 -1,-2l1 -7zm-5 6c0,4 2,5 4,6 3,0 5,-1 5,-4l1 -7c0,-3 -1,-5 -4,-5 -2,0 -4,1 -5,4l-1 6zm15 -5c0,-1 0,-1 1,-1 1,0 1,0 1,1l0 3c-1,1 -1,1 -2,1 0,0 -1,-1 -1,-1l1 -3zm5 1c0,-1 0,-4 -4,-5 -2,0 -4,1 -5,4l0 3c0,2 1,3 3,4 0,0 1,0 1,0 1,-1 1,-1 1,-1 0,0 0,0 0,0l0 1c0,1 0,2 -2,2 -2,0 -1,0 -3,-1 0,0 0,0 0,1l0 1c0,1 -1,1 3,2 4,0 5,-3 5,-5l1 -6zm5 0c0,-1 0,-1 1,-1 1,0 1,1 1,1l0 3c-1,1 -1,1 -2,1 0,0 -1,0 -1,-1l1 -3zm5 2c0,-2 0,-5 -4,-6 -2,0 -4,1 -5,4l0 3c0,3 1,4 3,4 0,0 1,0 1,0 1,0 1,0 1,0 0,0 0,0 0,0l0 0c0,1 0,3 -2,2 -2,0 -1,0 -3,0 0,0 0,0 0,0l0 2c0,0 -1,1 3,1 4,1 5,-3 5,-4l1 -6zm0 13c0,0 0,0 0,1 1,0 2,-1 2,-1 2,-1 4,-4 5,-8 1,-5 -1,-8 -3,-9 0,0 -1,-1 -1,-1 -1,0 -1,0 -1,0l0 3c0,0 0,0 1,0 1,3 1,5 1,7 0,1 -1,3 -3,5 0,1 0,1 -1,1l0 2zm19 -4c0,1 0,1 -1,1 -1,0 -1,0 -1,-1l0 -3c0,-1 1,-1 1,-1 1,0 2,1 1,1l0 3zm-5 -1c-1,1 -1,4 3,5 3,0 5,-1 5,-4l1 -3c0,-2 -2,-3 -3,-4 -1,0 -1,0 -2,0 0,1 0,1 0,1 0,0 0,0 0,0l0 -1c0,-1 0,-2 2,-2 1,0 1,0 2,1 1,0 1,0 1,-1l0 -1c0,-1 0,-1 -3,-2 -5,0 -5,3 -6,5l0 6zm13 0c0,0 0,0 0,0 0,-1 0,-1 1,-2 1,-1 1,-2 1,-2 0,0 0,0 0,0l0 0 -1 4c0,0 0,0 0,0l-1 0zm3 6c1,0 1,0 1,0l0 -3c0,0 0,0 0,0l1 0c0,0 0,0 0,-1l1 -1c0,0 0,0 -1,-1l0 0c0,0 -1,0 -1,0l1 -8c1,-1 1,-1 0,-1l-2 0c0,0 0,0 -1,0l-5 8c0,0 0,0 0,1l-1 1c0,1 1,1 1,1l4 0c0,0 0,0 0,1l0 2c0,1 0,1 0,1l2 0zm8 -10c0,-2 0,-2 1,-2 1,0 1,1 1,2l-1 7c0,1 0,2 -1,2 -1,0 -2,-1 -1,-2l1 -7zm-5 6c0,3 2,5 4,5 3,1 5,-1 5,-4l1 -6c0,-3 -2,-5 -4,-5 -2,-1 -4,1 -5,4l-1 6zm16 1c0,0 0,0 0,0l1 -2c0,0 0,0 -1,0l-4 -1c-1,0 -1,0 -1,1l0 1c0,0 0,1 0,1l5 0zm7 3c0,0 0,1 -1,1 -1,0 -1,-1 -1,-2l0 -2c0,-1 1,-1 2,-1 0,0 1,0 1,1l-1 3zm-5 -2c0,2 0,5 3,5 3,1 5,-1 5,-3l1 -3c0,-3 -2,-4 -3,-4 0,0 -1,0 -2,0 0,0 0,0 0,0 0,0 0,0 0,0l0 0c0,-1 0,-3 2,-3 2,1 1,1 2,1 1,0 1,0 1,0l0 -2c0,0 0,-1 -3,-1 -5,-1 -5,2 -5,4l-1 6zm12 -9c-1,0 -1,0 -1,0l0 1c0,1 0,1 0,1l4 1c0,0 0,0 0,0 0,0 0,0 -1,2 -3,5 -3,8 -3,9l0 0c-1,1 -1,1 0,1l2 0c1,1 1,0 1,0 0,-3 2,-7 4,-10 1,-2 1,-2 1,-3l0 -1c0,0 0,0 0,0l-7 -1zm12 12c0,0 1,0 1,-1l0 -1c0,-1 0,-1 0,-1l-5 -1c0,0 0,0 0,1l-1 1c0,1 0,1 1,1l4 1zm8 2c0,1 -1,1 -2,1 0,0 -1,-1 -1,-1l1 -3c0,-1 0,-1 1,-1 1,0 1,0 1,1l0 3zm-6 -2c0,2 0,5 4,6 3,0 5,-1 5,-4l0 -3c1,-3 -1,-4 -3,-4 0,0 -1,0 -1,0 0,0 -1,1 -1,1 0,0 0,-1 0,-1l0 0c0,-1 1,-3 2,-2 2,0 1,0 3,0 0,1 0,0 0,0l1 -1c0,-1 0,-2 -3,-2 -5,-1 -6,3 -6,4l-1 6zm13 1c0,0 0,0 0,-1 0,0 0,0 2,-2 0,-1 0,-1 0,-1 0,0 0,0 0,0l0 0 0 4c0,0 0,0 0,0l-2 0zm4 6c0,0 0,0 0,-1l1 -2c0,0 0,0 0,0l0 0c1,0 1,0 1,-1l0 -1c0,0 0,-1 -1,-1l0 0c0,0 0,0 0,0l1 -8c0,-1 0,-1 -1,-1l-1 0c0,-1 -1,-1 -1,0l-6 8c0,0 0,0 0,0l0 2c0,1 0,1 1,1l4 0c0,0 0,0 0,0l-1 3c0,0 0,1 1,1l2 0zm4 -3c0,0 -1,0 -1,1l0 2c0,0 0,0 0,1l1 0c0,0 0,0 0,0l0 0c0,0 0,1 -1,1 0,0 0,0 0,0l0 1c-1,0 -1,0 0,0l0 0c1,0 3,-1 3,-2l0 -3c0,0 0,0 0,0l-2 -1zm-131 5c0,-2 1,-4 3,-6 0,0 0,0 0,-1l1 -2c0,0 0,0 0,0 -1,0 -2,0 -2,1 -2,1 -5,3 -5,7 -1,5 1,8 3,9 0,1 1,1 1,1 1,0 1,0 1,0l0 -2c0,-1 0,-1 -1,-1 -1,-2 -1,-5 -1,-6zm8 -4c1,-1 1,-2 2,-1 1,0 1,1 1,1l-1 7c0,1 -1,2 -2,2 0,0 -1,-1 -1,-2l1 -7zm-4 6c0,3 2,5 4,6 2,0 5,-1 5,-5l1 -6c0,-3 -2,-5 -4,-5 -2,-1 -5,1 -5,4l-1 6zm14 -5c1,-1 1,-1 2,-1 1,0 1,0 1,1l-1 3c0,1 0,1 -1,1 -1,0 -1,-1 -1,-2l0 -2zm6 1c0,-1 0,-5 -4,-5 -3,0 -4,1 -5,4l0 3c0,2 1,3 3,4 0,0 1,0 1,-1 1,0 1,0 1,0 0,0 0,0 0,0l0 1c0,1 0,2 -2,2 -2,0 -1,-1 -3,-1 0,0 0,0 0,0l-1 2c0,1 0,1 4,2 4,0 5,-3 5,-5l1 -6zm6 8c0,1 -1,1 -1,1 -1,0 -2,0 -1,-1l0 -3c0,-1 0,-1 1,-1 1,0 1,1 1,2l0 2zm-6 -1c0,1 0,5 4,5 3,0 5,-1 5,-4l0 -3c1,-2 -1,-3 -2,-4 -1,0 -2,0 -2,1 0,0 0,0 -1,0 0,0 0,0 0,0l0 -1c1,-1 1,-2 3,-2 1,0 0,1 2,1 0,0 0,0 0,-1l1 -1c0,-1 0,-1 -3,-2 -5,0 -6,3 -6,5l-1 6zm10 8c0,0 0,0 0,0 0,0 2,0 2,0 2,-1 4,-4 5,-8 0,-5 -2,-8 -3,-9 0,0 -1,-1 -2,-1 0,0 0,0 0,0l0 2c0,1 0,1 0,1 2,3 2,5 2,6 0,2 -1,4 -3,6 0,0 -1,0 -1,1l0 2zm16 -1c0,0 0,0 0,1l2 0c0,0 1,0 1,-1l2 -14c0,0 0,-1 -1,-1l-1 0c-1,0 -1,0 -1,1 -1,0 -2,1 -3,1l0 -1c-1,0 -1,1 -1,1l0 1c0,1 0,1 1,1l2 0c0,0 0,0 0,1l-1 10zm9 -10c0,-1 1,-1 1,-1 1,0 1,1 1,1l-1 8c0,0 0,1 -1,1 0,0 -1,0 -1,-2l1 -7zm-4 7c0,3 1,4 4,5 2,0 4,-1 5,-4l0 -7c1,-3 -1,-5 -3,-5 -3,0 -5,1 -5,4l-1 7zm12 -10c-1,0 -1,0 -1,1l0 1c0,1 0,1 1,1l3 0c0,0 0,0 0,0 0,0 0,0 -1,2 -2,5 -3,8 -3,9l0 1c0,0 0,0 0,1l2 0c1,0 1,-1 1,-1 0,-2 2,-7 4,-10 1,-2 1,-2 1,-2l1 -1c0,-1 0,-1 -1,-1l-7 -1zm12 12c1,0 1,0 1,-1l0 -1c0,0 0,-1 0,-1l-4 0c-1,0 -1,0 -1,0l0 2c0,0 0,0 0,0l4 1zm7 -6c0,-1 0,-1 1,-1 1,0 1,1 1,1l0 3c-1,1 -1,1 -2,1 0,0 -1,0 -1,-1l1 -3zm5 2c0,-2 0,-5 -4,-6 -2,0 -4,1 -5,4l0 3c0,3 1,4 3,4 0,0 1,0 1,0 1,0 1,-1 1,-1 0,0 0,1 0,1l0 0c0,1 0,3 -2,2 -2,0 -1,0 -3,-1 0,0 0,1 0,1l0 1c0,1 -1,2 3,2 4,1 5,-3 5,-4l1 -6zm5 -1c0,0 0,-1 1,-1 1,0 1,1 1,2l0 1c0,0 -1,1 -2,1 0,0 -1,-1 0,-2l0 -1zm-1 7c0,-1 0,-2 1,-2 1,0 1,1 1,2l0 1c0,1 0,2 -1,2 -1,0 -1,-1 -1,-2l0 -1zm-4 1c0,3 2,4 4,4 3,1 5,0 5,-3l0 -2c1,-3 -1,-2 -1,-3 0,0 1,0 2,-2l0 -1c0,-4 -3,-4 -4,-5 -4,0 -4,3 -4,4l0 1c-1,2 1,2 0,2 0,1 -1,0 -1,3l-1 2zm16 0c0,0 0,0 0,0l1 -2c0,0 0,0 -1,0l-4 -1c-1,0 -1,0 -1,1l0 1c0,0 0,1 0,1l5 0zm2 1c0,0 0,-1 0,0l0 1c-1,2 1,4 3,4 3,1 5,-1 5,-4 1,-4 -1,-3 -1,-4l0 0c0,0 2,0 2,-3 0,-2 -1,-4 -4,-4 -1,-1 -4,0 -4,2l0 1c0,0 0,1 1,1l1 0c1,0 1,-1 1,-1l0 0c0,-1 0,-1 1,-1 1,0 1,1 1,2 0,2 -1,2 -2,2l-1 0c0,-1 0,-1 0,0l-1 1c0,1 1,1 1,1l1 0c1,0 1,0 1,3 0,1 0,2 -1,2 -1,0 -2,-1 -1,-2l0 0c0,-1 0,-1 -1,-1l-2 0zm10 1c0,0 0,0 0,0l0 1c-1,3 1,4 3,5 3,0 5,-2 5,-5 1,-3 -1,-2 -1,-4l0 0c0,0 2,0 2,-3 0,-2 -1,-4 -4,-4 -1,0 -4,0 -4,2l0 1c0,1 0,1 1,1l1 0c1,0 1,0 1,-1l0 0c0,0 0,-1 1,-1 1,1 1,1 1,2 0,2 -1,2 -2,2l-1 0c0,0 0,0 -1,0l0 1c0,1 1,1 1,1l1 0c1,0 1,1 1,3 0,1 0,2 -1,2 -1,0 -2,-1 -1,-1l0 -1c0,-1 0,-1 -1,-1l-2 0z"/>
    <path id="1" class="fil1" d="M12 82c0,-2 1,-4 3,-6 0,0 1,0 1,0l0 -3c0,0 0,0 0,0 -1,0 -2,0 -2,1 -2,1 -4,3 -5,8 0,4 2,7 3,8 0,1 1,1 2,1 0,0 0,0 0,0l0 -2c0,0 0,0 0,-1 -2,-2 -2,-5 -2,-6zm9 -4c0,-1 0,-1 1,-1 1,0 1,1 1,1l-1 8c0,0 0,1 -1,1 -1,0 -1,-1 -1,-2l1 -7zm-5 6c0,4 2,5 4,6 3,0 5,-1 5,-4l1 -7c0,-3 -1,-5 -4,-5 -2,0 -4,1 -5,4l-1 6zm15 -5c0,-1 0,-1 1,-1 1,0 1,0 1,1l0 3c-1,1 -1,1 -2,1 0,0 -1,-1 -1,-1l1 -3zm5 1c0,-1 0,-4 -4,-5 -2,0 -4,1 -5,4l0 3c0,2 1,3 3,4 0,0 1,0 1,0 1,-1 1,-1 1,-1 0,0 0,0 0,0l0 1c0,1 0,2 -2,2 -2,0 -1,0 -3,-1 0,0 0,0 0,1l0 1c0,1 -1,1 3,2 4,0 5,-3 5,-5l1 -6zm5 0c0,-1 0,-1 1,-1 1,0 1,1 1,1l0 3c-1,1 -1,1 -2,1 0,0 -1,0 -1,-1l1 -3zm5 2c0,-2 0,-5 -4,-6 -2,0 -4,1 -5,4l0 3c0,3 1,4 3,4 0,0 1,0 1,0 1,0 1,0 1,0 0,0 0,0 0,0l0 0c0,1 0,3 -2,2 -2,0 -1,0 -3,0 0,0 0,0 0,0l0 2c0,0 -1,1 3,1 4,1 5,-3 5,-4l1 -6zm0 13c0,0 0,0 0,1 1,0 2,-1 2,-1 2,-1 4,-4 5,-8 1,-5 -1,-8 -3,-9 0,0 -1,-1 -1,-1 -1,0 -1,0 -1,0l0 3c0,0 0,0 1,0 1,3 1,5 1,7 0,1 -1,3 -3,5 0,1 0,1 -1,1l0 2zm19 -4c0,1 0,1 -1,1 -1,0 -1,0 -1,-1l0 -3c0,-1 1,-1 1,-1 1,0 2,1 1,1l0 3zm-5 -1c-1,1 -1,4 3,5 3,0 5,-1 5,-4l1 -3c0,-2 -2,-3 -3,-4 -1,0 -1,0 -2,0 0,1 0,1 0,1 0,0 0,0 0,0l0 -1c0,-1 0,-2 2,-2 1,0 1,0 2,1 1,0 1,0 1,-1l0 -1c0,-1 0,-1 -3,-2 -5,0 -5,3 -6,5l0 6zm13 0c0,0 0,0 0,0 0,-1 0,-1 1,-2 1,-1 1,-2 1,-2 0,0 0,0 0,0l0 0 -1 4c0,0 0,0 0,0l-1 0zm3 6c1,0 1,0 1,0l0 -3c0,0 0,0 0,0l1 0c0,0 0,0 0,-1l1 -1c0,0 0,0 -1,-1l0 0c0,0 -1,0 -1,0l1 -8c1,-1 1,-1 0,-1l-2 0c0,0 0,0 -1,0l-5 8c0,0 0,0 0,1l-1 1c0,1 1,1 1,1l4 0c0,0 0,0 0,1l0 2c0,1 0,1 0,1l2 0zm8 -10c0,-2 0,-2 1,-2 1,0 1,1 1,2l-1 7c0,1 0,2 -1,2 -1,0 -2,-1 -1,-2l1 -7zm-5 6c0,3 2,5 4,5 3,1 5,-1 5,-4l1 -6c0,-3 -2,-5 -4,-5 -2,-1 -4,1 -5,4l-1 6zm16 1c0,0 0,0 0,0l1 -2c0,0 0,0 -1,0l-4 -1c-1,0 -1,0 -1,1l0 1c0,0 0,1 0,1l5 0zm7 3c0,0 0,1 -1,1 -1,0 -1,-1 -1,-2l0 -2c0,-1 1,-1 2,-1 0,0 1,0 1,1l-1 3zm-5 -2c0,2 0,5 3,5 3,1 5,-1 5,-3l1 -3c0,-3 -2,-4 -3,-4 0,0 -1,0 -2,0 0,0 0,0 0,0 0,0 0,0 0,0l0 0c0,-1 0,-3 2,-3 2,1 1,1 2,1 1,0 1,0 1,0l0 -2c0,0 0,-1 -3,-1 -5,-1 -5,2 -5,4l-1 6zm12 -9c-1,0 -1,0 -1,0l0 1c0,1 0,1 0,1l4 1c0,0 0,0 0,0 0,0 0,0 -1,2 -3,5 -3,8 -3,9l0 0c-1,1 -1,1 0,1l2 0c1,1 1,0 1,0 0,-3 2,-7 4,-10 1,-2 1,-2 1,-3l0 -1c0,0 0,0 0,0l-7 -1zm12 12c0,0 1,0 1,-1l0 -1c0,-1 0,-1 0,-1l-5 -1c0,0 0,0 0,1l-1 1c0,1 0,1 1,1l4 1zm8 2c0,1 -1,1 -2,1 0,0 -1,-1 -1,-1l1 -3c0,-1 0,-1 1,-1 1,0 1,0 1,1l0 3zm-6 -2c0,2 0,5 4,6 3,0 5,-1 5,-4l0 -3c1,-3 -1,-4 -3,-4 0,0 -1,0 -1,0 0,0 -1,1 -1,1 0,0 0,-1 0,-1l0 0c0,-1 1,-3 2,-2 2,0 1,0 3,0 0,1 0,0 0,0l1 -1c0,-1 0,-2 -3,-2 -5,-1 -6,3 -6,4l-1 6zm13 1c0,0 0,0 0,-1 0,0 0,0 2,-2 0,-1 0,-1 0,-1 0,0 0,0 0,0l0 0 0 4c0,0 0,0 0,0l-2 0zm4 6c0,0 0,0 0,-1l1 -2c0,0 0,0 0,0l0 0c1,0 1,0 1,-1l0 -1c0,0 0,-1 -1,-1l0 0c0,0 0,0 0,0l1 -8c0,-1 0,-1 -1,-1l-1 0c0,-1 -1,-1 -1,0l-6 8c0,0 0,0 0,0l0 2c0,1 0,1 1,1l4 0c0,0 0,0 0,0l-1 3c0,0 0,1 1,1l2 0zm4 -3c0,0 -1,0 -1,1l0 2c0,0 0,0 0,1l1 0c0,0 0,0 0,0l0 0c0,0 0,1 -1,1 0,0 0,0 0,0l0 1c-1,0 -1,0 0,0l0 0c1,0 3,-1 3,-2l0 -3c0,0 0,0 0,0l-2 -1zm-131 5c0,-2 1,-4 3,-6 0,0 0,0 0,-1l1 -2c0,0 0,0 0,0 -1,0 -2,0 -2,1 -2,1 -5,3 -5,7 -1,5 1,8 3,9 0,1 1,1 1,1 1,0 1,0 1,0l0 -2c0,-1 0,-1 -1,-1 -1,-2 -1,-5 -1,-6zm8 -4c1,-1 1,-2 2,-1 1,0 1,1 1,1l-1 7c0,1 -1,2 -2,2 0,0 -1,-1 -1,-2l1 -7zm-4 6c0,3 2,5 4,6 2,0 5,-1 5,-5l1 -6c0,-3 -2,-5 -4,-5 -2,-1 -5,1 -5,4l-1 6zm14 -5c1,-1 1,-1 2,-1 1,0 1,0 1,1l-1 3c0,1 0,1 -1,1 -1,0 -1,-1 -1,-2l0 -2zm6 1c0,-1 0,-5 -4,-5 -3,0 -4,1 -5,4l0 3c0,2 1,3 3,4 0,0 1,0 1,-1 1,0 1,0 1,0 0,0 0,0 0,0l0 1c0,1 0,2 -2,2 -2,0 -1,-1 -3,-1 0,0 0,0 0,0l-1 2c0,1 0,1 4,2 4,0 5,-3 5,-5l1 -6zm6 8c0,1 -1,1 -1,1 -1,0 -2,0 -1,-1l0 -3c0,-1 0,-1 1,-1 1,0 1,1 1,2l0 2zm-6 -1c0,1 0,5 4,5 3,0 5,-1 5,-4l0 -3c1,-2 -1,-3 -2,-4 -1,0 -2,0 -2,1 0,0 0,0 -1,0 0,0 0,0 0,0l0 -1c1,-1 1,-2 3,-2 1,0 0,1 2,1 0,0 0,0 0,-1l1 -1c0,-1 0,-1 -3,-2 -5,0 -6,3 -6,5l-1 6zm10 8c0,0 0,0 0,0 0,0 2,0 2,0 2,-1 4,-4 5,-8 0,-5 -2,-8 -3,-9 0,0 -1,-1 -2,-1 0,0 0,0 0,0l0 2c0,1 0,1 0,1 2,3 2,5 2,6 0,2 -1,4 -3,6 0,0 -1,0 -1,1l0 2zm16 -1c0,0 0,0 0,1l2 0c0,0 1,0 1,-1l2 -14c0,0 0,-1 -1,-1l-1 0c-1,0 -1,0 -1,1 -1,0 -2,1 -3,1l0 -1c-1,0 -1,1 -1,1l0 1c0,1 0,1 1,1l2 0c0,0 0,0 0,1l-1 10zm9 -10c0,-1 1,-1 1,-1 1,0 1,1 1,1l-1 8c0,0 0,1 -1,1 0,0 -1,0 -1,-2l1 -7zm-4 7c0,3 1,4 4,5 2,0 4,-1 5,-4l0 -7c1,-3 -1,-5 -3,-5 -3,0 -5,1 -5,4l-1 7zm12 -10c-1,0 -1,0 -1,1l0 1c0,1 0,1 1,1l3 0c0,0 0,0 0,0 0,0 0,0 -1,2 -2,5 -3,8 -3,9l0 1c0,0 0,0 0,1l2 0c1,0 1,-1 1,-1 0,-2 2,-7 4,-10 1,-2 1,-2 1,-2l1 -1c0,-1 0,-1 -1,-1l-7 -1zm12 12c1,0 1,0 1,-1l0 -1c0,0 0,-1 0,-1l-4 0c-1,0 -1,0 -1,0l0 2c0,0 0,0 0,0l4 1zm7 -6c0,-1 0,-1 1,-1 1,0 1,1 1,1l0 3c-1,1 -1,1 -2,1 0,0 -1,0 -1,-1l1 -3zm5 2c0,-2 0,-5 -4,-6 -2,0 -4,1 -5,4l0 3c0,3 1,4 3,4 0,0 1,0 1,0 1,0 1,-1 1,-1 0,0 0,1 0,1l0 0c0,1 0,3 -2,2 -2,0 -1,0 -3,-1 0,0 0,1 0,1l0 1c0,1 -1,2 3,2 4,1 5,-3 5,-4l1 -6zm5 -1c0,0 0,-1 1,-1 1,0 1,1 1,2l0 1c0,0 -1,1 -2,1 0,0 -1,-1 0,-2l0 -1zm-1 7c0,-1 0,-2 1,-2 1,0 1,1 1,2l0 1c0,1 0,2 -1,2 -1,0 -1,-1 -1,-2l0 -1zm-4 1c0,3 2,4 4,4 3,1 5,0 5,-3l0 -2c1,-3 -1,-2 -1,-3 0,0 1,0 2,-2l0 -1c0,-4 -3,-4 -4,-5 -4,0 -4,3 -4,4l0 1c-1,2 1,2 0,2 0,1 -1,0 -1,3l-1 2zm16 0c0,0 0,0 0,0l1 -2c0,0 0,0 -1,0l-4 -1c-1,0 -1,0 -1,1l0 1c0,0 0,1 0,1l5 0zm2 1c0,0 0,-1 0,0l0 1c-1,2 1,4 3,4 3,1 5,-1 5,-4 1,-4 -1,-3 -1,-4l0 0c0,0 2,0 2,-3 0,-2 -1,-4 -4,-4 -1,-1 -4,0 -4,2l0 1c0,0 0,1 1,1l1 0c1,0 1,-1 1,-1l0 0c0,-1 0,-1 1,-1 1,0 1,1 1,2 0,2 -1,2 -2,2l-1 0c0,-1 0,-1 0,0l-1 1c0,1 1,1 1,1l1 0c1,0 1,0 1,3 0,1 0,2 -1,2 -1,0 -2,-1 -1,-2l0 0c0,-1 0,-1 -1,-1l-2 0zm10 1c0,0 0,0 0,0l0 1c-1,3 1,4 3,5 3,0 5,-2 5,-5 1,-3 -1,-2 -1,-4l0 0c0,0 2,0 2,-3 0,-2 -1,-4 -4,-4 -1,0 -4,0 -4,2l0 1c0,1 0,1 1,1l1 0c1,0 1,0 1,-1l0 0c0,0 0,-1 1,-1 1,1 1,1 1,2 0,2 -1,2 -2,2l-1 0c0,0 0,0 -1,0l0 1c0,1 1,1 1,1l1 0c1,0 1,1 1,3 0,1 0,2 -1,2 -1,0 -2,-1 -1,-1l0 -1c0,-1 0,-1 -1,-1l-2 0z"/>
   </g>
  </g>
 </g>
</svg>
