<?xml version="1.0" encoding="UTF-8"?>
<!DOCTYPE svg PUBLIC "-//W3C//DTD SVG 1.1//EN" "http://www.w3.org/Graphics/SVG/1.1/DTD/svg11.dtd">
<!-- Creator: CorelDRAW X7 -->
<svg xmlns="http://www.w3.org/2000/svg" xml:space="preserve" width="10.5836mm" height="7.0673mm" version="1.1" style="shape-rendering:geometricPrecision; text-rendering:geometricPrecision; image-rendering:optimizeQuality; fill-rule:evenodd; clip-rule:evenodd"
viewBox="0 0 297 198"
 xmlns:xlink="http://www.w3.org/1999/xlink">
 <defs>
  <style type="text/css">
   <![CDATA[
    .str0 {stroke:#FEFEFE;stroke-width:5.60634;stroke-linecap:round;stroke-linejoin:round}
    .fil0 {fill:none;fill-rule:nonzero}
    .fil1 {fill:#E31E24;fill-rule:nonzero}
   ]]>
  </style>
 </defs>
 <g id="Слой_x0020_1">
  <metadata id="CorelCorpID_0Corel-Layer"/>
  <g id="_814661408">
   <g>
    <path class="fil0 str0" d="M3 118c0,2 1,3 3,3 1,0 3,-1 3,-3 0,-2 -2,-3 -3,-3 -2,0 -3,1 -3,3zm105 0c0,2 1,3 3,3 1,0 3,-1 3,-3 0,-2 -2,-3 -3,-3 -2,0 -3,1 -3,3zm-86 -1c0,-1 0,-2 1,-2 1,0 2,1 2,2l0 6c0,2 -1,2 -2,2 -1,0 -1,0 -1,-2l0 -6zm-4 6c0,2 0,6 5,6 5,0 6,-4 6,-6l0 -5c0,-2 -1,-6 -6,-6 -5,0 -5,4 -5,6l0 5zm17 -7c0,0 0,0 0,0l2 0c0,0 0,0 0,0l0 12c0,0 1,0 1,0l2 0c1,0 1,0 1,0l0 -15c0,-1 0,-1 -1,-1l-9 0c0,0 0,0 0,1l0 15c0,0 0,0 0,0l3 0c0,0 1,0 1,0l0 -12zm15 8c0,1 -1,1 -2,1 -1,0 -1,-1 -1,-2 0,-1 1,-2 2,-2l0 -1c0,0 1,0 1,0l0 4zm4 -7c0,-2 -1,-5 -6,-5 -4,0 -4,1 -4,2l0 1c0,1 0,1 0,1 1,0 1,0 2,0 1,-1 1,-1 2,-1 1,0 2,1 2,1 0,1 0,1 -1,1l0 0c-3,1 -6,2 -6,7 0,3 2,5 4,5 1,0 2,-1 2,-1 0,0 0,0 0,0 1,0 1,0 1,0 0,0 0,0 0,0l3 0c0,0 1,0 1,0l0 -1 0 -10zm6 1c0,-1 0,-2 1,-2 1,0 2,1 2,2l0 5c0,1 -1,2 -2,2 -1,0 -1,-1 -1,-2l0 -5zm-4 14c0,0 0,0 1,0l2 0c0,0 1,0 1,0l0 -4c0,0 0,0 0,0 0,0 1,1 3,1 3,0 3,-4 3,-6l0 -5c0,-2 0,-6 -3,-6 -2,0 -3,1 -3,1 0,0 0,0 0,0l0 0c0,0 0,-1 -1,-1l-2 0c-1,0 -1,0 -1,1l0 19zm16 -4c0,0 1,0 1,0l2 -7c0,0 1,0 1,0 0,0 0,0 0,0l0 7c0,0 0,0 1,0l2 0c0,0 1,0 1,0l0 -15c0,-1 -1,-1 -1,-1l-3 0c0,0 0,0 -1,1l-2 7c0,0 0,0 0,0 0,0 0,0 0,0l0 -7c0,-1 -1,-1 -1,-1l-2 0c-1,0 -1,0 -1,1l0 15c0,0 0,0 1,0l2 0zm11 -16c-1,0 -1,0 -1,1l0 15c0,0 0,0 1,0l15 0c1,0 1,0 1,0l0 -15c0,-1 -1,-1 -1,-1l-3 0c0,0 0,0 0,1l0 12c0,0 0,0 -1,0l-1 0c-1,0 -1,0 -1,0l0 -12c0,-1 0,-1 -1,-1l-2 0c0,0 -1,0 -1,1l0 12c0,0 0,0 0,0l-2 0c0,0 0,0 0,0l0 -12c0,-1 -1,-1 -1,-1l-2 0zm39 7c0,1 1,5 4,5 2,0 2,-1 3,-1 0,0 0,0 0,0l0 5c0,0 0,0 1,0l2 0c0,0 1,0 1,0l0 -15c0,-1 -1,-1 -1,-1l-2 0c-1,0 -1,0 -1,1l0 5c0,1 -1,2 -1,2 -2,0 -2,-1 -2,-2l0 -5c0,-1 0,-1 0,-1l-3 0c0,0 -1,0 -1,1l0 6zm17 -1c0,0 0,0 0,0l0 -1c0,0 0,-2 2,-2 1,0 1,2 1,2l0 1c0,0 0,0 0,0l-3 0zm6 3c1,0 1,0 1,0l0 -3c0,-6 -4,-6 -5,-6 -5,0 -6,4 -6,6l0 5c0,5 4,6 7,6 0,0 2,-1 3,-1 1,0 1,0 1,-1l0 -2c0,0 0,-1 -1,0 -1,0 -2,0 -3,0 -1,0 -3,0 -3,-2l0 -1c0,0 0,-1 0,-1l6 0zm7 -3c0,-1 0,-2 1,-2 2,0 2,1 2,2l0 5c0,1 0,2 -2,2 -1,0 -1,-1 -1,-2l0 -5zm-4 14c0,0 0,0 1,0l2 0c1,0 1,0 1,0l0 -4c0,0 0,0 0,0 1,0 1,1 3,1 4,0 4,-4 4,-6l0 -5c0,-2 0,-6 -4,-6 -2,0 -2,1 -3,1 0,0 0,0 0,0l0 0c0,0 0,-1 0,-1l-3 0c0,0 -1,0 -1,1l0 19zm17 -10c0,0 0,-1 0,-1l1 0c1,0 2,1 2,2 0,1 -1,2 -2,2l-1 0c0,0 0,0 0,0l0 -3zm0 -6c0,-1 0,-1 0,-1l1 0c1,0 1,1 1,2 0,1 0,1 -1,1l-1 0c0,0 0,0 0,0l0 -2zm-4 12c0,0 0,0 1,0l4 0c2,0 6,0 6,-5 0,-2 -1,-3 -2,-3 0,0 0,0 0,0 0,-1 0,-1 0,-1 0,0 1,-1 1,-3 0,-2 -1,-4 -4,-4l-5 0c0,0 -1,0 -1,1l0 15zm26 -12c0,0 0,0 0,0l0 2c0,1 0,1 0,1l-1 0c-2,0 -2,-1 -2,-2 0,0 0,-1 2,-1l1 0zm-2 -4c-4,0 -5,2 -5,5 0,3 2,3 2,4 0,0 0,0 0,0l-3 7c0,0 0,0 1,0l2 0c1,0 1,0 2,0l2 -6c0,0 0,0 0,0l1 0c0,0 0,0 0,0l0 6c0,0 0,0 1,0l2 0c0,0 1,0 1,0l0 -15c0,-1 -1,-1 -1,-1l-5 0zm11 16c1,0 1,0 1,0l0 -6c0,0 0,0 0,0l1 0c1,0 1,1 1,1l0 5c0,0 1,0 1,0l2 0c1,0 1,0 1,0l0 -5c0,-3 -2,-3 -2,-3 0,0 1,0 1,-1 0,0 0,-1 0,-1l0 -2c0,-1 1,-1 1,-1l0 0c0,0 1,0 1,0l0 -2c0,-1 -1,-1 -1,-1l-2 0c-2,0 -2,2 -2,3l0 2c0,1 -1,1 -1,1l-1 0c0,0 0,0 0,0l0 -5c0,-1 0,-1 -1,-1l-2 0c0,0 -1,0 -1,1l0 15c0,0 0,0 1,0l2 0zm-19 -12c0,0 0,0 0,-1l1 -6c0,-1 0,-1 -1,-1l-3 0c0,0 0,0 0,1l1 6c0,1 0,1 0,1l2 0zm-174 33c0,2 1,3 3,3 1,0 3,-1 3,-3 0,-1 -2,-2 -3,-2 -2,0 -3,1 -3,2zm59 0c0,2 1,3 2,3 2,0 3,-1 3,-3 0,-1 -1,-2 -3,-2 -1,0 -2,1 -2,2zm52 0c0,2 1,3 3,3 1,0 3,-1 3,-3 0,-1 -2,-2 -3,-2 -2,0 -3,1 -3,2zm-92 0c0,-1 0,-2 1,-2 1,0 2,1 2,2l0 6c0,0 -1,1 -2,1 -1,0 -1,-1 -1,-1l0 -6zm-4 14c0,0 0,1 1,1l2 0c0,0 1,0 1,-1l0 -4c0,0 0,0 0,0 0,0 1,1 3,1 3,0 3,-3 3,-5l0 -6c0,-2 0,-5 -3,-5 -2,0 -3,1 -3,1 0,0 0,0 0,-1l0 0c0,0 0,0 -1,0l-2 0c-1,0 -1,0 -1,1l0 18zm16 -3c0,0 1,0 1,-1l2 -7c0,0 1,0 1,0 0,0 0,0 0,0l0 7c0,1 0,1 1,1l2 0c0,0 1,0 1,-1l0 -14c0,-1 -1,-1 -1,-1l-3 0c0,0 0,0 -1,1l-2 6c0,0 0,0 0,0 0,0 0,0 0,0l0 -6c0,-1 -1,-1 -1,-1l-2 0c-1,0 -1,0 -1,1l0 14c0,0 0,1 1,1l2 0zm14 -10c0,-1 0,-3 2,-3 1,0 1,1 2,1 1,0 1,-1 1,-1l0 -2c0,-1 0,-1 -4,-1 -5,0 -5,3 -5,5l0 5c0,2 0,6 5,6 4,0 4,-1 4,-1l0 -2c0,-1 0,-1 -1,-1 0,0 0,0 -1,0 -1,0 -1,0 -1,0 -2,0 -2,-1 -2,-2l0 -4zm25 10c0,0 1,0 1,-1l0 -6c0,0 0,0 0,0l1 0c1,0 1,1 1,2l0 4c0,1 1,1 1,1l2 0c1,0 1,0 1,-1l0 -5c0,-2 -2,-2 -2,-3 0,0 0,0 1,0 0,-1 0,-1 0,-2l0 -2c0,0 0,0 1,0l0 0c0,0 0,0 0,-1l0 -1c0,-1 0,-1 0,-1l-2 0c-2,0 -3,2 -3,3l0 1c0,2 0,2 -1,2l0 0c0,0 0,0 0,-1l0 -4c0,-1 -1,-1 -1,-1l-2 0c-1,0 -1,0 -1,1l0 14c0,0 0,1 1,1l2 0zm9 -16c-1,0 -1,0 -1,1l4 14c0,1 0,2 -1,2 0,0 -1,0 -1,-1 0,0 0,0 -1,0 0,0 0,1 0,1l0 2c0,0 0,1 3,1 4,0 4,-2 5,-5l3 -14c0,-1 0,-1 -1,-1l-2 0c-1,0 -1,0 -1,1l-1 6c0,1 0,1 -1,1 0,0 0,0 0,-1l-1 -6c-1,-1 -1,-1 -1,-1l-3 0zm15 16c1,0 1,0 1,-1l0 -6c0,0 0,0 1,0l0 0c1,0 2,1 2,2l0 4c0,1 0,1 0,1l3 0c0,0 0,0 0,-1l0 -5c0,-2 -1,-2 -1,-3 0,0 0,0 0,0 0,-1 1,-1 1,-2l0 -2c0,0 0,0 0,0l0 0c0,0 1,0 1,-1l0 -1c0,-1 -1,-1 -1,-1l-1 0c-3,0 -3,2 -3,3l0 1c0,2 -1,2 -1,2l0 0c-1,0 -1,0 -1,-1l0 -4c0,-1 0,-1 -1,-1l-2 0c0,0 -1,0 -1,1l0 14c0,0 0,1 1,1l2 0zm36 -7c0,-1 0,-1 0,-1 0,0 0,0 0,1l1 2c0,1 0,1 1,1l0 0c1,0 1,0 1,-1l2 -2c0,0 0,-1 0,-1 0,0 0,1 0,1l0 6c0,1 0,1 1,1l2 0c1,0 1,-1 1,-1l0 -14c0,-1 -1,-1 -1,-1l-2 0c-1,0 -1,0 -1,0l-3 6c0,0 0,0 0,0 0,0 0,0 0,0l-2 -6c-1,0 -1,0 -1,0l-2 0c-1,0 -1,0 -1,1l0 14c0,0 0,1 1,1l2 0c0,0 1,0 1,-1l0 -6zm17 2c0,1 0,2 -1,2 -1,0 -1,-1 -1,-2 0,-2 0,-2 1,-3l1 0c0,0 0,0 0,0l0 3zm4 -7c0,-2 0,-4 -5,-4 -4,0 -5,1 -5,1l0 2c0,0 1,0 1,0 0,0 1,0 1,0 1,0 2,0 2,0 1,0 2,0 2,1 0,0 0,0 0,0l-1 0c-2,1 -5,3 -5,7 0,3 1,5 3,5 1,0 2,0 3,-1 0,0 0,0 0,0 0,0 0,0 0,0 0,1 0,1 1,1l2 0c1,0 1,-1 1,-1l0 0 0 -11zm6 2c0,-1 0,-3 2,-3 1,0 2,1 3,1 0,0 0,-1 0,-1l0 -2c0,-1 0,-1 -3,-1 -5,0 -6,3 -6,5l0 5c0,2 0,6 6,6 3,0 3,-1 3,-1l0 -2c0,-1 0,-1 0,-1 -1,0 -1,0 -1,0 -1,0 -1,0 -2,0 -2,0 -2,-1 -2,-2l0 -4zm13 -2c0,-1 0,-1 1,-1l2 0c0,0 0,0 0,-1l0 -1c0,-1 0,-1 0,-1l-9 0c-1,0 -1,0 -1,1l0 1c0,1 0,1 1,1l2 0c0,0 0,0 0,1l0 11c0,1 1,1 1,1l2 0c1,0 1,0 1,-1l0 -11zm8 12c0,0 1,0 1,-1l2 -7c0,0 1,0 1,0 0,0 0,0 0,0l0 7c0,1 0,1 1,1l2 0c0,0 1,0 1,-1l0 -14c0,-1 -1,-1 -1,-1l-3 0c0,0 0,0 -1,1l-2 6c0,0 0,0 0,0 0,0 0,0 0,0l0 -6c0,-1 -1,-1 -1,-1l-2 0c-1,0 -1,0 -1,1l0 14c0,0 0,1 1,1l2 0zm13 0c0,0 1,0 1,-1l0 -6c0,0 0,0 0,0l1 0c1,0 1,1 1,2l0 4c0,1 1,1 1,1l2 0c1,0 1,0 1,-1l0 -5c0,-2 -2,-2 -2,-3 0,0 0,0 1,0 0,-1 0,-1 0,-2l0 -2c0,0 0,0 1,0l0 0c0,0 0,0 0,-1l0 -1c0,-1 0,-1 0,-1l-2 0c-2,0 -3,2 -3,3l0 1c0,2 0,2 -1,2l0 0c0,0 0,0 0,-1l0 -4c0,-1 -1,-1 -1,-1l-2 0c-1,0 -1,0 -1,1l0 14c0,0 0,1 1,1l2 0zm16 -5c0,1 -1,2 -2,2 -1,0 -1,-1 -1,-2 0,-2 1,-2 2,-3l0 0c0,0 1,0 1,0l0 3zm4 -7c0,-2 -1,-4 -6,-4 -4,0 -4,1 -4,1l0 2c0,0 0,0 1,0 0,0 0,0 1,0 1,0 1,0 2,0 1,0 2,0 2,1 0,0 0,0 -1,0l0 0c-3,1 -6,3 -6,7 0,3 2,5 4,5 1,0 2,0 2,-1 0,0 0,0 1,0 0,0 0,0 0,0 0,1 0,1 0,1l3 0c0,0 1,-1 1,-1l0 0 0 -11zm-192 32c0,0 0,-1 1,-1 1,0 2,1 2,1l0 6c0,1 -1,2 -2,2 -1,0 -1,-1 -1,-2l0 -6zm-4 15c0,0 0,0 1,0l2 0c0,0 1,0 1,0l0 -4c0,0 0,0 0,0 0,0 1,0 3,0 3,0 3,-3 3,-5l0 -6c0,-1 0,-5 -3,-5 -2,0 -3,1 -3,1 0,0 0,0 0,0l0 0c0,-1 0,-1 -1,-1l-2 0c-1,0 -1,0 -1,1l0 19zm17 -19c0,-1 -1,-1 -1,-1l-2 0c-1,0 -1,0 -1,1l0 14c0,1 0,1 1,1l2 0c0,0 1,0 1,-1l0 -14zm0 -5c0,0 -1,0 -1,0l-2 0c-1,0 -1,0 -1,0l0 2c0,1 0,1 1,1l2 0c1,0 1,0 1,-1l0 -2zm2 12c0,1 0,1 1,1l1 0c2,0 2,2 2,2 0,1 0,2 -2,2 -1,0 0,0 -2,0 0,0 0,0 0,0l0 2c0,1 0,1 3,1 5,0 6,-3 6,-5 0,-2 -1,-3 -2,-3 0,0 -1,0 -1,-1 0,0 1,0 1,0 0,-1 1,-1 1,-3 0,-2 -1,-4 -5,-4 -1,0 -2,0 -3,0 0,1 0,1 0,1l0 2c0,0 0,0 0,0 0,0 0,0 1,0 0,0 1,0 1,0 2,0 2,1 2,2 0,0 0,1 -2,1l-1 0c-1,0 -1,1 -1,1l0 1zm10 7c0,1 1,1 1,1l3 0c0,0 0,0 0,-1l0 -5c0,-1 1,-1 1,-1l2 0c0,0 0,0 0,1l0 5c0,1 1,1 1,1l2 0c1,0 1,0 1,-1l0 -14c0,-1 0,-1 -1,-1l-2 0c0,0 -1,0 -1,1l0 5c0,0 0,0 0,0l-2 0c0,0 -1,0 -1,0l0 -5c0,-1 0,-1 0,-1l-3 0c0,0 -1,0 -1,1l0 14zm17 -14c0,-1 0,-1 -1,-1l-2 0c0,0 -1,0 -1,1l0 14c0,1 0,1 1,1l2 0c1,0 1,0 1,-1l0 -14zm0 -5c0,0 0,0 -1,0l-2 0c-1,0 -1,0 -1,0l0 2c0,1 0,1 1,1l2 0c1,0 1,0 1,-1l0 -2zm13 14c0,-1 0,-1 0,-1l1 0c1,0 2,1 2,2 0,1 -1,2 -2,2l-1 0c0,0 0,0 0,0l0 -3zm0 -6c0,-1 0,-1 0,-1l1 0c1,0 1,1 1,2 0,0 0,1 -1,1l-1 0c0,0 0,0 0,0l0 -2zm-4 11c0,1 0,1 1,1l4 0c2,0 6,0 6,-5 0,-2 -1,-3 -2,-3 0,0 0,-1 0,-1 0,0 0,0 0,0 0,0 1,-1 1,-3 0,-2 -1,-4 -4,-4l-5 0c0,0 -1,0 -1,1l0 14zm16 1c1,0 1,0 1,-1l3 -6c0,0 0,0 0,0 0,0 0,0 0,0l0 6c0,1 1,1 1,1l2 0c1,0 1,0 1,-1l0 -14c0,-1 0,-1 -1,-1l-2 0c0,0 -1,0 -1,1l-3 7c0,0 0,0 0,0 0,0 0,0 0,0l0 -7c0,-1 -1,-1 -1,-1l-2 0c0,0 -1,0 -1,1l0 14c0,1 0,1 1,1l2 0zm17 -12c0,0 0,0 0,0l0 9c0,0 0,0 0,0l-2 0c0,0 0,0 0,0 0,-1 0,0 1,-8l0 -1c0,0 0,0 0,0l1 0zm-4 -4c-1,0 -1,1 -1,1l0 1c0,6 -1,9 -1,10 0,0 0,1 -1,1l0 0c-1,0 -1,1 -1,1l0 5c0,0 1,1 1,1l2 0c1,0 1,-1 1,-1l0 -2c0,-1 0,-1 0,-1l6 0c0,0 0,0 0,1l0 2c0,0 0,1 1,1l2 0c0,0 1,-1 1,-1l0 -5c0,-1 -1,-1 -1,-1l0 0c-1,0 -1,0 -1,0l0 -12c0,-1 0,-1 -1,-1l-7 0zm14 16c1,0 1,0 1,-1l3 -6c0,0 0,0 0,0 0,0 0,0 0,0l0 6c0,1 1,1 1,1l2 0c0,0 1,0 1,-1l0 -14c0,-1 -1,-1 -1,-1l-2 0c-1,0 -1,0 -1,1l-3 7c0,0 0,0 0,0 0,0 0,0 0,0l0 -7c0,-1 -1,-1 -1,-1l-2 0c0,0 -1,0 -1,1l0 14c0,1 0,1 1,1l2 0z"/>
    <path id="1" class="fil1" d="M3 118c0,2 1,3 3,3 1,0 3,-1 3,-3 0,-2 -2,-3 -3,-3 -2,0 -3,1 -3,3zm105 0c0,2 1,3 3,3 1,0 3,-1 3,-3 0,-2 -2,-3 -3,-3 -2,0 -3,1 -3,3zm-86 -1c0,-1 0,-2 1,-2 1,0 2,1 2,2l0 6c0,2 -1,2 -2,2 -1,0 -1,0 -1,-2l0 -6zm-4 6c0,2 0,6 5,6 5,0 6,-4 6,-6l0 -5c0,-2 -1,-6 -6,-6 -5,0 -5,4 -5,6l0 5zm17 -7c0,0 0,0 0,0l2 0c0,0 0,0 0,0l0 12c0,0 1,0 1,0l2 0c1,0 1,0 1,0l0 -15c0,-1 0,-1 -1,-1l-9 0c0,0 0,0 0,1l0 15c0,0 0,0 0,0l3 0c0,0 1,0 1,0l0 -12zm15 8c0,1 -1,1 -2,1 -1,0 -1,-1 -1,-2 0,-1 1,-2 2,-2l0 -1c0,0 1,0 1,0l0 4zm4 -7c0,-2 -1,-5 -6,-5 -4,0 -4,1 -4,2l0 1c0,1 0,1 0,1 1,0 1,0 2,0 1,-1 1,-1 2,-1 1,0 2,1 2,1 0,1 0,1 -1,1l0 0c-3,1 -6,2 -6,7 0,3 2,5 4,5 1,0 2,-1 2,-1 0,0 0,0 0,0 1,0 1,0 1,0 0,0 0,0 0,0l3 0c0,0 1,0 1,0l0 -1 0 -10zm6 1c0,-1 0,-2 1,-2 1,0 2,1 2,2l0 5c0,1 -1,2 -2,2 -1,0 -1,-1 -1,-2l0 -5zm-4 14c0,0 0,0 1,0l2 0c0,0 1,0 1,0l0 -4c0,0 0,0 0,0 0,0 1,1 3,1 3,0 3,-4 3,-6l0 -5c0,-2 0,-6 -3,-6 -2,0 -3,1 -3,1 0,0 0,0 0,0l0 0c0,0 0,-1 -1,-1l-2 0c-1,0 -1,0 -1,1l0 19zm16 -4c0,0 1,0 1,0l2 -7c0,0 1,0 1,0 0,0 0,0 0,0l0 7c0,0 0,0 1,0l2 0c0,0 1,0 1,0l0 -15c0,-1 -1,-1 -1,-1l-3 0c0,0 0,0 -1,1l-2 7c0,0 0,0 0,0 0,0 0,0 0,0l0 -7c0,-1 -1,-1 -1,-1l-2 0c-1,0 -1,0 -1,1l0 15c0,0 0,0 1,0l2 0zm11 -16c-1,0 -1,0 -1,1l0 15c0,0 0,0 1,0l15 0c1,0 1,0 1,0l0 -15c0,-1 -1,-1 -1,-1l-3 0c0,0 0,0 0,1l0 12c0,0 0,0 -1,0l-1 0c-1,0 -1,0 -1,0l0 -12c0,-1 0,-1 -1,-1l-2 0c0,0 -1,0 -1,1l0 12c0,0 0,0 0,0l-2 0c0,0 0,0 0,0l0 -12c0,-1 -1,-1 -1,-1l-2 0zm39 7c0,1 1,5 4,5 2,0 2,-1 3,-1 0,0 0,0 0,0l0 5c0,0 0,0 1,0l2 0c0,0 1,0 1,0l0 -15c0,-1 -1,-1 -1,-1l-2 0c-1,0 -1,0 -1,1l0 5c0,1 -1,2 -1,2 -2,0 -2,-1 -2,-2l0 -5c0,-1 0,-1 0,-1l-3 0c0,0 -1,0 -1,1l0 6zm17 -1c0,0 0,0 0,0l0 -1c0,0 0,-2 2,-2 1,0 1,2 1,2l0 1c0,0 0,0 0,0l-3 0zm6 3c1,0 1,0 1,0l0 -3c0,-6 -4,-6 -5,-6 -5,0 -6,4 -6,6l0 5c0,5 4,6 7,6 0,0 2,-1 3,-1 1,0 1,0 1,-1l0 -2c0,0 0,-1 -1,0 -1,0 -2,0 -3,0 -1,0 -3,0 -3,-2l0 -1c0,0 0,-1 0,-1l6 0zm7 -3c0,-1 0,-2 1,-2 2,0 2,1 2,2l0 5c0,1 0,2 -2,2 -1,0 -1,-1 -1,-2l0 -5zm-4 14c0,0 0,0 1,0l2 0c1,0 1,0 1,0l0 -4c0,0 0,0 0,0 1,0 1,1 3,1 4,0 4,-4 4,-6l0 -5c0,-2 0,-6 -4,-6 -2,0 -2,1 -3,1 0,0 0,0 0,0l0 0c0,0 0,-1 0,-1l-3 0c0,0 -1,0 -1,1l0 19zm17 -10c0,0 0,-1 0,-1l1 0c1,0 2,1 2,2 0,1 -1,2 -2,2l-1 0c0,0 0,0 0,0l0 -3zm0 -6c0,-1 0,-1 0,-1l1 0c1,0 1,1 1,2 0,1 0,1 -1,1l-1 0c0,0 0,0 0,0l0 -2zm-4 12c0,0 0,0 1,0l4 0c2,0 6,0 6,-5 0,-2 -1,-3 -2,-3 0,0 0,0 0,0 0,-1 0,-1 0,-1 0,0 1,-1 1,-3 0,-2 -1,-4 -4,-4l-5 0c0,0 -1,0 -1,1l0 15zm26 -12c0,0 0,0 0,0l0 2c0,1 0,1 0,1l-1 0c-2,0 -2,-1 -2,-2 0,0 0,-1 2,-1l1 0zm-2 -4c-4,0 -5,2 -5,5 0,3 2,3 2,4 0,0 0,0 0,0l-3 7c0,0 0,0 1,0l2 0c1,0 1,0 2,0l2 -6c0,0 0,0 0,0l1 0c0,0 0,0 0,0l0 6c0,0 0,0 1,0l2 0c0,0 1,0 1,0l0 -15c0,-1 -1,-1 -1,-1l-5 0zm11 16c1,0 1,0 1,0l0 -6c0,0 0,0 0,0l1 0c1,0 1,1 1,1l0 5c0,0 1,0 1,0l2 0c1,0 1,0 1,0l0 -5c0,-3 -2,-3 -2,-3 0,0 1,0 1,-1 0,0 0,-1 0,-1l0 -2c0,-1 1,-1 1,-1l0 0c0,0 1,0 1,0l0 -2c0,-1 -1,-1 -1,-1l-2 0c-2,0 -2,2 -2,3l0 2c0,1 -1,1 -1,1l-1 0c0,0 0,0 0,0l0 -5c0,-1 0,-1 -1,-1l-2 0c0,0 -1,0 -1,1l0 15c0,0 0,0 1,0l2 0zm-19 -12c0,0 0,0 0,-1l1 -6c0,-1 0,-1 -1,-1l-3 0c0,0 0,0 0,1l1 6c0,1 0,1 0,1l2 0zm-174 33c0,2 1,3 3,3 1,0 3,-1 3,-3 0,-1 -2,-2 -3,-2 -2,0 -3,1 -3,2zm59 0c0,2 1,3 2,3 2,0 3,-1 3,-3 0,-1 -1,-2 -3,-2 -1,0 -2,1 -2,2zm52 0c0,2 1,3 3,3 1,0 3,-1 3,-3 0,-1 -2,-2 -3,-2 -2,0 -3,1 -3,2zm-92 0c0,-1 0,-2 1,-2 1,0 2,1 2,2l0 6c0,0 -1,1 -2,1 -1,0 -1,-1 -1,-1l0 -6zm-4 14c0,0 0,1 1,1l2 0c0,0 1,0 1,-1l0 -4c0,0 0,0 0,0 0,0 1,1 3,1 3,0 3,-3 3,-5l0 -6c0,-2 0,-5 -3,-5 -2,0 -3,1 -3,1 0,0 0,0 0,-1l0 0c0,0 0,0 -1,0l-2 0c-1,0 -1,0 -1,1l0 18zm16 -3c0,0 1,0 1,-1l2 -7c0,0 1,0 1,0 0,0 0,0 0,0l0 7c0,1 0,1 1,1l2 0c0,0 1,0 1,-1l0 -14c0,-1 -1,-1 -1,-1l-3 0c0,0 0,0 -1,1l-2 6c0,0 0,0 0,0 0,0 0,0 0,0l0 -6c0,-1 -1,-1 -1,-1l-2 0c-1,0 -1,0 -1,1l0 14c0,0 0,1 1,1l2 0zm14 -10c0,-1 0,-3 2,-3 1,0 1,1 2,1 1,0 1,-1 1,-1l0 -2c0,-1 0,-1 -4,-1 -5,0 -5,3 -5,5l0 5c0,2 0,6 5,6 4,0 4,-1 4,-1l0 -2c0,-1 0,-1 -1,-1 0,0 0,0 -1,0 -1,0 -1,0 -1,0 -2,0 -2,-1 -2,-2l0 -4zm25 10c0,0 1,0 1,-1l0 -6c0,0 0,0 0,0l1 0c1,0 1,1 1,2l0 4c0,1 1,1 1,1l2 0c1,0 1,0 1,-1l0 -5c0,-2 -2,-2 -2,-3 0,0 0,0 1,0 0,-1 0,-1 0,-2l0 -2c0,0 0,0 1,0l0 0c0,0 0,0 0,-1l0 -1c0,-1 0,-1 0,-1l-2 0c-2,0 -3,2 -3,3l0 1c0,2 0,2 -1,2l0 0c0,0 0,0 0,-1l0 -4c0,-1 -1,-1 -1,-1l-2 0c-1,0 -1,0 -1,1l0 14c0,0 0,1 1,1l2 0zm9 -16c-1,0 -1,0 -1,1l4 14c0,1 0,2 -1,2 0,0 -1,0 -1,-1 0,0 0,0 -1,0 0,0 0,1 0,1l0 2c0,0 0,1 3,1 4,0 4,-2 5,-5l3 -14c0,-1 0,-1 -1,-1l-2 0c-1,0 -1,0 -1,1l-1 6c0,1 0,1 -1,1 0,0 0,0 0,-1l-1 -6c-1,-1 -1,-1 -1,-1l-3 0zm15 16c1,0 1,0 1,-1l0 -6c0,0 0,0 1,0l0 0c1,0 2,1 2,2l0 4c0,1 0,1 0,1l3 0c0,0 0,0 0,-1l0 -5c0,-2 -1,-2 -1,-3 0,0 0,0 0,0 0,-1 1,-1 1,-2l0 -2c0,0 0,0 0,0l0 0c0,0 1,0 1,-1l0 -1c0,-1 -1,-1 -1,-1l-1 0c-3,0 -3,2 -3,3l0 1c0,2 -1,2 -1,2l0 0c-1,0 -1,0 -1,-1l0 -4c0,-1 0,-1 -1,-1l-2 0c0,0 -1,0 -1,1l0 14c0,0 0,1 1,1l2 0zm36 -7c0,-1 0,-1 0,-1 0,0 0,0 0,1l1 2c0,1 0,1 1,1l0 0c1,0 1,0 1,-1l2 -2c0,0 0,-1 0,-1 0,0 0,1 0,1l0 6c0,1 0,1 1,1l2 0c1,0 1,-1 1,-1l0 -14c0,-1 -1,-1 -1,-1l-2 0c-1,0 -1,0 -1,0l-3 6c0,0 0,0 0,0 0,0 0,0 0,0l-2 -6c-1,0 -1,0 -1,0l-2 0c-1,0 -1,0 -1,1l0 14c0,0 0,1 1,1l2 0c0,0 1,0 1,-1l0 -6zm17 2c0,1 0,2 -1,2 -1,0 -1,-1 -1,-2 0,-2 0,-2 1,-3l1 0c0,0 0,0 0,0l0 3zm4 -7c0,-2 0,-4 -5,-4 -4,0 -5,1 -5,1l0 2c0,0 1,0 1,0 0,0 1,0 1,0 1,0 2,0 2,0 1,0 2,0 2,1 0,0 0,0 0,0l-1 0c-2,1 -5,3 -5,7 0,3 1,5 3,5 1,0 2,0 3,-1 0,0 0,0 0,0 0,0 0,0 0,0 0,1 0,1 1,1l2 0c1,0 1,-1 1,-1l0 0 0 -11zm6 2c0,-1 0,-3 2,-3 1,0 2,1 3,1 0,0 0,-1 0,-1l0 -2c0,-1 0,-1 -3,-1 -5,0 -6,3 -6,5l0 5c0,2 0,6 6,6 3,0 3,-1 3,-1l0 -2c0,-1 0,-1 0,-1 -1,0 -1,0 -1,0 -1,0 -1,0 -2,0 -2,0 -2,-1 -2,-2l0 -4zm13 -2c0,-1 0,-1 1,-1l2 0c0,0 0,0 0,-1l0 -1c0,-1 0,-1 0,-1l-9 0c-1,0 -1,0 -1,1l0 1c0,1 0,1 1,1l2 0c0,0 0,0 0,1l0 11c0,1 1,1 1,1l2 0c1,0 1,0 1,-1l0 -11zm8 12c0,0 1,0 1,-1l2 -7c0,0 1,0 1,0 0,0 0,0 0,0l0 7c0,1 0,1 1,1l2 0c0,0 1,0 1,-1l0 -14c0,-1 -1,-1 -1,-1l-3 0c0,0 0,0 -1,1l-2 6c0,0 0,0 0,0 0,0 0,0 0,0l0 -6c0,-1 -1,-1 -1,-1l-2 0c-1,0 -1,0 -1,1l0 14c0,0 0,1 1,1l2 0zm13 0c0,0 1,0 1,-1l0 -6c0,0 0,0 0,0l1 0c1,0 1,1 1,2l0 4c0,1 1,1 1,1l2 0c1,0 1,0 1,-1l0 -5c0,-2 -2,-2 -2,-3 0,0 0,0 1,0 0,-1 0,-1 0,-2l0 -2c0,0 0,0 1,0l0 0c0,0 0,0 0,-1l0 -1c0,-1 0,-1 0,-1l-2 0c-2,0 -3,2 -3,3l0 1c0,2 0,2 -1,2l0 0c0,0 0,0 0,-1l0 -4c0,-1 -1,-1 -1,-1l-2 0c-1,0 -1,0 -1,1l0 14c0,0 0,1 1,1l2 0zm16 -5c0,1 -1,2 -2,2 -1,0 -1,-1 -1,-2 0,-2 1,-2 2,-3l0 0c0,0 1,0 1,0l0 3zm4 -7c0,-2 -1,-4 -6,-4 -4,0 -4,1 -4,1l0 2c0,0 0,0 1,0 0,0 0,0 1,0 1,0 1,0 2,0 1,0 2,0 2,1 0,0 0,0 -1,0l0 0c-3,1 -6,3 -6,7 0,3 2,5 4,5 1,0 2,0 2,-1 0,0 0,0 1,0 0,0 0,0 0,0 0,1 0,1 0,1l3 0c0,0 1,-1 1,-1l0 0 0 -11zm-192 32c0,0 0,-1 1,-1 1,0 2,1 2,1l0 6c0,1 -1,2 -2,2 -1,0 -1,-1 -1,-2l0 -6zm-4 15c0,0 0,0 1,0l2 0c0,0 1,0 1,0l0 -4c0,0 0,0 0,0 0,0 1,0 3,0 3,0 3,-3 3,-5l0 -6c0,-1 0,-5 -3,-5 -2,0 -3,1 -3,1 0,0 0,0 0,0l0 0c0,-1 0,-1 -1,-1l-2 0c-1,0 -1,0 -1,1l0 19zm17 -19c0,-1 -1,-1 -1,-1l-2 0c-1,0 -1,0 -1,1l0 14c0,1 0,1 1,1l2 0c0,0 1,0 1,-1l0 -14zm0 -5c0,0 -1,0 -1,0l-2 0c-1,0 -1,0 -1,0l0 2c0,1 0,1 1,1l2 0c1,0 1,0 1,-1l0 -2zm2 12c0,1 0,1 1,1l1 0c2,0 2,2 2,2 0,1 0,2 -2,2 -1,0 0,0 -2,0 0,0 0,0 0,0l0 2c0,1 0,1 3,1 5,0 6,-3 6,-5 0,-2 -1,-3 -2,-3 0,0 -1,0 -1,-1 0,0 1,0 1,0 0,-1 1,-1 1,-3 0,-2 -1,-4 -5,-4 -1,0 -2,0 -3,0 0,1 0,1 0,1l0 2c0,0 0,0 0,0 0,0 0,0 1,0 0,0 1,0 1,0 2,0 2,1 2,2 0,0 0,1 -2,1l-1 0c-1,0 -1,1 -1,1l0 1zm10 7c0,1 1,1 1,1l3 0c0,0 0,0 0,-1l0 -5c0,-1 1,-1 1,-1l2 0c0,0 0,0 0,1l0 5c0,1 1,1 1,1l2 0c1,0 1,0 1,-1l0 -14c0,-1 0,-1 -1,-1l-2 0c0,0 -1,0 -1,1l0 5c0,0 0,0 0,0l-2 0c0,0 -1,0 -1,0l0 -5c0,-1 0,-1 0,-1l-3 0c0,0 -1,0 -1,1l0 14zm17 -14c0,-1 0,-1 -1,-1l-2 0c0,0 -1,0 -1,1l0 14c0,1 0,1 1,1l2 0c1,0 1,0 1,-1l0 -14zm0 -5c0,0 0,0 -1,0l-2 0c-1,0 -1,0 -1,0l0 2c0,1 0,1 1,1l2 0c1,0 1,0 1,-1l0 -2zm13 14c0,-1 0,-1 0,-1l1 0c1,0 2,1 2,2 0,1 -1,2 -2,2l-1 0c0,0 0,0 0,0l0 -3zm0 -6c0,-1 0,-1 0,-1l1 0c1,0 1,1 1,2 0,0 0,1 -1,1l-1 0c0,0 0,0 0,0l0 -2zm-4 11c0,1 0,1 1,1l4 0c2,0 6,0 6,-5 0,-2 -1,-3 -2,-3 0,0 0,-1 0,-1 0,0 0,0 0,0 0,0 1,-1 1,-3 0,-2 -1,-4 -4,-4l-5 0c0,0 -1,0 -1,1l0 14zm16 1c1,0 1,0 1,-1l3 -6c0,0 0,0 0,0 0,0 0,0 0,0l0 6c0,1 1,1 1,1l2 0c1,0 1,0 1,-1l0 -14c0,-1 0,-1 -1,-1l-2 0c0,0 -1,0 -1,1l-3 7c0,0 0,0 0,0 0,0 0,0 0,0l0 -7c0,-1 -1,-1 -1,-1l-2 0c0,0 -1,0 -1,1l0 14c0,1 0,1 1,1l2 0zm17 -12c0,0 0,0 0,0l0 9c0,0 0,0 0,0l-2 0c0,0 0,0 0,0 0,-1 0,0 1,-8l0 -1c0,0 0,0 0,0l1 0zm-4 -4c-1,0 -1,1 -1,1l0 1c0,6 -1,9 -1,10 0,0 0,1 -1,1l0 0c-1,0 -1,1 -1,1l0 5c0,0 1,1 1,1l2 0c1,0 1,-1 1,-1l0 -2c0,-1 0,-1 0,-1l6 0c0,0 0,0 0,1l0 2c0,0 0,1 1,1l2 0c0,0 1,-1 1,-1l0 -5c0,-1 -1,-1 -1,-1l0 0c-1,0 -1,0 -1,0l0 -12c0,-1 0,-1 -1,-1l-7 0zm14 16c1,0 1,0 1,-1l3 -6c0,0 0,0 0,0 0,0 0,0 0,0l0 6c0,1 1,1 1,1l2 0c0,0 1,0 1,-1l0 -14c0,-1 -1,-1 -1,-1l-2 0c-1,0 -1,0 -1,1l-3 7c0,0 0,0 0,0 0,0 0,0 0,0l0 -7c0,-1 -1,-1 -1,-1l-2 0c0,0 -1,0 -1,1l0 14c0,1 0,1 1,1l2 0z"/>
   </g>
   <g>
    <path class="fil0 str0" d="M137 179c0,0 0,0 0,0l4 0c1,0 1,-1 1,-1l0 -2c0,-1 -1,-1 -1,-1l-7 0c-1,0 -1,0 -1,1l0 14c0,1 0,1 1,1l2 0c0,0 1,0 1,-1l0 -11zm10 1c0,-1 1,-2 1,-2 1,0 2,1 2,2l0 6c0,2 -1,2 -2,2 0,0 -1,0 -1,-2l0 -6zm-4 6c0,2 1,5 5,5 5,0 6,-3 6,-5l0 -5c0,-2 -1,-6 -6,-6 -4,0 -5,4 -5,6l0 5zm20 -7c0,0 0,0 0,0l0 9c0,0 0,0 0,0l-2 0c-1,0 -1,0 -1,0 0,-1 1,0 1,-8l1 -1c0,0 0,0 0,0l1 0zm-4 -4c-1,0 -1,1 -1,1l0 1c0,6 -1,9 -1,10 0,0 0,1 -1,1l0 0c-1,0 -1,1 -1,1l0 5c0,0 0,1 1,1l2 0c0,0 1,-1 1,-1l0 -2c0,-1 0,-1 0,-1l5 0c1,0 1,0 1,1l0 2c0,0 0,1 1,1l2 0c0,0 0,-1 0,-1l0 -5c0,-1 0,-1 0,-1l-1 0c0,0 0,0 0,0l0 -12c0,-1 0,-1 -1,-1l-7 0zm15 1c0,-1 -1,-1 -1,-1l-2 0c-1,0 -1,0 -1,1l0 14c0,1 0,1 1,1l2 0c0,0 1,0 1,-1l0 -14zm0 -5c0,0 -1,0 -1,0l-2 0c-1,0 -1,0 -1,0l0 2c0,1 0,1 1,1l2 0c1,0 1,0 1,-1l0 -2zm6 14c0,-1 0,-1 0,-1l1 0c1,0 2,1 2,2 0,1 -1,2 -2,2l-1 0c0,0 0,0 0,0l0 -3zm0 -6c0,-1 0,-1 0,-1l1 0c1,0 1,1 1,2 0,0 0,1 -1,1l-1 0c0,0 0,0 0,0l0 -2zm-4 11c0,1 0,1 1,1l4 0c1,0 6,0 6,-5 0,-2 -1,-3 -2,-3 0,0 0,-1 0,-1 0,0 0,0 0,0 0,0 1,-1 1,-3 0,-2 -1,-4 -4,-4l-5 0c-1,0 -1,0 -1,1l0 14zm13 0c0,1 0,1 1,1l2 0c1,0 1,0 1,-1l0 -5c0,-1 0,-1 0,-1l2 0c1,0 1,0 1,1l0 5c0,1 0,1 0,1l3 0c1,0 1,0 1,-1l0 -14c0,-1 -1,-1 -1,-1l-3 0c0,0 0,0 0,1l0 5c0,0 0,0 -1,0l-2 0c0,0 0,0 0,0l0 -5c0,-1 0,-1 -1,-1l-2 0c-1,0 -1,0 -1,1l0 14zm16 1c0,0 1,0 1,-1l3 -6c0,0 0,0 0,0 0,0 0,0 0,0l0 6c0,1 0,1 1,1l2 0c0,0 1,0 1,-1l0 -14c0,-1 -1,-1 -1,-1l-2 0c-1,0 -1,0 -2,1l-2 7c0,0 0,0 0,0 0,0 0,0 0,0l0 -7c0,-1 -1,-1 -1,-1l-2 0c-1,0 -1,0 -1,1l0 14c0,1 0,1 1,1l2 0zm18 0c0,0 0,0 0,1l0 2c0,0 1,1 1,1l2 0c1,0 1,-1 1,-1l0 -5c0,-1 0,-1 -1,-1l0 0c-1,0 -1,0 -1,0l0 -12c0,-1 0,-1 0,-1l-3 0c0,0 0,0 0,1l0 12c0,0 -1,0 -1,0l-2 0c0,0 0,0 0,0l0 -12c0,-1 -1,-1 -1,-1l-2 0c-1,0 -1,0 -1,1l0 14c0,1 0,1 1,1l7 0zm9 -7c0,0 0,0 1,0l0 0c2,0 2,1 2,2 0,1 0,2 -2,2l0 0c-1,0 -1,0 -1,-1l0 -3zm1 7c5,0 7,-2 7,-5 0,-3 -3,-5 -6,-5l-1 0c-1,0 -1,-1 -1,-1l0 -4c0,-1 0,-1 -1,-1l-2 0c0,0 -1,0 -1,1l0 14c0,1 0,1 1,1l4 0zm-230 -10c0,1 1,3 3,3 1,0 3,-2 3,-3 0,-2 -2,-3 -3,-3 -2,0 -3,1 -3,3z"/>
    <path id="1" class="fil1" d="M137 179c0,0 0,0 0,0l4 0c1,0 1,-1 1,-1l0 -2c0,-1 -1,-1 -1,-1l-7 0c-1,0 -1,0 -1,1l0 14c0,1 0,1 1,1l2 0c0,0 1,0 1,-1l0 -11zm10 1c0,-1 1,-2 1,-2 1,0 2,1 2,2l0 6c0,2 -1,2 -2,2 0,0 -1,0 -1,-2l0 -6zm-4 6c0,2 1,5 5,5 5,0 6,-3 6,-5l0 -5c0,-2 -1,-6 -6,-6 -4,0 -5,4 -5,6l0 5zm20 -7c0,0 0,0 0,0l0 9c0,0 0,0 0,0l-2 0c-1,0 -1,0 -1,0 0,-1 1,0 1,-8l1 -1c0,0 0,0 0,0l1 0zm-4 -4c-1,0 -1,1 -1,1l0 1c0,6 -1,9 -1,10 0,0 0,1 -1,1l0 0c-1,0 -1,1 -1,1l0 5c0,0 0,1 1,1l2 0c0,0 1,-1 1,-1l0 -2c0,-1 0,-1 0,-1l5 0c1,0 1,0 1,1l0 2c0,0 0,1 1,1l2 0c0,0 0,-1 0,-1l0 -5c0,-1 0,-1 0,-1l-1 0c0,0 0,0 0,0l0 -12c0,-1 0,-1 -1,-1l-7 0zm15 1c0,-1 -1,-1 -1,-1l-2 0c-1,0 -1,0 -1,1l0 14c0,1 0,1 1,1l2 0c0,0 1,0 1,-1l0 -14zm0 -5c0,0 -1,0 -1,0l-2 0c-1,0 -1,0 -1,0l0 2c0,1 0,1 1,1l2 0c1,0 1,0 1,-1l0 -2zm6 14c0,-1 0,-1 0,-1l1 0c1,0 2,1 2,2 0,1 -1,2 -2,2l-1 0c0,0 0,0 0,0l0 -3zm0 -6c0,-1 0,-1 0,-1l1 0c1,0 1,1 1,2 0,0 0,1 -1,1l-1 0c0,0 0,0 0,0l0 -2zm-4 11c0,1 0,1 1,1l4 0c1,0 6,0 6,-5 0,-2 -1,-3 -2,-3 0,0 0,-1 0,-1 0,0 0,0 0,0 0,0 1,-1 1,-3 0,-2 -1,-4 -4,-4l-5 0c-1,0 -1,0 -1,1l0 14zm13 0c0,1 0,1 1,1l2 0c1,0 1,0 1,-1l0 -5c0,-1 0,-1 0,-1l2 0c1,0 1,0 1,1l0 5c0,1 0,1 0,1l3 0c1,0 1,0 1,-1l0 -14c0,-1 -1,-1 -1,-1l-3 0c0,0 0,0 0,1l0 5c0,0 0,0 -1,0l-2 0c0,0 0,0 0,0l0 -5c0,-1 0,-1 -1,-1l-2 0c-1,0 -1,0 -1,1l0 14zm16 1c0,0 1,0 1,-1l3 -6c0,0 0,0 0,0 0,0 0,0 0,0l0 6c0,1 0,1 1,1l2 0c0,0 1,0 1,-1l0 -14c0,-1 -1,-1 -1,-1l-2 0c-1,0 -1,0 -2,1l-2 7c0,0 0,0 0,0 0,0 0,0 0,0l0 -7c0,-1 -1,-1 -1,-1l-2 0c-1,0 -1,0 -1,1l0 14c0,1 0,1 1,1l2 0zm18 0c0,0 0,0 0,1l0 2c0,0 1,1 1,1l2 0c1,0 1,-1 1,-1l0 -5c0,-1 0,-1 -1,-1l0 0c-1,0 -1,0 -1,0l0 -12c0,-1 0,-1 0,-1l-3 0c0,0 0,0 0,1l0 12c0,0 -1,0 -1,0l-2 0c0,0 0,0 0,0l0 -12c0,-1 -1,-1 -1,-1l-2 0c-1,0 -1,0 -1,1l0 14c0,1 0,1 1,1l7 0zm9 -7c0,0 0,0 1,0l0 0c2,0 2,1 2,2 0,1 0,2 -2,2l0 0c-1,0 -1,0 -1,-1l0 -3zm1 7c5,0 7,-2 7,-5 0,-3 -3,-5 -6,-5l-1 0c-1,0 -1,-1 -1,-1l0 -4c0,-1 0,-1 -1,-1l-2 0c0,0 -1,0 -1,1l0 14c0,1 0,1 1,1l4 0zm-230 -10c0,1 1,3 3,3 1,0 3,-2 3,-3 0,-2 -2,-3 -3,-3 -2,0 -3,1 -3,3z"/>
   </g>
  </g>
  <g>
   <path class="fil0 str0" d="M15 19c0,1 0,1 0,1 0,0 0,1 0,1l4 6c0,1 0,1 1,1l3 0c1,0 1,0 1,-1l-3 -6c-1,-1 -1,-1 -1,-1 0,0 0,0 1,-1l3 -6c0,0 0,0 0,0 0,-1 0,-1 -1,-1l-3 0c-1,0 -1,0 -1,1l-4 6zm-9 0c0,1 0,1 0,1 0,0 0,1 0,1l4 6c0,1 0,1 1,1l3 0c1,0 1,0 1,-1l-4 -6c0,-1 0,-1 0,-1 0,0 0,0 0,-1l4 -6c0,0 0,0 0,0 0,-1 0,-1 -1,-1l-3 0c-1,0 -1,0 -1,1l-4 6zm29 -4c-1,0 -1,0 -1,0l0 -6c0,0 0,0 1,0l2 0c3,0 4,1 4,3 0,2 -2,3 -4,3l-2 0zm-6 -12c-1,0 -1,1 -1,2l0 26c0,2 1,2 1,2l4 0c0,0 1,0 1,-2l0 -9c0,-1 0,-1 1,-1l3 0c1,0 10,0 10,-9 0,-3 -1,-9 -11,-9l-8 0zm26 30c0,0 1,0 1,-1l4 -10c0,0 0,0 1,0 0,0 0,0 0,0l0 10c0,1 0,1 1,1l3 0c1,0 1,0 1,-1l0 -22c0,-1 0,-1 -1,-1l-3 0c-1,0 -1,0 -2,1l-4 10c0,0 0,1 0,1 0,0 0,-1 0,-1l0 -10c0,-1 -1,-1 -1,-1l-3 0c-1,0 -2,0 -2,1l0 22c0,0 0,1 2,1l3 0zm20 -16c0,-3 1,-3 2,-3 2,0 3,0 3,3l0 9c0,2 -1,2 -3,2 -1,0 -2,0 -2,-2l0 -9zm6 -14c-1,0 0,0 -1,1 0,0 0,0 -1,0 -9,2 -10,8 -10,13l0 8c0,3 1,8 8,8 8,0 9,-5 9,-8l0 -8c0,-1 0,-8 -8,-8 -2,0 -1,1 -3,1 0,0 0,0 0,-1 0,-1 3,-1 5,-1 3,-1 6,-1 6,-4 0,-1 -1,-1 -1,-1l-4 0zm13 13c0,-2 1,-2 3,-2 1,0 2,0 2,2l0 10c0,2 -1,2 -2,2 -2,0 -3,0 -3,-2l0 -10zm-6 9c0,3 1,8 9,8 7,0 8,-5 8,-8l0 -8c0,-3 -1,-8 -8,-8 -8,0 -9,5 -9,8l0 8zm24 -16c-2,0 -2,1 -2,1l0 8c0,7 0,10 -2,10l-1 0c0,0 -1,0 -1,1l0 3c0,1 1,1 2,1 7,0 8,-5 8,-15l0 -3c0,-1 0,-1 0,-1l2 0c1,0 1,1 1,1l0 17c0,1 0,1 1,1l3 0c1,0 1,-1 1,-1l0 -22c0,-1 0,-1 -1,-1l-11 0zm21 7c0,-2 2,-2 3,-2 1,0 2,0 2,2l0 10c0,2 -1,2 -2,2 -1,0 -3,0 -3,-2l0 -10zm-5 9c0,3 0,8 8,8 7,0 8,-5 8,-8l0 -8c0,-3 -1,-8 -8,-8 -8,0 -8,5 -8,8l0 8zm25 -2c0,0 0,-1 0,-1l1 0c2,0 3,2 3,3 0,2 -1,3 -3,3l-1 0c0,0 0,0 0,0l0 -5zm0 -9c0,0 0,0 0,0l1 0c1,0 2,1 2,2 0,1 -1,2 -2,2l-1 0c0,0 0,0 0,0l0 -4zm-6 18c0,0 0,1 1,1l7 0c1,0 8,0 8,-7 0,-3 -1,-5 -2,-6 -1,0 -1,0 -1,0 0,0 0,0 0,0 1,-1 2,-2 2,-5 0,-3 -2,-6 -7,-6l-7 0c0,0 -1,0 -1,1l0 22zm34 -1c0,1 0,2 1,2l3 0c1,0 2,0 2,-2l0 -26c0,-1 0,-2 -2,-2l-2 0c-1,0 -1,1 -2,2 -1,1 -3,1 -4,1l-1 0c-1,0 -1,1 -1,2l0 2c0,1 0,1 1,1l4 0c0,0 1,0 1,1l0 19zm15 -21c0,-1 1,-2 2,-2 1,0 2,1 2,2l0 2c0,2 -1,3 -2,3 -1,0 -2,-1 -2,-3l0 -2zm0 13c0,-2 1,-3 2,-3 1,0 2,0 2,3l0 2c0,1 0,3 -2,3 -1,0 -2,-1 -2,-3l0 -2zm-6 3c0,5 4,7 8,7 5,0 8,-2 8,-7l0 -3c0,-6 -2,-5 -2,-6 0,-1 2,-2 2,-5l0 -2c0,-7 -7,-7 -8,-7 -7,0 -8,6 -8,7l0 2c0,3 3,4 3,5 0,1 -3,0 -3,6l0 3zm30 0c0,1 -1,2 -3,2 -1,0 -2,-1 -2,-2l0 -6c0,-1 1,-2 2,-2 2,0 3,1 3,2l0 6zm-11 -2c0,3 1,9 8,9 6,0 9,-3 9,-8l0 -6c0,-5 -4,-6 -7,-6 0,0 -2,0 -2,0 -1,0 -1,1 -1,1 -1,0 -1,0 -1,-1l0 -1c0,-1 0,-4 4,-4 3,0 1,1 5,1 0,0 0,-1 0,-1l0 -3c0,-1 0,-2 -6,-2 -9,0 -9,6 -9,10l0 11zm29 -3c0,0 0,-1 0,-1 0,0 0,0 0,-1l-4 -6c0,-1 0,-1 -1,-1l-3 0c-1,0 -1,1 -1,1l4 6c0,1 0,1 0,1 0,0 0,0 0,1l-4 6c0,0 0,0 0,1 0,0 0,0 1,0l3 0c1,0 1,0 1,-1l4 -6zm10 0c0,0 0,-1 0,-1 0,0 0,0 0,-1l-4 -6c-1,-1 -1,-1 -2,-1l-3 0c-1,0 -1,1 0,1l3 6c0,1 0,1 0,1 0,0 0,0 0,1l-3 6c-1,0 -1,0 -1,1 0,0 1,0 1,0l3 0c1,0 1,0 2,-1l4 -6z"/>
   <path id="1" class="fil1" d="M15 19c0,1 0,1 0,1 0,0 0,1 0,1l4 6c0,1 0,1 1,1l3 0c1,0 1,0 1,-1l-3 -6c-1,-1 -1,-1 -1,-1 0,0 0,0 1,-1l3 -6c0,0 0,0 0,0 0,-1 0,-1 -1,-1l-3 0c-1,0 -1,0 -1,1l-4 6zm-9 0c0,1 0,1 0,1 0,0 0,1 0,1l4 6c0,1 0,1 1,1l3 0c1,0 1,0 1,-1l-4 -6c0,-1 0,-1 0,-1 0,0 0,0 0,-1l4 -6c0,0 0,0 0,0 0,-1 0,-1 -1,-1l-3 0c-1,0 -1,0 -1,1l-4 6zm29 -4c-1,0 -1,0 -1,0l0 -6c0,0 0,0 1,0l2 0c3,0 4,1 4,3 0,2 -2,3 -4,3l-2 0zm-6 -12c-1,0 -1,1 -1,2l0 26c0,2 1,2 1,2l4 0c0,0 1,0 1,-2l0 -9c0,-1 0,-1 1,-1l3 0c1,0 10,0 10,-9 0,-3 -1,-9 -11,-9l-8 0zm26 30c0,0 1,0 1,-1l4 -10c0,0 0,0 1,0 0,0 0,0 0,0l0 10c0,1 0,1 1,1l3 0c1,0 1,0 1,-1l0 -22c0,-1 0,-1 -1,-1l-3 0c-1,0 -1,0 -2,1l-4 10c0,0 0,1 0,1 0,0 0,-1 0,-1l0 -10c0,-1 -1,-1 -1,-1l-3 0c-1,0 -2,0 -2,1l0 22c0,0 0,1 2,1l3 0zm20 -16c0,-3 1,-3 2,-3 2,0 3,0 3,3l0 9c0,2 -1,2 -3,2 -1,0 -2,0 -2,-2l0 -9zm6 -14c-1,0 0,0 -1,1 0,0 0,0 -1,0 -9,2 -10,8 -10,13l0 8c0,3 1,8 8,8 8,0 9,-5 9,-8l0 -8c0,-1 0,-8 -8,-8 -2,0 -1,1 -3,1 0,0 0,0 0,-1 0,-1 3,-1 5,-1 3,-1 6,-1 6,-4 0,-1 -1,-1 -1,-1l-4 0zm13 13c0,-2 1,-2 3,-2 1,0 2,0 2,2l0 10c0,2 -1,2 -2,2 -2,0 -3,0 -3,-2l0 -10zm-6 9c0,3 1,8 9,8 7,0 8,-5 8,-8l0 -8c0,-3 -1,-8 -8,-8 -8,0 -9,5 -9,8l0 8zm24 -16c-2,0 -2,1 -2,1l0 8c0,7 0,10 -2,10l-1 0c0,0 -1,0 -1,1l0 3c0,1 1,1 2,1 7,0 8,-5 8,-15l0 -3c0,-1 0,-1 0,-1l2 0c1,0 1,1 1,1l0 17c0,1 0,1 1,1l3 0c1,0 1,-1 1,-1l0 -22c0,-1 0,-1 -1,-1l-11 0zm21 7c0,-2 2,-2 3,-2 1,0 2,0 2,2l0 10c0,2 -1,2 -2,2 -1,0 -3,0 -3,-2l0 -10zm-5 9c0,3 0,8 8,8 7,0 8,-5 8,-8l0 -8c0,-3 -1,-8 -8,-8 -8,0 -8,5 -8,8l0 8zm25 -2c0,0 0,-1 0,-1l1 0c2,0 3,2 3,3 0,2 -1,3 -3,3l-1 0c0,0 0,0 0,0l0 -5zm0 -9c0,0 0,0 0,0l1 0c1,0 2,1 2,2 0,1 -1,2 -2,2l-1 0c0,0 0,0 0,0l0 -4zm-6 18c0,0 0,1 1,1l7 0c1,0 8,0 8,-7 0,-3 -1,-5 -2,-6 -1,0 -1,0 -1,0 0,0 0,0 0,0 1,-1 2,-2 2,-5 0,-3 -2,-6 -7,-6l-7 0c0,0 -1,0 -1,1l0 22zm34 -1c0,1 0,2 1,2l3 0c1,0 2,0 2,-2l0 -26c0,-1 0,-2 -2,-2l-2 0c-1,0 -1,1 -2,2 -1,1 -3,1 -4,1l-1 0c-1,0 -1,1 -1,2l0 2c0,1 0,1 1,1l4 0c0,0 1,0 1,1l0 19zm15 -21c0,-1 1,-2 2,-2 1,0 2,1 2,2l0 2c0,2 -1,3 -2,3 -1,0 -2,-1 -2,-3l0 -2zm0 13c0,-2 1,-3 2,-3 1,0 2,0 2,3l0 2c0,1 0,3 -2,3 -1,0 -2,-1 -2,-3l0 -2zm-6 3c0,5 4,7 8,7 5,0 8,-2 8,-7l0 -3c0,-6 -2,-5 -2,-6 0,-1 2,-2 2,-5l0 -2c0,-7 -7,-7 -8,-7 -7,0 -8,6 -8,7l0 2c0,3 3,4 3,5 0,1 -3,0 -3,6l0 3zm30 0c0,1 -1,2 -3,2 -1,0 -2,-1 -2,-2l0 -6c0,-1 1,-2 2,-2 2,0 3,1 3,2l0 6zm-11 -2c0,3 1,9 8,9 6,0 9,-3 9,-8l0 -6c0,-5 -4,-6 -7,-6 0,0 -2,0 -2,0 -1,0 -1,1 -1,1 -1,0 -1,0 -1,-1l0 -1c0,-1 0,-4 4,-4 3,0 1,1 5,1 0,0 0,-1 0,-1l0 -3c0,-1 0,-2 -6,-2 -9,0 -9,6 -9,10l0 11zm29 -3c0,0 0,-1 0,-1 0,0 0,0 0,-1l-4 -6c0,-1 0,-1 -1,-1l-3 0c-1,0 -1,1 -1,1l4 6c0,1 0,1 0,1 0,0 0,0 0,1l-4 6c0,0 0,0 0,1 0,0 0,0 1,0l3 0c1,0 1,0 1,-1l4 -6zm10 0c0,0 0,-1 0,-1 0,0 0,0 0,-1l-4 -6c-1,-1 -1,-1 -2,-1l-3 0c-1,0 -1,1 0,1l3 6c0,1 0,1 0,1 0,0 0,0 0,1l-3 6c-1,0 -1,0 -1,1 0,0 1,0 1,0l3 0c1,0 1,0 2,-1l4 -6z"/>
  </g>
  <g>
   <g>
    <path class="fil0 str0" d="M8 51c0,-1 0,-1 -1,-1l-2 0c-1,0 -1,0 -1,1l0 18c0,1 1,1 1,1l9 0c0,0 0,0 0,0l0 3c0,0 0,1 1,1l3 0c0,0 1,0 1,-1l0 -6c0,-1 -1,-1 -1,-1l-1 0c0,0 0,0 0,0l0 -15c0,-1 -1,-1 -1,-1l-3 0c-1,0 -1,0 -1,1l0 15c0,0 0,0 0,0l-3 0c-1,0 -1,0 -1,0l0 -15zm16 4c0,-1 -1,-1 -1,-1l-2 0c-1,0 -1,0 -1,1l0 14c0,1 0,1 1,1l2 0c0,0 1,0 1,-1l0 -14zm0 -5c0,0 -1,0 -1,0l-2 0c-1,0 -1,0 -1,0l0 2c0,0 0,1 1,1l2 0c1,0 1,-1 1,-1l0 -2zm5 4c-1,0 -1,0 -1,1l0 5c0,5 -1,7 -2,7l0 0c-1,0 -1,0 -1,1l0 2c0,0 1,0 1,0 5,0 5,-3 5,-10l1 -2c0,0 0,-1 0,-1l1 0c0,0 0,1 0,1l0 11c0,1 1,1 1,1l3 0c0,0 0,0 0,-1l0 -14c0,-1 0,-1 0,-1l-8 0zm14 5c0,-2 1,-2 2,-2 1,0 1,0 1,2l0 6c0,2 0,2 -1,2 -1,0 -2,0 -2,-2l0 -6zm-4 5c0,3 1,6 6,6 5,0 5,-3 5,-6l0 -4c0,-3 0,-6 -5,-6 -5,0 -6,3 -6,6l0 4zm20 -7c1,0 1,0 1,1l0 8c0,1 0,1 -1,1l-2 0c0,0 0,0 0,0 0,-1 0,-1 1,-8l0 -1c0,-1 0,-1 0,-1l1 0zm-4 -3c-1,0 -1,0 -1,1l0 1c0,5 0,9 -1,9 0,1 0,2 -1,2l0 0c-1,0 -1,0 -1,1l0 5c0,0 1,0 1,0l2 0c1,0 1,0 1,0l0 -3c0,0 0,0 1,0l5 0c0,0 0,0 0,0l0 3c0,0 0,0 1,0l2 0c0,0 1,0 1,0l0 -5c0,-1 -1,-1 -1,-1l0 0c-1,0 -1,0 -1,-1l0 -11c0,-1 0,-1 0,-1l-8 0zm15 5c0,-2 1,-2 2,-2 0,0 1,0 1,2l0 6c0,2 -1,2 -1,2 -1,0 -2,0 -2,-2l0 -6zm-4 5c0,3 1,6 6,6 4,0 5,-3 5,-6l0 -4c0,-3 -1,-6 -5,-6 -5,0 -6,3 -6,6l0 4zm17 -5c0,-1 1,-2 1,-2 1,0 2,1 2,2l0 6c0,2 -1,2 -2,2 0,0 -1,0 -1,-2l0 -6zm4 -9c-1,0 0,0 -1,0 0,0 0,1 -1,1 -6,1 -6,5 -6,8l0 5c0,3 1,6 5,6 5,0 6,-3 6,-6l0 -4c0,-1 0,-6 -5,-6 -2,0 -1,0 -2,0 0,0 0,0 0,0 0,-1 2,-1 3,-1 2,0 4,0 4,-3 0,0 0,0 -1,0l-2 0zm9 9c0,-2 1,-2 1,-2 1,0 2,0 2,2l0 6c0,2 -1,2 -2,2 0,0 -1,0 -1,-2l0 -6zm-4 5c0,3 0,6 5,6 5,0 6,-3 6,-6l0 -4c0,-3 -1,-6 -6,-6 -5,0 -5,3 -5,6l0 4zm17 -1c0,0 0,0 0,0l1 0c1,0 2,1 2,2 0,1 -1,2 -2,2l-1 0c0,0 0,0 0,0l0 -4zm0 -6c0,0 0,0 0,0l1 0c0,0 1,1 1,2 0,0 0,1 -1,1l-1 0c0,0 0,0 0,0l0 -3zm-4 12c0,0 0,1 1,1l4 0c1,0 6,0 6,-5 0,-2 -1,-3 -2,-3 0,-1 0,-1 -1,-1 0,0 0,0 1,0 0,0 1,-1 1,-3 0,-2 -1,-4 -4,-4l-5 0c-1,0 -1,0 -1,1l0 14zm16 1c0,0 1,0 1,-1l3 -6c0,-1 0,-1 0,-1 0,0 0,0 0,1l0 6c0,1 0,1 1,1l2 0c0,0 1,0 1,-1l0 -14c0,-1 -1,-1 -1,-1l-2 0c-1,0 -1,0 -1,1l-3 7c0,0 0,0 0,0 0,0 0,0 0,-1l0 -6c0,-1 -1,-1 -1,-1l-2 0c-1,0 -1,0 -1,1l0 14c0,1 0,1 1,1l2 0zm13 0c0,0 1,0 1,-1l3 -6c0,-1 0,-1 0,-1 0,0 0,0 0,1l0 6c0,1 0,1 1,1l2 0c0,0 1,0 1,-1l0 -14c0,-1 -1,-1 -1,-1l-2 0c-1,0 -1,0 -1,1l-3 7c0,0 0,0 0,0 0,0 0,0 0,-1l0 -6c0,-1 -1,-1 -1,-1l-2 0c-1,0 -1,0 -1,1l0 14c0,1 0,1 1,1l2 0zm4 -17c1,0 2,-1 2,-2l0 0c0,-1 0,-1 0,-1l-2 0c0,0 0,0 0,1l0 0c0,0 -1,0 -1,0l-1 0c-1,0 -1,0 -1,0l0 0c0,-1 0,-1 -1,-1l-1 0c0,0 0,0 0,1l0 0c0,1 0,2 1,2l4 0zm19 13c0,0 -1,1 -1,1 -1,0 -2,-1 -2,-2 0,-2 1,-2 2,-3l1 0c0,0 0,0 0,0l0 4zm4 -8c0,-2 -1,-4 -6,-4 -3,0 -4,1 -4,1l0 2c0,0 0,1 1,1 0,0 0,-1 1,-1 1,0 1,0 2,0 1,0 2,0 2,1 0,0 0,0 0,0l-1 1c-2,1 -6,2 -6,6 0,4 2,5 4,5 1,0 2,0 3,-1 0,0 0,0 0,0 0,0 0,0 0,1 0,0 0,0 1,0l2 0c1,0 1,0 1,-1l0 0 0 -11zm6 5c0,0 0,0 0,0l1 0c1,0 2,1 2,2 0,1 -1,2 -2,2l-1 0c0,0 0,0 0,0l0 -4zm0 -6c0,0 0,0 0,0l1 0c1,0 1,1 1,2 0,0 0,1 -1,1l-1 0c0,0 0,0 0,0l0 -3zm-4 12c0,0 0,1 1,1l4 0c2,0 6,0 6,-5 0,-2 -1,-3 -2,-3 0,-1 0,-1 0,-1 0,0 0,0 0,0 0,0 1,-1 1,-3 0,-2 -1,-4 -4,-4l-5 0c0,0 -1,0 -1,1l0 14zm19 -11c0,-1 0,-1 1,-1l2 0c1,0 1,0 1,0l0 -2c0,-1 -1,-1 -1,-1l-9 0c0,0 -1,0 -1,1l0 2c0,0 1,0 1,0l2 0c0,0 0,0 0,1l0 11c0,1 1,1 1,1l2 0c1,0 1,0 1,-1l0 -11zm9 1c0,-2 0,-2 1,-2 1,0 2,0 2,2l0 6c0,2 -1,2 -2,2 -1,0 -1,0 -1,-2l0 -6zm-4 5c0,3 0,6 5,6 5,0 6,-3 6,-6l0 -4c0,-3 -1,-6 -6,-6 -5,0 -5,3 -5,6l0 4zm16 -1c0,0 0,0 1,0 0,0 0,0 0,0l1 3c0,0 0,0 1,0l0 0c1,0 1,0 1,0l1 -3c0,0 0,0 1,0 0,0 0,0 0,0l0 6c0,1 0,1 0,1l3 0c0,0 0,0 0,-1l0 -14c0,-1 0,-1 0,-1l-3 0c0,0 0,0 0,1l-3 5c0,0 0,1 0,1 0,0 0,-1 0,-1l-3 -5c0,-1 0,-1 0,-1l-3 0c0,0 0,0 0,1l0 14c0,1 0,1 0,1l3 0c0,0 0,0 0,-1l0 -6zm18 3c0,0 -1,1 -1,1 -1,0 -2,-1 -2,-2 0,-2 1,-2 2,-3l1 0c0,0 0,0 0,0l0 4zm4 -8c0,-2 -1,-4 -5,-4 -4,0 -5,1 -5,1l0 2c0,0 1,1 1,1 0,0 0,-1 1,-1 1,0 1,0 2,0 1,0 2,0 2,1 0,0 0,0 0,0l-1 1c-2,1 -6,2 -6,6 0,4 2,5 4,5 1,0 2,0 3,-1 0,0 0,0 0,0 0,0 0,0 0,1 0,0 0,0 1,0l2 0c1,0 1,0 1,-1l0 0 0 -11zm8 0c0,-1 0,-1 1,-1l2 0c1,0 1,0 1,0l0 -2c0,-1 -1,-1 -1,-1l-9 0c0,0 -1,0 -1,1l0 2c0,0 1,0 1,0l2 0c0,0 0,0 0,1l0 11c0,1 1,1 1,1l3 0c0,0 0,0 0,-1l0 -11zm-228 33c0,0 0,1 0,1l1 0c2,0 2,1 2,1 0,1 0,2 -2,2 -1,0 0,0 -2,0 0,0 0,0 0,0l0 2c0,1 0,2 3,2 5,0 6,-3 6,-5 0,-2 -1,-3 -2,-4 0,0 -1,0 -1,0 0,0 1,-1 1,-1 1,0 1,-1 1,-3 0,-2 -1,-4 -5,-4 -1,0 -2,0 -3,1 0,0 0,0 0,0l0 2c0,0 0,1 0,1 0,0 1,0 1,0 0,-1 1,-1 1,-1 2,0 2,1 2,2 0,1 0,1 -2,1l-1 0c0,0 0,1 0,1l0 2zm16 7c0,0 0,0 1,0l2 0c1,0 1,0 1,0l0 -6c0,0 0,0 1,0l2 0c0,0 0,0 0,0l0 6c0,0 0,0 1,0l2 0c1,0 1,0 1,0l0 -15c0,0 -1,0 -1,0l-2 0c-1,0 -1,0 -1,0l0 5c0,0 0,0 0,0l-2 0c-1,0 -1,0 -1,0l0 -5c0,0 0,0 -1,0l-2 0c0,0 -1,0 -1,0l0 15zm19 -4c0,1 0,1 -1,1 -1,0 -1,-1 -1,-2 0,-1 0,-2 1,-2l1 -1c0,0 0,0 0,1l0 3zm4 -7c0,-2 0,-5 -5,-5 -4,0 -4,1 -4,2l0 2c0,0 0,0 0,0 0,0 1,0 2,0 0,0 1,-1 1,-1 1,0 2,1 2,1 0,1 0,1 0,1l-1 0c-2,1 -5,2 -5,7 0,3 2,5 4,5 0,0 1,-1 2,-1 0,0 0,0 0,0 0,0 0,0 0,0 0,0 0,0 1,0l2 0c1,0 1,0 1,0l0 -1 0 -10zm12 11c0,0 1,0 1,0l0 -6c0,0 0,0 0,0l1 0c1,0 1,1 1,2l0 4c0,0 1,0 1,0l2 0c1,0 1,0 1,0l0 -5c0,-3 -2,-2 -2,-3 0,0 1,0 1,-1 0,0 0,0 0,-1l0 -2c0,-1 0,-1 1,-1l0 0c0,0 0,0 0,0l0 -2c0,0 0,0 0,0l-2 0c-1,0 -3,1 -3,2l0 2c0,1 0,2 -1,2l0 0c0,0 0,-1 0,-1l0 -5c0,0 -1,0 -1,0l-2 0c-1,0 -1,0 -1,0l0 5c0,0 0,1 0,1l-1 0c0,0 -1,-1 -1,-2l0 -2c0,-1 -1,-2 -2,-2l-2 0c0,0 -1,0 -1,0l0 2c0,0 1,0 1,0l0 0c0,0 1,0 1,1l0 2c0,1 0,1 0,1 0,1 1,1 1,1 0,1 -2,0 -2,3l0 5c0,0 0,0 0,0l3 0c0,0 1,0 1,0l0 -4c0,-1 0,-2 1,-2l1 0c0,0 0,0 0,0l0 6c0,0 0,0 1,0l2 0zm13 0c0,0 0,0 1,0l2 -7c0,0 0,0 0,0 0,0 1,0 1,0l0 7c0,0 0,0 0,0l2 0c1,0 1,0 1,0l0 -15c0,0 0,0 -1,0l-2 0c0,0 -1,0 -1,0l-2 7c0,0 -1,0 -1,0 0,0 0,0 0,0l0 -7c0,0 0,0 -1,0l-2 0c0,0 -1,0 -1,0l0 15c0,0 1,0 1,0l3 0zm13 -6c0,0 0,-1 1,-1l0 0c2,0 2,1 2,2 0,1 0,2 -2,2l0 0c0,0 -1,0 -1,0l0 -3zm0 -6c0,0 1,0 1,0l0 0c1,0 2,0 2,1 0,1 -1,1 -2,1l0 0c0,0 -1,0 -1,0l0 -2zm-3 12c0,0 0,0 0,0l5 0c1,0 6,0 6,-4 0,-2 -1,-3 -2,-4 0,0 -1,0 -1,0 0,0 0,0 0,0 1,-1 2,-2 2,-4 0,-2 -1,-3 -5,-3l-5 0c0,0 0,0 0,0l0 15zm16 0c0,0 0,0 0,0l0 -6c0,0 0,0 1,0l0 0c2,0 2,1 2,2l0 4c0,0 0,0 1,0l2 0c0,0 1,0 1,0l0 -5c0,-2 -2,-3 -2,-3 0,0 0,0 0,-1 1,0 1,-1 1,-1l0 -2c0,-1 0,-1 0,-1l1 0c0,0 0,0 0,0l0 -2c0,0 0,0 -1,0l-1 0c-3,0 -3,2 -3,2l0 2c0,1 -1,2 -1,2l0 0c-1,0 -1,-1 -1,-1l0 -5c0,0 0,0 0,0l-3 0c0,0 0,0 0,0l0 15c0,0 0,0 0,0l3 0zm15 -4c0,1 0,1 -1,1 -1,0 -1,-1 -1,-2 0,-1 1,-2 2,-2l0 -1c0,0 0,0 0,1l0 3zm4 -7c0,-2 0,-5 -5,-5 -4,0 -4,1 -4,2l0 2c0,0 0,0 0,0 1,0 1,0 2,0 0,0 1,-1 2,-1 0,0 1,1 1,1 0,1 0,1 0,1l-1 0c-2,1 -5,2 -5,7 0,3 2,5 4,5 1,0 1,-1 2,-1 0,0 0,0 0,0 1,0 1,0 1,0 0,0 0,0 0,0l2 0c1,0 1,0 1,0l0 -1 0 -10zm6 4c0,0 0,0 0,0 1,0 1,0 1,0l1 3c0,0 0,1 1,1l0 0c1,0 1,-1 1,-1l1 -3c0,0 0,0 1,0 0,0 0,0 0,0l0 7c0,0 0,0 0,0l3 0c0,0 0,0 0,0l0 -15c0,0 0,0 0,0l-3 0c0,0 0,0 0,0l-3 6c0,0 0,0 0,0 0,0 0,0 0,0l-3 -6c0,0 0,0 0,0l-3 0c0,0 0,0 0,0l0 15c0,0 0,0 0,0l3 0c0,0 0,0 0,0l0 -7zm15 7c0,0 1,0 1,0l2 -7c0,0 0,0 1,0 0,0 0,0 0,0l0 7c0,0 0,0 1,0l2 0c0,0 0,0 0,0l0 -15c0,0 0,0 0,0l-3 0c0,0 0,0 -1,0l-2 7c0,0 0,0 0,0 -1,0 -1,0 -1,0l0 -7c0,0 0,0 0,0l-3 0c0,0 0,0 0,0l0 15c0,0 0,0 0,0l3 0zm23 -12c1,0 1,0 1,0l0 9c0,0 0,0 -1,0l-2 0c0,0 0,0 0,0 0,-1 0,0 1,-8l0 -1c0,0 0,0 0,0l1 0zm-4 -3c-1,0 -1,0 -1,0l0 1c0,6 0,9 -1,10 0,1 0,1 -1,1l0 0c-1,0 -1,1 -1,1l0 5c0,1 1,1 1,1l2 0c1,0 1,0 1,-1l0 -2c0,0 0,-1 1,-1l5 0c0,0 0,1 0,1l0 2c0,0 0,1 1,1l2 0c0,0 1,0 1,-1l0 -5c0,-1 -1,-1 -1,-1l0 0c-1,0 -1,0 -1,0l0 -12c0,0 0,0 0,0l-8 0zm14 0c-1,0 -1,0 -1,0l0 5c0,5 0,7 -2,7l0 0c0,0 -1,0 -1,1l0 2c0,1 1,1 2,1 4,0 5,-4 5,-10l0 -3c0,0 0,0 0,0l1 0c1,0 1,0 1,0l0 12c0,0 0,0 1,0l2 0c1,0 1,0 1,0l0 -15c0,0 -1,0 -1,0l-8 0zm18 3c0,0 0,0 0,0l0 3c0,0 0,0 0,0l-1 0c-2,0 -2,-1 -2,-2 0,0 0,-1 2,-1l1 0zm-2 -3c-4,0 -5,2 -5,4 0,4 2,3 2,4 0,0 0,0 0,0l-3 7c0,0 0,0 1,0l2 0c1,0 1,0 2,0l2 -6c0,0 0,0 0,0l1 0c0,0 0,0 0,0l0 6c0,0 0,0 1,0l2 0c0,0 1,0 1,0l0 -15c0,0 -1,0 -1,0l-5 0zm19 5c0,-1 0,-2 1,-2 1,0 2,1 2,2l0 5c0,1 -1,2 -2,2 -1,0 -1,-1 -1,-2l0 -5zm-4 14c0,0 0,1 1,1l2 0c0,0 1,0 1,-1l0 -4c0,0 0,0 0,0 0,0 1,1 3,1 3,0 3,-4 3,-6l0 -5c0,-2 0,-6 -3,-6 -2,0 -3,1 -3,1 0,0 0,0 0,0l0 0c0,0 0,0 -1,0l-2 0c-1,0 -1,0 -1,0l0 19zm16 -4c0,0 1,0 1,0l2 -7c0,0 1,0 1,0 0,0 0,0 0,0l0 7c0,0 0,0 1,0l2 0c0,0 1,0 1,0l0 -15c0,0 -1,0 -1,0l-3 0c0,0 0,0 -1,0l-2 7c0,0 0,0 0,0 0,0 0,0 0,0l0 -7c0,0 -1,0 -1,0l-2 0c-1,0 -1,0 -1,0l0 15c0,0 0,0 1,0l2 0zm14 -10c0,-2 0,-2 1,-2 1,0 2,0 2,2l0 6c0,1 -1,1 -2,1 -1,0 -1,0 -1,-1l0 -6zm4 -10c-1,0 -1,0 -1,1 0,0 0,0 -1,0 -6,2 -6,5 -6,8l0 6c0,2 0,6 5,6 5,0 6,-4 6,-6l0 -5c0,-1 0,-6 -5,-6 -2,0 -1,1 -2,1 0,0 -1,0 -1,0 0,-1 3,-1 4,-2 2,0 4,0 4,-2 0,-1 -1,-1 -1,-1l-2 0z"/>
    <path id="1" class="fil1" d="M8 51c0,-1 0,-1 -1,-1l-2 0c-1,0 -1,0 -1,1l0 18c0,1 1,1 1,1l9 0c0,0 0,0 0,0l0 3c0,0 0,1 1,1l3 0c0,0 1,0 1,-1l0 -6c0,-1 -1,-1 -1,-1l-1 0c0,0 0,0 0,0l0 -15c0,-1 -1,-1 -1,-1l-3 0c-1,0 -1,0 -1,1l0 15c0,0 0,0 0,0l-3 0c-1,0 -1,0 -1,0l0 -15zm16 4c0,-1 -1,-1 -1,-1l-2 0c-1,0 -1,0 -1,1l0 14c0,1 0,1 1,1l2 0c0,0 1,0 1,-1l0 -14zm0 -5c0,0 -1,0 -1,0l-2 0c-1,0 -1,0 -1,0l0 2c0,0 0,1 1,1l2 0c1,0 1,-1 1,-1l0 -2zm5 4c-1,0 -1,0 -1,1l0 5c0,5 -1,7 -2,7l0 0c-1,0 -1,0 -1,1l0 2c0,0 1,0 1,0 5,0 5,-3 5,-10l1 -2c0,0 0,-1 0,-1l1 0c0,0 0,1 0,1l0 11c0,1 1,1 1,1l3 0c0,0 0,0 0,-1l0 -14c0,-1 0,-1 0,-1l-8 0zm14 5c0,-2 1,-2 2,-2 1,0 1,0 1,2l0 6c0,2 0,2 -1,2 -1,0 -2,0 -2,-2l0 -6zm-4 5c0,3 1,6 6,6 5,0 5,-3 5,-6l0 -4c0,-3 0,-6 -5,-6 -5,0 -6,3 -6,6l0 4zm20 -7c1,0 1,0 1,1l0 8c0,1 0,1 -1,1l-2 0c0,0 0,0 0,0 0,-1 0,-1 1,-8l0 -1c0,-1 0,-1 0,-1l1 0zm-4 -3c-1,0 -1,0 -1,1l0 1c0,5 0,9 -1,9 0,1 0,2 -1,2l0 0c-1,0 -1,0 -1,1l0 5c0,0 1,0 1,0l2 0c1,0 1,0 1,0l0 -3c0,0 0,0 1,0l5 0c0,0 0,0 0,0l0 3c0,0 0,0 1,0l2 0c0,0 1,0 1,0l0 -5c0,-1 -1,-1 -1,-1l0 0c-1,0 -1,0 -1,-1l0 -11c0,-1 0,-1 0,-1l-8 0zm15 5c0,-2 1,-2 2,-2 0,0 1,0 1,2l0 6c0,2 -1,2 -1,2 -1,0 -2,0 -2,-2l0 -6zm-4 5c0,3 1,6 6,6 4,0 5,-3 5,-6l0 -4c0,-3 -1,-6 -5,-6 -5,0 -6,3 -6,6l0 4zm17 -5c0,-1 1,-2 1,-2 1,0 2,1 2,2l0 6c0,2 -1,2 -2,2 0,0 -1,0 -1,-2l0 -6zm4 -9c-1,0 0,0 -1,0 0,0 0,1 -1,1 -6,1 -6,5 -6,8l0 5c0,3 1,6 5,6 5,0 6,-3 6,-6l0 -4c0,-1 0,-6 -5,-6 -2,0 -1,0 -2,0 0,0 0,0 0,0 0,-1 2,-1 3,-1 2,0 4,0 4,-3 0,0 0,0 -1,0l-2 0zm9 9c0,-2 1,-2 1,-2 1,0 2,0 2,2l0 6c0,2 -1,2 -2,2 0,0 -1,0 -1,-2l0 -6zm-4 5c0,3 0,6 5,6 5,0 6,-3 6,-6l0 -4c0,-3 -1,-6 -6,-6 -5,0 -5,3 -5,6l0 4zm17 -1c0,0 0,0 0,0l1 0c1,0 2,1 2,2 0,1 -1,2 -2,2l-1 0c0,0 0,0 0,0l0 -4zm0 -6c0,0 0,0 0,0l1 0c0,0 1,1 1,2 0,0 0,1 -1,1l-1 0c0,0 0,0 0,0l0 -3zm-4 12c0,0 0,1 1,1l4 0c1,0 6,0 6,-5 0,-2 -1,-3 -2,-3 0,-1 0,-1 -1,-1 0,0 0,0 1,0 0,0 1,-1 1,-3 0,-2 -1,-4 -4,-4l-5 0c-1,0 -1,0 -1,1l0 14zm16 1c0,0 1,0 1,-1l3 -6c0,-1 0,-1 0,-1 0,0 0,0 0,1l0 6c0,1 0,1 1,1l2 0c0,0 1,0 1,-1l0 -14c0,-1 -1,-1 -1,-1l-2 0c-1,0 -1,0 -1,1l-3 7c0,0 0,0 0,0 0,0 0,0 0,-1l0 -6c0,-1 -1,-1 -1,-1l-2 0c-1,0 -1,0 -1,1l0 14c0,1 0,1 1,1l2 0zm13 0c0,0 1,0 1,-1l3 -6c0,-1 0,-1 0,-1 0,0 0,0 0,1l0 6c0,1 0,1 1,1l2 0c0,0 1,0 1,-1l0 -14c0,-1 -1,-1 -1,-1l-2 0c-1,0 -1,0 -1,1l-3 7c0,0 0,0 0,0 0,0 0,0 0,-1l0 -6c0,-1 -1,-1 -1,-1l-2 0c-1,0 -1,0 -1,1l0 14c0,1 0,1 1,1l2 0zm4 -17c1,0 2,-1 2,-2l0 0c0,-1 0,-1 0,-1l-2 0c0,0 0,0 0,1l0 0c0,0 -1,0 -1,0l-1 0c-1,0 -1,0 -1,0l0 0c0,-1 0,-1 -1,-1l-1 0c0,0 0,0 0,1l0 0c0,1 0,2 1,2l4 0zm19 13c0,0 -1,1 -1,1 -1,0 -2,-1 -2,-2 0,-2 1,-2 2,-3l1 0c0,0 0,0 0,0l0 4zm4 -8c0,-2 -1,-4 -6,-4 -3,0 -4,1 -4,1l0 2c0,0 0,1 1,1 0,0 0,-1 1,-1 1,0 1,0 2,0 1,0 2,0 2,1 0,0 0,0 0,0l-1 1c-2,1 -6,2 -6,6 0,4 2,5 4,5 1,0 2,0 3,-1 0,0 0,0 0,0 0,0 0,0 0,1 0,0 0,0 1,0l2 0c1,0 1,0 1,-1l0 0 0 -11zm6 5c0,0 0,0 0,0l1 0c1,0 2,1 2,2 0,1 -1,2 -2,2l-1 0c0,0 0,0 0,0l0 -4zm0 -6c0,0 0,0 0,0l1 0c1,0 1,1 1,2 0,0 0,1 -1,1l-1 0c0,0 0,0 0,0l0 -3zm-4 12c0,0 0,1 1,1l4 0c2,0 6,0 6,-5 0,-2 -1,-3 -2,-3 0,-1 0,-1 0,-1 0,0 0,0 0,0 0,0 1,-1 1,-3 0,-2 -1,-4 -4,-4l-5 0c0,0 -1,0 -1,1l0 14zm19 -11c0,-1 0,-1 1,-1l2 0c1,0 1,0 1,0l0 -2c0,-1 -1,-1 -1,-1l-9 0c0,0 -1,0 -1,1l0 2c0,0 1,0 1,0l2 0c0,0 0,0 0,1l0 11c0,1 1,1 1,1l2 0c1,0 1,0 1,-1l0 -11zm9 1c0,-2 0,-2 1,-2 1,0 2,0 2,2l0 6c0,2 -1,2 -2,2 -1,0 -1,0 -1,-2l0 -6zm-4 5c0,3 0,6 5,6 5,0 6,-3 6,-6l0 -4c0,-3 -1,-6 -6,-6 -5,0 -5,3 -5,6l0 4zm16 -1c0,0 0,0 1,0 0,0 0,0 0,0l1 3c0,0 0,0 1,0l0 0c1,0 1,0 1,0l1 -3c0,0 0,0 1,0 0,0 0,0 0,0l0 6c0,1 0,1 0,1l3 0c0,0 0,0 0,-1l0 -14c0,-1 0,-1 0,-1l-3 0c0,0 0,0 0,1l-3 5c0,0 0,1 0,1 0,0 0,-1 0,-1l-3 -5c0,-1 0,-1 0,-1l-3 0c0,0 0,0 0,1l0 14c0,1 0,1 0,1l3 0c0,0 0,0 0,-1l0 -6zm18 3c0,0 -1,1 -1,1 -1,0 -2,-1 -2,-2 0,-2 1,-2 2,-3l1 0c0,0 0,0 0,0l0 4zm4 -8c0,-2 -1,-4 -5,-4 -4,0 -5,1 -5,1l0 2c0,0 1,1 1,1 0,0 0,-1 1,-1 1,0 1,0 2,0 1,0 2,0 2,1 0,0 0,0 0,0l-1 1c-2,1 -6,2 -6,6 0,4 2,5 4,5 1,0 2,0 3,-1 0,0 0,0 0,0 0,0 0,0 0,1 0,0 0,0 1,0l2 0c1,0 1,0 1,-1l0 0 0 -11zm8 0c0,-1 0,-1 1,-1l2 0c1,0 1,0 1,0l0 -2c0,-1 -1,-1 -1,-1l-9 0c0,0 -1,0 -1,1l0 2c0,0 1,0 1,0l2 0c0,0 0,0 0,1l0 11c0,1 1,1 1,1l3 0c0,0 0,0 0,-1l0 -11zm-228 33c0,0 0,1 0,1l1 0c2,0 2,1 2,1 0,1 0,2 -2,2 -1,0 0,0 -2,0 0,0 0,0 0,0l0 2c0,1 0,2 3,2 5,0 6,-3 6,-5 0,-2 -1,-3 -2,-4 0,0 -1,0 -1,0 0,0 1,-1 1,-1 1,0 1,-1 1,-3 0,-2 -1,-4 -5,-4 -1,0 -2,0 -3,1 0,0 0,0 0,0l0 2c0,0 0,1 0,1 0,0 1,0 1,0 0,-1 1,-1 1,-1 2,0 2,1 2,2 0,1 0,1 -2,1l-1 0c0,0 0,1 0,1l0 2zm16 7c0,0 0,0 1,0l2 0c1,0 1,0 1,0l0 -6c0,0 0,0 1,0l2 0c0,0 0,0 0,0l0 6c0,0 0,0 1,0l2 0c1,0 1,0 1,0l0 -15c0,0 -1,0 -1,0l-2 0c-1,0 -1,0 -1,0l0 5c0,0 0,0 0,0l-2 0c-1,0 -1,0 -1,0l0 -5c0,0 0,0 -1,0l-2 0c0,0 -1,0 -1,0l0 15zm19 -4c0,1 0,1 -1,1 -1,0 -1,-1 -1,-2 0,-1 0,-2 1,-2l1 -1c0,0 0,0 0,1l0 3zm4 -7c0,-2 0,-5 -5,-5 -4,0 -4,1 -4,2l0 2c0,0 0,0 0,0 0,0 1,0 2,0 0,0 1,-1 1,-1 1,0 2,1 2,1 0,1 0,1 0,1l-1 0c-2,1 -5,2 -5,7 0,3 2,5 4,5 0,0 1,-1 2,-1 0,0 0,0 0,0 0,0 0,0 0,0 0,0 0,0 1,0l2 0c1,0 1,0 1,0l0 -1 0 -10zm12 11c0,0 1,0 1,0l0 -6c0,0 0,0 0,0l1 0c1,0 1,1 1,2l0 4c0,0 1,0 1,0l2 0c1,0 1,0 1,0l0 -5c0,-3 -2,-2 -2,-3 0,0 1,0 1,-1 0,0 0,0 0,-1l0 -2c0,-1 0,-1 1,-1l0 0c0,0 0,0 0,0l0 -2c0,0 0,0 0,0l-2 0c-1,0 -3,1 -3,2l0 2c0,1 0,2 -1,2l0 0c0,0 0,-1 0,-1l0 -5c0,0 -1,0 -1,0l-2 0c-1,0 -1,0 -1,0l0 5c0,0 0,1 0,1l-1 0c0,0 -1,-1 -1,-2l0 -2c0,-1 -1,-2 -2,-2l-2 0c0,0 -1,0 -1,0l0 2c0,0 1,0 1,0l0 0c0,0 1,0 1,1l0 2c0,1 0,1 0,1 0,1 1,1 1,1 0,1 -2,0 -2,3l0 5c0,0 0,0 0,0l3 0c0,0 1,0 1,0l0 -4c0,-1 0,-2 1,-2l1 0c0,0 0,0 0,0l0 6c0,0 0,0 1,0l2 0zm13 0c0,0 0,0 1,0l2 -7c0,0 0,0 0,0 0,0 1,0 1,0l0 7c0,0 0,0 0,0l2 0c1,0 1,0 1,0l0 -15c0,0 0,0 -1,0l-2 0c0,0 -1,0 -1,0l-2 7c0,0 -1,0 -1,0 0,0 0,0 0,0l0 -7c0,0 0,0 -1,0l-2 0c0,0 -1,0 -1,0l0 15c0,0 1,0 1,0l3 0zm13 -6c0,0 0,-1 1,-1l0 0c2,0 2,1 2,2 0,1 0,2 -2,2l0 0c0,0 -1,0 -1,0l0 -3zm0 -6c0,0 1,0 1,0l0 0c1,0 2,0 2,1 0,1 -1,1 -2,1l0 0c0,0 -1,0 -1,0l0 -2zm-3 12c0,0 0,0 0,0l5 0c1,0 6,0 6,-4 0,-2 -1,-3 -2,-4 0,0 -1,0 -1,0 0,0 0,0 0,0 1,-1 2,-2 2,-4 0,-2 -1,-3 -5,-3l-5 0c0,0 0,0 0,0l0 15zm16 0c0,0 0,0 0,0l0 -6c0,0 0,0 1,0l0 0c2,0 2,1 2,2l0 4c0,0 0,0 1,0l2 0c0,0 1,0 1,0l0 -5c0,-2 -2,-3 -2,-3 0,0 0,0 0,-1 1,0 1,-1 1,-1l0 -2c0,-1 0,-1 0,-1l1 0c0,0 0,0 0,0l0 -2c0,0 0,0 -1,0l-1 0c-3,0 -3,2 -3,2l0 2c0,1 -1,2 -1,2l0 0c-1,0 -1,-1 -1,-1l0 -5c0,0 0,0 0,0l-3 0c0,0 0,0 0,0l0 15c0,0 0,0 0,0l3 0zm15 -4c0,1 0,1 -1,1 -1,0 -1,-1 -1,-2 0,-1 1,-2 2,-2l0 -1c0,0 0,0 0,1l0 3zm4 -7c0,-2 0,-5 -5,-5 -4,0 -4,1 -4,2l0 2c0,0 0,0 0,0 1,0 1,0 2,0 0,0 1,-1 2,-1 0,0 1,1 1,1 0,1 0,1 0,1l-1 0c-2,1 -5,2 -5,7 0,3 2,5 4,5 1,0 1,-1 2,-1 0,0 0,0 0,0 1,0 1,0 1,0 0,0 0,0 0,0l2 0c1,0 1,0 1,0l0 -1 0 -10zm6 4c0,0 0,0 0,0 1,0 1,0 1,0l1 3c0,0 0,1 1,1l0 0c1,0 1,-1 1,-1l1 -3c0,0 0,0 1,0 0,0 0,0 0,0l0 7c0,0 0,0 0,0l3 0c0,0 0,0 0,0l0 -15c0,0 0,0 0,0l-3 0c0,0 0,0 0,0l-3 6c0,0 0,0 0,0 0,0 0,0 0,0l-3 -6c0,0 0,0 0,0l-3 0c0,0 0,0 0,0l0 15c0,0 0,0 0,0l3 0c0,0 0,0 0,0l0 -7zm15 7c0,0 1,0 1,0l2 -7c0,0 0,0 1,0 0,0 0,0 0,0l0 7c0,0 0,0 1,0l2 0c0,0 0,0 0,0l0 -15c0,0 0,0 0,0l-3 0c0,0 0,0 -1,0l-2 7c0,0 0,0 0,0 -1,0 -1,0 -1,0l0 -7c0,0 0,0 0,0l-3 0c0,0 0,0 0,0l0 15c0,0 0,0 0,0l3 0zm23 -12c1,0 1,0 1,0l0 9c0,0 0,0 -1,0l-2 0c0,0 0,0 0,0 0,-1 0,0 1,-8l0 -1c0,0 0,0 0,0l1 0zm-4 -3c-1,0 -1,0 -1,0l0 1c0,6 0,9 -1,10 0,1 0,1 -1,1l0 0c-1,0 -1,1 -1,1l0 5c0,1 1,1 1,1l2 0c1,0 1,0 1,-1l0 -2c0,0 0,-1 1,-1l5 0c0,0 0,1 0,1l0 2c0,0 0,1 1,1l2 0c0,0 1,0 1,-1l0 -5c0,-1 -1,-1 -1,-1l0 0c-1,0 -1,0 -1,0l0 -12c0,0 0,0 0,0l-8 0zm14 0c-1,0 -1,0 -1,0l0 5c0,5 0,7 -2,7l0 0c0,0 -1,0 -1,1l0 2c0,1 1,1 2,1 4,0 5,-4 5,-10l0 -3c0,0 0,0 0,0l1 0c1,0 1,0 1,0l0 12c0,0 0,0 1,0l2 0c1,0 1,0 1,0l0 -15c0,0 -1,0 -1,0l-8 0zm18 3c0,0 0,0 0,0l0 3c0,0 0,0 0,0l-1 0c-2,0 -2,-1 -2,-2 0,0 0,-1 2,-1l1 0zm-2 -3c-4,0 -5,2 -5,4 0,4 2,3 2,4 0,0 0,0 0,0l-3 7c0,0 0,0 1,0l2 0c1,0 1,0 2,0l2 -6c0,0 0,0 0,0l1 0c0,0 0,0 0,0l0 6c0,0 0,0 1,0l2 0c0,0 1,0 1,0l0 -15c0,0 -1,0 -1,0l-5 0zm19 5c0,-1 0,-2 1,-2 1,0 2,1 2,2l0 5c0,1 -1,2 -2,2 -1,0 -1,-1 -1,-2l0 -5zm-4 14c0,0 0,1 1,1l2 0c0,0 1,0 1,-1l0 -4c0,0 0,0 0,0 0,0 1,1 3,1 3,0 3,-4 3,-6l0 -5c0,-2 0,-6 -3,-6 -2,0 -3,1 -3,1 0,0 0,0 0,0l0 0c0,0 0,0 -1,0l-2 0c-1,0 -1,0 -1,0l0 19zm16 -4c0,0 1,0 1,0l2 -7c0,0 1,0 1,0 0,0 0,0 0,0l0 7c0,0 0,0 1,0l2 0c0,0 1,0 1,0l0 -15c0,0 -1,0 -1,0l-3 0c0,0 0,0 -1,0l-2 7c0,0 0,0 0,0 0,0 0,0 0,0l0 -7c0,0 -1,0 -1,0l-2 0c-1,0 -1,0 -1,0l0 15c0,0 0,0 1,0l2 0zm14 -10c0,-2 0,-2 1,-2 1,0 2,0 2,2l0 6c0,1 -1,1 -2,1 -1,0 -1,0 -1,-1l0 -6zm4 -10c-1,0 -1,0 -1,1 0,0 0,0 -1,0 -6,2 -6,5 -6,8l0 6c0,2 0,6 5,6 5,0 6,-4 6,-6l0 -5c0,-1 0,-6 -5,-6 -2,0 -1,1 -2,1 0,0 -1,0 -1,0 0,-1 3,-1 4,-2 2,0 4,0 4,-2 0,-1 -1,-1 -1,-1l-2 0z"/>
   </g>
   <g>
    <path class="fil0 str0" d="M244 94c0,1 -1,1 -1,1 -1,0 -2,-1 -2,-2 0,-1 1,-2 2,-2l1 -1c0,0 0,0 0,1l0 3zm4 -7c0,-2 -1,-5 -6,-5 -3,0 -4,1 -4,2l0 2c0,0 0,0 1,0 0,0 0,0 1,0 1,0 1,-1 2,-1 1,0 2,1 2,1 0,1 0,1 0,1l-1 0c-2,1 -6,2 -6,7 0,3 2,5 4,5 1,0 2,-1 3,-1 0,0 0,0 0,0 0,0 0,0 0,0 0,0 0,0 1,0l2 0c1,0 1,0 1,0l0 -1 0 -10zm5 -4c-1,0 -1,0 -1,0l0 5c0,5 0,7 -2,7l0 0c-1,0 -1,0 -1,1l0 2c0,1 1,1 2,1 4,0 4,-4 5,-10l0 -3c0,0 0,0 0,0l1 0c1,0 1,0 1,0l0 12c0,0 0,0 0,0l3 0c0,0 0,0 0,0l0 -15c0,0 0,0 0,0l-8 0zm14 15c0,0 1,0 1,0l0 -6c0,0 0,0 0,0l1 0c1,0 1,1 1,2l0 4c0,0 0,0 1,0l2 0c1,0 1,0 1,0l0 -5c0,-2 -2,-3 -2,-3 0,0 0,0 1,-1 0,0 0,-1 0,-1l0 -2c0,-1 0,-1 0,-1l1 0c0,0 0,0 0,0l0 -2c0,0 0,0 0,0l-2 0c-2,0 -3,2 -3,2l0 2c0,1 0,2 -1,2l0 0c0,0 0,-1 0,-1l0 -5c0,0 -1,0 -1,0l-2 0c-1,0 -1,0 -1,0l0 15c0,0 0,0 1,0l2 0zm12 0c1,0 1,0 1,0l3 -7c0,0 0,0 0,0 0,0 0,0 0,0l0 7c0,0 1,0 1,0l2 0c1,0 1,0 1,0l0 -15c0,0 0,0 -1,0l-2 0c0,0 -1,0 -1,0l-3 7c0,0 0,0 0,0 0,0 0,0 0,0l0 -7c0,0 0,0 -1,0l-2 0c0,0 -1,0 -1,0l0 15c0,0 0,0 1,0l2 0zm15 -11c0,-1 -1,-1 -1,-1l-2 0c-1,0 -1,0 -1,1l0 2c0,1 0,1 1,1l2 0c1,0 1,0 1,-1l0 -2zm0 8c0,0 0,-1 -1,-1l-2 0c-1,0 -1,0 -1,1l0 3c0,0 0,0 1,0l2 0c0,0 1,0 1,0l0 -3z"/>
    <path id="1" class="fil1" d="M244 94c0,1 -1,1 -1,1 -1,0 -2,-1 -2,-2 0,-1 1,-2 2,-2l1 -1c0,0 0,0 0,1l0 3zm4 -7c0,-2 -1,-5 -6,-5 -3,0 -4,1 -4,2l0 2c0,0 0,0 1,0 0,0 0,0 1,0 1,0 1,-1 2,-1 1,0 2,1 2,1 0,1 0,1 0,1l-1 0c-2,1 -6,2 -6,7 0,3 2,5 4,5 1,0 2,-1 3,-1 0,0 0,0 0,0 0,0 0,0 0,0 0,0 0,0 1,0l2 0c1,0 1,0 1,0l0 -1 0 -10zm5 -4c-1,0 -1,0 -1,0l0 5c0,5 0,7 -2,7l0 0c-1,0 -1,0 -1,1l0 2c0,1 1,1 2,1 4,0 4,-4 5,-10l0 -3c0,0 0,0 0,0l1 0c1,0 1,0 1,0l0 12c0,0 0,0 0,0l3 0c0,0 0,0 0,0l0 -15c0,0 0,0 0,0l-8 0zm14 15c0,0 1,0 1,0l0 -6c0,0 0,0 0,0l1 0c1,0 1,1 1,2l0 4c0,0 0,0 1,0l2 0c1,0 1,0 1,0l0 -5c0,-2 -2,-3 -2,-3 0,0 0,0 1,-1 0,0 0,-1 0,-1l0 -2c0,-1 0,-1 0,-1l1 0c0,0 0,0 0,0l0 -2c0,0 0,0 0,0l-2 0c-2,0 -3,2 -3,2l0 2c0,1 0,2 -1,2l0 0c0,0 0,-1 0,-1l0 -5c0,0 -1,0 -1,0l-2 0c-1,0 -1,0 -1,0l0 15c0,0 0,0 1,0l2 0zm12 0c1,0 1,0 1,0l3 -7c0,0 0,0 0,0 0,0 0,0 0,0l0 7c0,0 1,0 1,0l2 0c1,0 1,0 1,0l0 -15c0,0 0,0 -1,0l-2 0c0,0 -1,0 -1,0l-3 7c0,0 0,0 0,0 0,0 0,0 0,0l0 -7c0,0 0,0 -1,0l-2 0c0,0 -1,0 -1,0l0 15c0,0 0,0 1,0l2 0zm15 -11c0,-1 -1,-1 -1,-1l-2 0c-1,0 -1,0 -1,1l0 2c0,1 0,1 1,1l2 0c1,0 1,0 1,-1l0 -2zm0 8c0,0 0,-1 -1,-1l-2 0c-1,0 -1,0 -1,1l0 3c0,0 0,0 1,0l2 0c0,0 1,0 1,0l0 -3z"/>
   </g>
  </g>
 </g>
</svg>
