<?xml version="1.0" encoding="UTF-8"?>
<!DOCTYPE svg PUBLIC "-//W3C//DTD SVG 1.1//EN" "http://www.w3.org/Graphics/SVG/1.1/DTD/svg11.dtd">
<!-- Creator: CorelDRAW X7 -->
<svg xmlns="http://www.w3.org/2000/svg" xml:space="preserve" width="16.2628mm" height="3.0258mm" version="1.1" style="shape-rendering:geometricPrecision; text-rendering:geometricPrecision; image-rendering:optimizeQuality; fill-rule:evenodd; clip-rule:evenodd"
viewBox="0 0 635 118"
 xmlns:xlink="http://www.w3.org/1999/xlink">
 <defs>
  <style type="text/css">
   <![CDATA[
    .str0 {stroke:#FEFEFE;stroke-width:7.80987;stroke-linecap:round;stroke-linejoin:round}
    .fil0 {fill:none;fill-rule:nonzero}
    .fil1 {fill:#E31E24;fill-rule:nonzero}
   ]]>
  </style>
 </defs>
 <g id="Слой_x0020_1">
  <metadata id="CorelCorpID_0Corel-Layer"/>
  <g id="_865789248">
   <g>
    <path class="fil0 str0" d="M90 38c0,0 -1,0 -1,0l0 -9c0,0 0,-1 1,-1l3 0c4,0 6,3 6,5 0,3 -2,5 -6,5l-3 0zm1 -18c-1,0 -2,0 -2,0l0 -7c0,0 1,-1 1,-1l2 0c5,0 6,3 6,4 0,2 -2,4 -6,4l-1 0zm-10 24c0,1 0,2 1,2l13 0c10,0 14,-6 14,-12 0,-5 -3,-9 -8,-10l0 -1c4,-1 6,-4 6,-8 0,-5 -4,-10 -13,-10l-12 0c-1,0 -1,1 -1,1l0 38zm40 -29c0,-2 -1,-2 -2,-2l-4 0c-1,0 -2,0 -2,2l0 29c0,1 0,2 2,2l4 0c1,0 2,0 2,-2l0 -29zm0 -9c0,-2 -1,-2 -2,-2l-4 0c-2,0 -2,1 -2,2l0 3c0,1 0,2 2,2l4 0c2,0 2,-1 2,-2l0 -3zm19 14c0,0 0,0 0,1l0 18c0,0 0,0 0,0l-5 0c0,0 0,0 0,0 0,-2 1,0 2,-16l0 -2c0,-1 0,-1 1,-1l2 0zm-9 -7c-1,0 -1,1 -1,2l0 2c-1,11 -2,18 -2,20 -1,1 -1,2 -2,2l-1 0c-1,0 -1,2 -1,2l0 10c0,2 1,2 1,2l5 0c0,0 1,0 1,-2l0 -4c0,-1 1,-1 1,-1l11 0c1,0 1,0 1,1l0 4c0,1 0,2 1,2l5 0c0,0 1,0 1,-2l0 -10c0,-1 -1,-2 -1,-2l-1 0c-1,0 -1,0 -1,0l0 -24c0,-2 -1,-2 -1,-2l-16 0zm45 8c0,0 0,-1 1,-1l8 0c1,0 1,-1 1,-1l0 -4c0,-2 0,-2 -1,-2l-16 0c0,0 -1,0 -1,2l0 29c0,1 0,2 1,2l5 0c1,0 2,0 2,-2l0 -23zm26 16c0,1 -1,2 -3,2 -2,0 -2,-1 -2,-3 0,-3 1,-5 3,-6l1 -1c1,0 1,0 1,1l0 7zm8 -15c0,-4 -1,-9 -11,-9 -8,0 -9,2 -9,3l0 4c0,0 1,1 1,1 1,0 2,-1 3,-1 2,-1 3,-1 4,-1 2,0 4,1 4,2 0,1 0,1 -1,1l-1 1c-5,2 -12,4 -12,13 0,7 4,10 8,10 2,0 4,0 5,-1 0,0 0,0 1,0 0,0 0,0 0,0 0,1 0,1 1,1l5 0c2,0 2,-1 2,-1l0 -1 0 -22zm4 4c0,4 0,10 8,10 3,0 4,-1 5,-1 0,0 0,0 0,1l0 8c0,1 0,2 2,2l5 0c1,0 1,0 1,-2l0 -29c0,-2 0,-2 -1,-2l-5 0c-1,0 -2,0 -2,2l0 11c0,2 -1,3 -2,3 -3,0 -3,-3 -3,-4l0 -10c0,-2 -1,-2 -2,-2l-4 0c-1,0 -2,0 -2,2l0 11zm32 20c1,0 2,0 2,-2l0 -11c0,-1 0,-1 1,-1l1 0c3,0 3,2 3,4l0 8c0,2 1,2 2,2l4 0c1,0 2,0 2,-2l0 -10c0,-4 -4,-5 -4,-6 0,0 1,0 1,-1 1,-1 1,-2 1,-3l0 -4c0,-1 1,-1 1,-1l1 0c0,0 1,0 1,-1l0 -3c0,-2 -1,-2 -2,-2l-3 0c-5,0 -6,4 -6,6l0 4c0,2 -1,3 -2,3l0 0c-1,0 -1,-1 -1,-1l0 -10c0,-2 -1,-2 -2,-2l-4 0c-1,0 -2,0 -2,2l0 29c0,1 0,2 2,2l4 0zm33 -9c0,1 -1,2 -3,2 -2,0 -2,-1 -2,-3 0,-3 1,-5 3,-6l1 -1c0,0 1,0 1,1l0 7zm8 -15c0,-4 -1,-9 -11,-9 -8,0 -9,2 -9,3l0 4c0,0 1,1 1,1 1,0 1,-1 3,-1 1,-1 3,-1 4,-1 2,0 4,1 4,2 0,1 0,1 -1,1l-1 1c-5,2 -12,4 -12,13 0,7 4,10 8,10 2,0 4,0 5,-1 0,0 0,0 1,0 0,0 0,0 0,0 0,1 0,1 1,1l5 0c1,0 2,-1 2,-1l0 -1 0 -22zm19 1c0,0 -1,0 -1,1l0 3c0,0 0,1 1,1l23 0c1,0 1,-1 1,-1l0 -3c0,0 0,-1 -1,-1l-23 0zm56 -3c1,0 1,0 1,1l0 18c0,0 0,0 -1,0l-4 0c-1,0 -1,0 -1,0 0,-2 1,0 2,-16l0 -2c0,-1 1,-1 1,-1l2 0zm-8 -7c-2,0 -2,1 -2,2l0 2c0,11 -2,18 -2,20 0,1 -1,2 -2,2l-1 0c-1,0 -1,2 -1,2l0 10c0,2 1,2 2,2l4 0c1,0 2,0 2,-2l0 -4c0,-1 0,-1 1,-1l10 0c1,0 1,0 1,1l0 4c0,1 0,2 2,2l4 0c1,0 2,0 2,-2l0 -10c0,-1 -1,-2 -2,-2l-1 0c0,0 0,0 0,0l0 -24c0,-2 -1,-2 -2,-2l-15 0zm30 10c0,-3 2,-4 3,-4 2,0 4,1 4,4l0 13c0,3 -2,4 -4,4 -1,0 -3,-1 -3,-4l0 -13zm-8 12c0,4 1,11 11,11 10,0 12,-7 12,-11l0 -10c0,-5 -2,-12 -12,-12 -10,0 -11,7 -11,12l0 10zm40 -9c0,4 0,10 8,10 3,0 4,-1 5,-1 0,0 0,0 0,1l0 8c0,1 0,2 2,2l5 0c0,0 1,0 1,-2l0 -29c0,-2 -1,-2 -1,-2l-5 0c-1,0 -2,0 -2,2l0 11c0,2 -1,3 -2,3 -3,0 -3,-3 -3,-4l0 -10c0,-2 -1,-2 -2,-2l-5 0c0,0 -1,0 -1,2l0 11zm34 -3c0,-3 1,-4 3,-4 1,0 3,1 3,4l0 13c0,3 -2,4 -3,4 -2,0 -3,-1 -3,-4l0 -13zm-8 12c0,4 1,11 11,11 10,0 11,-7 11,-11l0 -10c0,-5 -1,-12 -11,-12 -10,0 -11,7 -11,12l0 10zm34 -3c0,0 0,0 1,0l2 0c2,0 3,2 3,4 0,2 -1,4 -4,4l-1 0c0,0 -1,-1 -1,-1l0 -7zm0 -12c0,0 1,0 1,0l1 0c2,0 3,1 3,2 0,2 -1,3 -3,3l-1 0c0,0 -1,0 -1,0l0 -5zm-8 24c0,1 0,2 2,2l9 0c3,0 12,0 12,-10 0,-4 -2,-6 -4,-7 0,-1 -1,-1 -1,-1 0,0 0,0 0,0 1,-1 4,-3 4,-7 0,-4 -3,-8 -10,-8l-10 0c-1,0 -2,0 -2,2l0 29zm27 0c0,1 0,2 2,2l4 0c1,0 2,0 2,-2l0 -11c0,-1 0,-1 1,-1l4 0c0,0 1,0 1,1l0 11c0,2 1,2 1,2l5 0c2,0 2,-1 2,-2l0 -29c0,-2 -1,-2 -2,-2l-5 0c0,0 -1,0 -1,2l0 9c0,1 -1,1 -1,1l-4 0c-1,0 -1,0 -1,-1l0 -9c0,-2 -1,-2 -2,-2l-4 0c-1,0 -2,0 -2,2l0 29zm39 -7c0,1 -1,2 -2,2 -2,0 -3,-1 -3,-3 0,-3 2,-5 3,-6l1 -1c1,0 1,0 1,1l0 7zm8 -15c0,-4 -1,-9 -11,-9 -8,0 -8,2 -8,3l0 4c0,0 0,1 1,1 0,0 1,-1 3,-1 1,-1 2,-1 4,-1 1,0 3,1 3,2 0,1 0,1 0,1l-2 1c-5,2 -11,4 -11,13 0,7 3,10 8,10 1,0 3,0 4,-1 1,0 1,0 1,0 1,0 0,0 0,0 0,1 1,1 2,1l5 0c1,0 1,-1 1,-1l0 -1 0 -22zm14 17c0,-1 0,-2 -1,-2l-6 0c-1,0 -1,0 -1,2l0 5c0,1 0,2 1,2l6 0c0,0 1,0 1,-2l0 -5zm-3 -4c1,0 1,0 1,-1l2 -9c0,0 0,-2 0,-3l0 -15c0,-1 0,-2 -2,-2l-4 0c-2,0 -2,1 -2,2l0 15c0,1 0,3 0,3l1 9c1,1 1,1 2,1l2 0zm-529 62c0,0 0,1 -1,1l-6 0c0,0 0,0 0,-1 -1,0 0,0 0,0 2,-12 1,-6 3,-21l0 -3c0,-1 0,-1 1,-1l3 0c0,0 0,0 0,1l0 24zm-11 -33c-1,0 -2,0 -2,2l0 5c0,4 0,13 -2,22 -1,1 -1,5 -3,5l0 0c-1,0 -2,0 -2,2l0 11c0,1 0,2 2,2l4 0c1,0 2,0 2,-2l0 -4c0,-1 0,-1 1,-1l15 0c0,0 1,0 1,0l0 5c0,1 0,2 2,2l4 0c1,0 2,0 2,-2l0 -11c0,-2 -1,-2 -2,-2l-1 0c-1,0 -1,0 -1,-1l0 -31c0,-1 0,-2 -2,-2l-18 0zm26 9c-1,0 -1,1 -1,1l7 30c0,1 0,3 -2,3 -1,0 -1,0 -2,0 0,0 -1,0 -1,0 -1,0 -1,0 -1,1l0 4c0,1 0,2 5,2 8,0 10,-5 11,-9l7 -31c0,0 0,-1 -2,-1l-5 0c-1,0 -2,0 -2,1l-2 14c0,1 -1,2 -1,2 -1,0 -1,-1 -1,-2l-3 -14c0,0 0,-1 -1,-1l-6 0zm45 33c0,0 1,-1 1,-2l0 -12c0,0 0,0 1,0l1 0c3,0 3,2 3,3l0 9c0,1 1,2 2,2l5 0c0,0 1,-1 1,-2l0 -10c0,-5 -4,-5 -4,-6 0,0 1,-1 1,-1 1,-1 1,-2 1,-3l0 -4c0,-1 1,-2 1,-2l1 0c0,0 1,0 1,-1l0 -3c0,-1 -1,-1 -2,-1l-3 0c-3,0 -5,2 -5,5l0 4c0,3 -2,3 -2,3l-1 0c-1,0 -1,0 -1,-1l0 -10c0,-1 -1,-1 -1,-1l-5 0c-1,0 -2,0 -2,1l0 10c0,1 0,1 0,1l-1 0c-1,0 -2,0 -2,-3l0 -4c0,-3 -2,-5 -6,-5l-3 0c0,0 -1,0 -1,1l0 3c0,1 1,1 1,1l0 0c1,0 1,1 1,2l0 4c0,1 1,2 1,3 1,0 1,1 1,1 0,1 -4,1 -4,6l0 10c0,1 1,2 2,2l5 0c1,0 1,-1 1,-2l0 -9c0,-1 1,-3 3,-3l2 0c0,0 0,0 0,0l0 12c0,1 1,2 2,2l5 0zm28 -21c-1,0 -1,0 -1,-1l0 -1c0,-1 0,-4 3,-4 3,0 3,3 3,4l0 1c0,0 0,1 0,1l-5 0zm12 6c0,0 1,0 1,-1l0 -6c0,-11 -8,-12 -11,-12 -10,0 -11,8 -11,12l0 10c0,11 9,12 13,12 2,0 5,0 8,-1 1,-1 1,-1 1,-2l0 -4c0,-1 0,-1 -1,-1 -2,0 -5,1 -7,1 -1,0 -6,0 -6,-5l0 -2c0,0 0,-1 1,-1l12 0zm27 1c0,0 0,-1 1,-1l2 0c2,0 3,2 3,4 0,2 -1,4 -4,4l-1 0c0,0 -1,0 -1,0l0 -7zm0 -12c0,-1 1,-1 1,-1l1 0c2,0 3,1 3,3 0,1 -1,3 -3,3l-1 0c0,0 -1,0 -1,-1l0 -4zm-8 24c0,0 0,2 2,2l9 0c3,0 12,-1 12,-10 0,-5 -2,-7 -4,-8 0,0 -1,0 -1,-1 0,0 0,0 0,0 1,-1 4,-2 4,-6 0,-4 -3,-8 -10,-8l-10 0c-1,0 -2,0 -2,1l0 30zm36 -19c-1,0 -1,0 -1,-1l0 -1c0,-1 0,-4 3,-4 3,0 3,3 3,4l0 1c0,0 0,1 0,1l-5 0zm12 6c0,0 1,0 1,-1l0 -6c0,-11 -8,-12 -11,-12 -10,0 -11,8 -11,12l0 10c0,11 9,12 13,12 2,0 5,0 8,-1 1,-1 1,-1 1,-2l0 -4c0,-1 0,-1 -1,-1 -2,0 -5,1 -7,1 -1,0 -6,0 -6,-5l0 -2c0,0 0,-1 1,-1l12 0zm11 -18c-2,0 -2,1 -2,1l0 10c0,11 0,15 -3,15l-1 0c-1,0 -2,0 -2,2l0 4c0,1 2,1 4,1 9,0 10,-7 10,-20l0 -6c0,0 0,0 1,0l2 0c1,0 1,0 1,0l0 24c0,1 1,2 2,2l4 0c2,0 2,-1 2,-2l0 -30c0,-1 -1,-1 -2,-1l-16 0zm29 33c1,0 2,-1 2,-2l5 -14c0,0 1,0 1,0 0,0 0,0 0,0l0 14c0,1 1,2 2,2l4 0c1,0 2,-1 2,-2l0 -30c0,-1 -1,-1 -2,-1l-4 0c-1,0 -2,0 -3,1l-5 14c0,0 0,0 0,0 -1,0 -1,0 -1,0l0 -14c0,-1 0,-1 -1,-1l-5 0c0,0 -1,0 -1,1l0 30c0,1 0,2 1,2l5 0zm27 0c1,0 2,-1 2,-2l0 -12c0,0 0,0 0,0l2 0c2,0 2,2 2,3l0 9c0,1 1,2 2,2l5 0c1,0 1,-1 1,-2l0 -10c0,-5 -3,-5 -3,-6 0,0 0,0 1,-1 0,-1 1,-2 1,-3l0 -4c0,-1 0,-2 0,-2l1 0c0,0 1,0 1,-1l0 -3c0,-1 -1,-1 -1,-1l-4 0c-5,0 -5,4 -5,5l0 4c0,3 -1,3 -2,3l-1 0c0,0 0,0 0,-1l0 -10c0,-1 -1,-1 -2,-1l-5 0c-1,0 -1,0 -1,1l0 30c0,1 0,2 1,2l5 0zm26 0c0,0 1,-1 2,-2l5 -14c0,0 0,0 0,0 1,0 1,0 1,0l0 14c0,1 1,2 1,2l5 0c1,0 1,-1 1,-2l0 -30c0,-1 0,-1 -1,-1l-5 0c-1,0 -1,0 -2,1l-5 14c0,0 -1,0 -1,0 0,0 0,0 0,0l0 -14c0,-1 -1,-1 -2,-1l-4 0c-1,0 -2,0 -2,1l0 30c0,1 0,2 2,2l5 0zm27 0c0,0 1,-1 2,-2l5 -14c0,0 0,0 0,0 0,0 1,0 1,0l0 14c0,1 0,2 1,2l5 0c0,0 1,-1 1,-2l0 -30c0,-1 -1,-1 -1,-1l-5 0c-1,0 -2,0 -2,1l-5 14c-1,0 -1,0 -1,0 0,0 0,0 0,0l0 -14c0,-1 -1,-1 -2,-1l-4 0c-1,0 -2,0 -2,1l0 30c0,1 0,2 2,2l5 0zm8 -36c3,0 4,-1 4,-3l0 -1c0,-1 0,-1 -1,-1l-3 0c0,0 -1,0 -1,1l0 0c0,1 -1,1 -2,1l-2 0c-1,0 -2,0 -2,-1l0 0c0,-1 0,-1 -1,-1l-3 0c0,0 0,0 0,1l0 1c0,2 1,3 3,3l8 0zm34 22c0,0 0,-1 0,-1l2 0c2,0 4,2 4,4 0,2 -2,4 -4,4l-2 0c0,0 0,0 0,0l0 -7zm0 -12c0,-1 0,-1 0,-1l1 0c2,0 3,1 3,3 0,1 -1,3 -2,3l-2 0c0,0 0,0 0,-1l0 -4zm-8 24c0,0 0,2 1,2l10 0c2,0 11,-1 11,-10 0,-5 -1,-7 -3,-8 -1,0 -1,0 -2,-1 0,0 0,0 1,0 1,-1 3,-2 3,-6 0,-4 -3,-8 -9,-8l-11 0c0,0 -1,0 -1,1l0 30zm33 2c1,0 1,-1 2,-2l5 -14c0,0 0,0 1,0 0,0 0,0 0,0l0 14c0,1 1,2 1,2l5 0c1,0 2,-1 2,-2l0 -30c0,-1 -1,-1 -2,-1l-5 0c0,0 -1,0 -2,1l-5 14c0,0 0,0 -1,0 0,0 0,0 0,0l0 -14c0,-1 -1,-1 -2,-1l-4 0c-1,0 -2,0 -2,1l0 30c0,1 0,2 2,2l5 0zm28 -23c0,-3 2,-4 3,-4 2,0 3,1 3,4l0 13c0,3 -1,3 -3,3 -1,0 -3,0 -3,-3l0 -13zm8 -19c-1,0 -1,0 -1,1 0,0 -1,1 -2,1 -13,3 -13,10 -13,17l0 11c0,5 1,12 11,12 10,0 11,-7 11,-12l0 -10c0,-1 0,-11 -10,-11 -3,0 -2,0 -4,0 0,0 0,0 0,0 0,-2 4,-2 6,-2 4,-1 8,-1 8,-6 0,-1 0,-1 -1,-1l-5 0zm19 10c0,-1 -1,-1 -2,-1l-5 0c0,0 -1,0 -1,1l0 30c0,1 0,2 1,2l5 0c1,0 2,-1 2,-2l0 -30zm0 -9c0,-1 -1,-2 -2,-2l-5 0c-1,0 -1,1 -1,2l0 4c0,0 0,1 1,1l5 0c2,0 2,-1 2,-1l0 -4zm12 18c0,-1 1,-3 3,-3 3,0 3,2 3,3l0 12c0,1 0,4 -3,4 -2,0 -3,-3 -3,-4l0 -12zm-8 29c0,1 0,2 2,2l5 0c0,0 1,0 1,-2l0 -7c0,-1 0,-1 1,-1 1,0 1,2 5,2 8,0 8,-7 8,-11l0 -12c0,-3 0,-11 -7,-11 -5,0 -5,3 -6,3 0,0 -1,0 -1,-1l0 0c0,-1 0,-1 -1,-1l-5 0c-1,0 -2,0 -2,1l0 38zm40 -26c0,3 0,10 8,10 3,0 4,-1 5,-1 0,0 0,0 0,0l0 9c0,1 0,2 2,2l5 0c1,0 1,-1 1,-2l0 -30c0,-1 0,-1 -1,-1l-5 0c-1,0 -2,0 -2,1l0 11c0,2 -1,3 -2,3 -3,0 -3,-2 -3,-3l0 -11c0,-1 -1,-1 -2,-1l-4 0c-1,0 -2,0 -2,1l0 12zm34 -3c0,-3 1,-4 3,-4 1,0 3,1 3,4l0 13c0,3 -2,3 -3,3 -2,0 -3,0 -3,-3l0 -13zm-8 11c0,5 1,12 11,12 10,0 11,-7 11,-12l0 -10c0,-4 -1,-12 -11,-12 -10,0 -11,8 -11,12l0 10z"/>
    <path id="1" class="fil1" d="M90 38c0,0 -1,0 -1,0l0 -9c0,0 0,-1 1,-1l3 0c4,0 6,3 6,5 0,3 -2,5 -6,5l-3 0zm1 -18c-1,0 -2,0 -2,0l0 -7c0,0 1,-1 1,-1l2 0c5,0 6,3 6,4 0,2 -2,4 -6,4l-1 0zm-10 24c0,1 0,2 1,2l13 0c10,0 14,-6 14,-12 0,-5 -3,-9 -8,-10l0 -1c4,-1 6,-4 6,-8 0,-5 -4,-10 -13,-10l-12 0c-1,0 -1,1 -1,1l0 38zm40 -29c0,-2 -1,-2 -2,-2l-4 0c-1,0 -2,0 -2,2l0 29c0,1 0,2 2,2l4 0c1,0 2,0 2,-2l0 -29zm0 -9c0,-2 -1,-2 -2,-2l-4 0c-2,0 -2,1 -2,2l0 3c0,1 0,2 2,2l4 0c2,0 2,-1 2,-2l0 -3zm19 14c0,0 0,0 0,1l0 18c0,0 0,0 0,0l-5 0c0,0 0,0 0,0 0,-2 1,0 2,-16l0 -2c0,-1 0,-1 1,-1l2 0zm-9 -7c-1,0 -1,1 -1,2l0 2c-1,11 -2,18 -2,20 -1,1 -1,2 -2,2l-1 0c-1,0 -1,2 -1,2l0 10c0,2 1,2 1,2l5 0c0,0 1,0 1,-2l0 -4c0,-1 1,-1 1,-1l11 0c1,0 1,0 1,1l0 4c0,1 0,2 1,2l5 0c0,0 1,0 1,-2l0 -10c0,-1 -1,-2 -1,-2l-1 0c-1,0 -1,0 -1,0l0 -24c0,-2 -1,-2 -1,-2l-16 0zm45 8c0,0 0,-1 1,-1l8 0c1,0 1,-1 1,-1l0 -4c0,-2 0,-2 -1,-2l-16 0c0,0 -1,0 -1,2l0 29c0,1 0,2 1,2l5 0c1,0 2,0 2,-2l0 -23zm26 16c0,1 -1,2 -3,2 -2,0 -2,-1 -2,-3 0,-3 1,-5 3,-6l1 -1c1,0 1,0 1,1l0 7zm8 -15c0,-4 -1,-9 -11,-9 -8,0 -9,2 -9,3l0 4c0,0 1,1 1,1 1,0 2,-1 3,-1 2,-1 3,-1 4,-1 2,0 4,1 4,2 0,1 0,1 -1,1l-1 1c-5,2 -12,4 -12,13 0,7 4,10 8,10 2,0 4,0 5,-1 0,0 0,0 1,0 0,0 0,0 0,0 0,1 0,1 1,1l5 0c2,0 2,-1 2,-1l0 -1 0 -22zm4 4c0,4 0,10 8,10 3,0 4,-1 5,-1 0,0 0,0 0,1l0 8c0,1 0,2 2,2l5 0c1,0 1,0 1,-2l0 -29c0,-2 0,-2 -1,-2l-5 0c-1,0 -2,0 -2,2l0 11c0,2 -1,3 -2,3 -3,0 -3,-3 -3,-4l0 -10c0,-2 -1,-2 -2,-2l-4 0c-1,0 -2,0 -2,2l0 11zm32 20c1,0 2,0 2,-2l0 -11c0,-1 0,-1 1,-1l1 0c3,0 3,2 3,4l0 8c0,2 1,2 2,2l4 0c1,0 2,0 2,-2l0 -10c0,-4 -4,-5 -4,-6 0,0 1,0 1,-1 1,-1 1,-2 1,-3l0 -4c0,-1 1,-1 1,-1l1 0c0,0 1,0 1,-1l0 -3c0,-2 -1,-2 -2,-2l-3 0c-5,0 -6,4 -6,6l0 4c0,2 -1,3 -2,3l0 0c-1,0 -1,-1 -1,-1l0 -10c0,-2 -1,-2 -2,-2l-4 0c-1,0 -2,0 -2,2l0 29c0,1 0,2 2,2l4 0zm33 -9c0,1 -1,2 -3,2 -2,0 -2,-1 -2,-3 0,-3 1,-5 3,-6l1 -1c0,0 1,0 1,1l0 7zm8 -15c0,-4 -1,-9 -11,-9 -8,0 -9,2 -9,3l0 4c0,0 1,1 1,1 1,0 1,-1 3,-1 1,-1 3,-1 4,-1 2,0 4,1 4,2 0,1 0,1 -1,1l-1 1c-5,2 -12,4 -12,13 0,7 4,10 8,10 2,0 4,0 5,-1 0,0 0,0 1,0 0,0 0,0 0,0 0,1 0,1 1,1l5 0c1,0 2,-1 2,-1l0 -1 0 -22zm19 1c0,0 -1,0 -1,1l0 3c0,0 0,1 1,1l23 0c1,0 1,-1 1,-1l0 -3c0,0 0,-1 -1,-1l-23 0zm56 -3c1,0 1,0 1,1l0 18c0,0 0,0 -1,0l-4 0c-1,0 -1,0 -1,0 0,-2 1,0 2,-16l0 -2c0,-1 1,-1 1,-1l2 0zm-8 -7c-2,0 -2,1 -2,2l0 2c0,11 -2,18 -2,20 0,1 -1,2 -2,2l-1 0c-1,0 -1,2 -1,2l0 10c0,2 1,2 2,2l4 0c1,0 2,0 2,-2l0 -4c0,-1 0,-1 1,-1l10 0c1,0 1,0 1,1l0 4c0,1 0,2 2,2l4 0c1,0 2,0 2,-2l0 -10c0,-1 -1,-2 -2,-2l-1 0c0,0 0,0 0,0l0 -24c0,-2 -1,-2 -2,-2l-15 0zm30 10c0,-3 2,-4 3,-4 2,0 4,1 4,4l0 13c0,3 -2,4 -4,4 -1,0 -3,-1 -3,-4l0 -13zm-8 12c0,4 1,11 11,11 10,0 12,-7 12,-11l0 -10c0,-5 -2,-12 -12,-12 -10,0 -11,7 -11,12l0 10zm40 -9c0,4 0,10 8,10 3,0 4,-1 5,-1 0,0 0,0 0,1l0 8c0,1 0,2 2,2l5 0c0,0 1,0 1,-2l0 -29c0,-2 -1,-2 -1,-2l-5 0c-1,0 -2,0 -2,2l0 11c0,2 -1,3 -2,3 -3,0 -3,-3 -3,-4l0 -10c0,-2 -1,-2 -2,-2l-5 0c0,0 -1,0 -1,2l0 11zm34 -3c0,-3 1,-4 3,-4 1,0 3,1 3,4l0 13c0,3 -2,4 -3,4 -2,0 -3,-1 -3,-4l0 -13zm-8 12c0,4 1,11 11,11 10,0 11,-7 11,-11l0 -10c0,-5 -1,-12 -11,-12 -10,0 -11,7 -11,12l0 10zm34 -3c0,0 0,0 1,0l2 0c2,0 3,2 3,4 0,2 -1,4 -4,4l-1 0c0,0 -1,-1 -1,-1l0 -7zm0 -12c0,0 1,0 1,0l1 0c2,0 3,1 3,2 0,2 -1,3 -3,3l-1 0c0,0 -1,0 -1,0l0 -5zm-8 24c0,1 0,2 2,2l9 0c3,0 12,0 12,-10 0,-4 -2,-6 -4,-7 0,-1 -1,-1 -1,-1 0,0 0,0 0,0 1,-1 4,-3 4,-7 0,-4 -3,-8 -10,-8l-10 0c-1,0 -2,0 -2,2l0 29zm27 0c0,1 0,2 2,2l4 0c1,0 2,0 2,-2l0 -11c0,-1 0,-1 1,-1l4 0c0,0 1,0 1,1l0 11c0,2 1,2 1,2l5 0c2,0 2,-1 2,-2l0 -29c0,-2 -1,-2 -2,-2l-5 0c0,0 -1,0 -1,2l0 9c0,1 -1,1 -1,1l-4 0c-1,0 -1,0 -1,-1l0 -9c0,-2 -1,-2 -2,-2l-4 0c-1,0 -2,0 -2,2l0 29zm39 -7c0,1 -1,2 -2,2 -2,0 -3,-1 -3,-3 0,-3 2,-5 3,-6l1 -1c1,0 1,0 1,1l0 7zm8 -15c0,-4 -1,-9 -11,-9 -8,0 -8,2 -8,3l0 4c0,0 0,1 1,1 0,0 1,-1 3,-1 1,-1 2,-1 4,-1 1,0 3,1 3,2 0,1 0,1 0,1l-2 1c-5,2 -11,4 -11,13 0,7 3,10 8,10 1,0 3,0 4,-1 1,0 1,0 1,0 1,0 0,0 0,0 0,1 1,1 2,1l5 0c1,0 1,-1 1,-1l0 -1 0 -22zm14 17c0,-1 0,-2 -1,-2l-6 0c-1,0 -1,0 -1,2l0 5c0,1 0,2 1,2l6 0c0,0 1,0 1,-2l0 -5zm-3 -4c1,0 1,0 1,-1l2 -9c0,0 0,-2 0,-3l0 -15c0,-1 0,-2 -2,-2l-4 0c-2,0 -2,1 -2,2l0 15c0,1 0,3 0,3l1 9c1,1 1,1 2,1l2 0zm-529 62c0,0 0,1 -1,1l-6 0c0,0 0,0 0,-1 -1,0 0,0 0,0 2,-12 1,-6 3,-21l0 -3c0,-1 0,-1 1,-1l3 0c0,0 0,0 0,1l0 24zm-11 -33c-1,0 -2,0 -2,2l0 5c0,4 0,13 -2,22 -1,1 -1,5 -3,5l0 0c-1,0 -2,0 -2,2l0 11c0,1 0,2 2,2l4 0c1,0 2,0 2,-2l0 -4c0,-1 0,-1 1,-1l15 0c0,0 1,0 1,0l0 5c0,1 0,2 2,2l4 0c1,0 2,0 2,-2l0 -11c0,-2 -1,-2 -2,-2l-1 0c-1,0 -1,0 -1,-1l0 -31c0,-1 0,-2 -2,-2l-18 0zm26 9c-1,0 -1,1 -1,1l7 30c0,1 0,3 -2,3 -1,0 -1,0 -2,0 0,0 -1,0 -1,0 -1,0 -1,0 -1,1l0 4c0,1 0,2 5,2 8,0 10,-5 11,-9l7 -31c0,0 0,-1 -2,-1l-5 0c-1,0 -2,0 -2,1l-2 14c0,1 -1,2 -1,2 -1,0 -1,-1 -1,-2l-3 -14c0,0 0,-1 -1,-1l-6 0zm45 33c0,0 1,-1 1,-2l0 -12c0,0 0,0 1,0l1 0c3,0 3,2 3,3l0 9c0,1 1,2 2,2l5 0c0,0 1,-1 1,-2l0 -10c0,-5 -4,-5 -4,-6 0,0 1,-1 1,-1 1,-1 1,-2 1,-3l0 -4c0,-1 1,-2 1,-2l1 0c0,0 1,0 1,-1l0 -3c0,-1 -1,-1 -2,-1l-3 0c-3,0 -5,2 -5,5l0 4c0,3 -2,3 -2,3l-1 0c-1,0 -1,0 -1,-1l0 -10c0,-1 -1,-1 -1,-1l-5 0c-1,0 -2,0 -2,1l0 10c0,1 0,1 0,1l-1 0c-1,0 -2,0 -2,-3l0 -4c0,-3 -2,-5 -6,-5l-3 0c0,0 -1,0 -1,1l0 3c0,1 1,1 1,1l0 0c1,0 1,1 1,2l0 4c0,1 1,2 1,3 1,0 1,1 1,1 0,1 -4,1 -4,6l0 10c0,1 1,2 2,2l5 0c1,0 1,-1 1,-2l0 -9c0,-1 1,-3 3,-3l2 0c0,0 0,0 0,0l0 12c0,1 1,2 2,2l5 0zm28 -21c-1,0 -1,0 -1,-1l0 -1c0,-1 0,-4 3,-4 3,0 3,3 3,4l0 1c0,0 0,1 0,1l-5 0zm12 6c0,0 1,0 1,-1l0 -6c0,-11 -8,-12 -11,-12 -10,0 -11,8 -11,12l0 10c0,11 9,12 13,12 2,0 5,0 8,-1 1,-1 1,-1 1,-2l0 -4c0,-1 0,-1 -1,-1 -2,0 -5,1 -7,1 -1,0 -6,0 -6,-5l0 -2c0,0 0,-1 1,-1l12 0zm27 1c0,0 0,-1 1,-1l2 0c2,0 3,2 3,4 0,2 -1,4 -4,4l-1 0c0,0 -1,0 -1,0l0 -7zm0 -12c0,-1 1,-1 1,-1l1 0c2,0 3,1 3,3 0,1 -1,3 -3,3l-1 0c0,0 -1,0 -1,-1l0 -4zm-8 24c0,0 0,2 2,2l9 0c3,0 12,-1 12,-10 0,-5 -2,-7 -4,-8 0,0 -1,0 -1,-1 0,0 0,0 0,0 1,-1 4,-2 4,-6 0,-4 -3,-8 -10,-8l-10 0c-1,0 -2,0 -2,1l0 30zm36 -19c-1,0 -1,0 -1,-1l0 -1c0,-1 0,-4 3,-4 3,0 3,3 3,4l0 1c0,0 0,1 0,1l-5 0zm12 6c0,0 1,0 1,-1l0 -6c0,-11 -8,-12 -11,-12 -10,0 -11,8 -11,12l0 10c0,11 9,12 13,12 2,0 5,0 8,-1 1,-1 1,-1 1,-2l0 -4c0,-1 0,-1 -1,-1 -2,0 -5,1 -7,1 -1,0 -6,0 -6,-5l0 -2c0,0 0,-1 1,-1l12 0zm11 -18c-2,0 -2,1 -2,1l0 10c0,11 0,15 -3,15l-1 0c-1,0 -2,0 -2,2l0 4c0,1 2,1 4,1 9,0 10,-7 10,-20l0 -6c0,0 0,0 1,0l2 0c1,0 1,0 1,0l0 24c0,1 1,2 2,2l4 0c2,0 2,-1 2,-2l0 -30c0,-1 -1,-1 -2,-1l-16 0zm29 33c1,0 2,-1 2,-2l5 -14c0,0 1,0 1,0 0,0 0,0 0,0l0 14c0,1 1,2 2,2l4 0c1,0 2,-1 2,-2l0 -30c0,-1 -1,-1 -2,-1l-4 0c-1,0 -2,0 -3,1l-5 14c0,0 0,0 0,0 -1,0 -1,0 -1,0l0 -14c0,-1 0,-1 -1,-1l-5 0c0,0 -1,0 -1,1l0 30c0,1 0,2 1,2l5 0zm27 0c1,0 2,-1 2,-2l0 -12c0,0 0,0 0,0l2 0c2,0 2,2 2,3l0 9c0,1 1,2 2,2l5 0c1,0 1,-1 1,-2l0 -10c0,-5 -3,-5 -3,-6 0,0 0,0 1,-1 0,-1 1,-2 1,-3l0 -4c0,-1 0,-2 0,-2l1 0c0,0 1,0 1,-1l0 -3c0,-1 -1,-1 -1,-1l-4 0c-5,0 -5,4 -5,5l0 4c0,3 -1,3 -2,3l-1 0c0,0 0,0 0,-1l0 -10c0,-1 -1,-1 -2,-1l-5 0c-1,0 -1,0 -1,1l0 30c0,1 0,2 1,2l5 0zm26 0c0,0 1,-1 2,-2l5 -14c0,0 0,0 0,0 1,0 1,0 1,0l0 14c0,1 1,2 1,2l5 0c1,0 1,-1 1,-2l0 -30c0,-1 0,-1 -1,-1l-5 0c-1,0 -1,0 -2,1l-5 14c0,0 -1,0 -1,0 0,0 0,0 0,0l0 -14c0,-1 -1,-1 -2,-1l-4 0c-1,0 -2,0 -2,1l0 30c0,1 0,2 2,2l5 0zm27 0c0,0 1,-1 2,-2l5 -14c0,0 0,0 0,0 0,0 1,0 1,0l0 14c0,1 0,2 1,2l5 0c0,0 1,-1 1,-2l0 -30c0,-1 -1,-1 -1,-1l-5 0c-1,0 -2,0 -2,1l-5 14c-1,0 -1,0 -1,0 0,0 0,0 0,0l0 -14c0,-1 -1,-1 -2,-1l-4 0c-1,0 -2,0 -2,1l0 30c0,1 0,2 2,2l5 0zm8 -36c3,0 4,-1 4,-3l0 -1c0,-1 0,-1 -1,-1l-3 0c0,0 -1,0 -1,1l0 0c0,1 -1,1 -2,1l-2 0c-1,0 -2,0 -2,-1l0 0c0,-1 0,-1 -1,-1l-3 0c0,0 0,0 0,1l0 1c0,2 1,3 3,3l8 0zm34 22c0,0 0,-1 0,-1l2 0c2,0 4,2 4,4 0,2 -2,4 -4,4l-2 0c0,0 0,0 0,0l0 -7zm0 -12c0,-1 0,-1 0,-1l1 0c2,0 3,1 3,3 0,1 -1,3 -2,3l-2 0c0,0 0,0 0,-1l0 -4zm-8 24c0,0 0,2 1,2l10 0c2,0 11,-1 11,-10 0,-5 -1,-7 -3,-8 -1,0 -1,0 -2,-1 0,0 0,0 1,0 1,-1 3,-2 3,-6 0,-4 -3,-8 -9,-8l-11 0c0,0 -1,0 -1,1l0 30zm33 2c1,0 1,-1 2,-2l5 -14c0,0 0,0 1,0 0,0 0,0 0,0l0 14c0,1 1,2 1,2l5 0c1,0 2,-1 2,-2l0 -30c0,-1 -1,-1 -2,-1l-5 0c0,0 -1,0 -2,1l-5 14c0,0 0,0 -1,0 0,0 0,0 0,0l0 -14c0,-1 -1,-1 -2,-1l-4 0c-1,0 -2,0 -2,1l0 30c0,1 0,2 2,2l5 0zm28 -23c0,-3 2,-4 3,-4 2,0 3,1 3,4l0 13c0,3 -1,3 -3,3 -1,0 -3,0 -3,-3l0 -13zm8 -19c-1,0 -1,0 -1,1 0,0 -1,1 -2,1 -13,3 -13,10 -13,17l0 11c0,5 1,12 11,12 10,0 11,-7 11,-12l0 -10c0,-1 0,-11 -10,-11 -3,0 -2,0 -4,0 0,0 0,0 0,0 0,-2 4,-2 6,-2 4,-1 8,-1 8,-6 0,-1 0,-1 -1,-1l-5 0zm19 10c0,-1 -1,-1 -2,-1l-5 0c0,0 -1,0 -1,1l0 30c0,1 0,2 1,2l5 0c1,0 2,-1 2,-2l0 -30zm0 -9c0,-1 -1,-2 -2,-2l-5 0c-1,0 -1,1 -1,2l0 4c0,0 0,1 1,1l5 0c2,0 2,-1 2,-1l0 -4zm12 18c0,-1 1,-3 3,-3 3,0 3,2 3,3l0 12c0,1 0,4 -3,4 -2,0 -3,-3 -3,-4l0 -12zm-8 29c0,1 0,2 2,2l5 0c0,0 1,0 1,-2l0 -7c0,-1 0,-1 1,-1 1,0 1,2 5,2 8,0 8,-7 8,-11l0 -12c0,-3 0,-11 -7,-11 -5,0 -5,3 -6,3 0,0 -1,0 -1,-1l0 0c0,-1 0,-1 -1,-1l-5 0c-1,0 -2,0 -2,1l0 38zm40 -26c0,3 0,10 8,10 3,0 4,-1 5,-1 0,0 0,0 0,0l0 9c0,1 0,2 2,2l5 0c1,0 1,-1 1,-2l0 -30c0,-1 0,-1 -1,-1l-5 0c-1,0 -2,0 -2,1l0 11c0,2 -1,3 -2,3 -3,0 -3,-2 -3,-3l0 -11c0,-1 -1,-1 -2,-1l-4 0c-1,0 -2,0 -2,1l0 12zm34 -3c0,-3 1,-4 3,-4 1,0 3,1 3,4l0 13c0,3 -2,3 -3,3 -2,0 -3,0 -3,-3l0 -13zm-8 11c0,5 1,12 11,12 10,0 11,-7 11,-12l0 -10c0,-4 -1,-12 -11,-12 -10,0 -11,8 -11,12l0 10z"/>
   </g>
   <g>
    <path class="fil0 str0" d="M537 92c0,0 0,-1 1,-1l2 0c2,0 3,2 3,4 0,2 -1,4 -4,4l-1 0c0,0 -1,0 -1,0l0 -7zm0 -12c0,-1 1,-1 1,-1l1 0c2,0 3,1 3,3 0,1 -1,3 -3,3l-1 0c0,0 -1,0 -1,-1l0 -4zm-8 24c0,0 0,2 2,2l9 0c3,0 12,-1 12,-10 0,-5 -2,-7 -4,-8 0,0 -1,0 -1,-1 0,0 0,0 0,0 1,-1 4,-2 4,-6 0,-4 -3,-8 -10,-8l-10 0c-1,0 -2,0 -2,1l0 30zm27 0c0,1 0,2 2,2l5 0c0,0 1,-1 1,-2l0 -12c0,0 0,0 1,0l4 0c0,0 1,0 1,0l0 12c0,1 1,2 1,2l5 0c2,0 2,-1 2,-2l0 -30c0,-1 -1,-1 -2,-1l-5 0c0,0 -1,0 -1,1l0 10c0,0 -1,1 -1,1l-4 0c-1,0 -1,-1 -1,-1l0 -10c0,-1 -1,-1 -1,-1l-5 0c-1,0 -2,0 -2,1l0 30zm34 -30c0,-1 0,-1 -1,-1l-5 0c-1,0 -2,0 -2,1l0 30c0,1 0,2 2,2l5 0c1,0 1,-1 1,-2l0 -30zm0 -9c0,-1 0,-2 -1,-2l-5 0c-2,0 -2,1 -2,2l0 4c0,0 0,1 2,1l5 0c1,0 1,-1 1,-1l0 -4zm13 27c0,0 0,-1 1,-1l1 0c3,0 4,2 4,4 0,2 -1,4 -4,4l-1 0c-1,0 -1,0 -1,0l0 -7zm0 -12c0,-1 0,-1 1,-1l1 0c2,0 3,1 3,3 0,1 -1,3 -3,3l-1 0c-1,0 -1,0 -1,-1l0 -4zm-8 24c0,0 0,2 1,2l10 0c2,0 12,-1 12,-10 0,-5 -2,-7 -4,-8 0,0 -1,0 -1,-1 0,0 0,0 0,0 1,-1 3,-2 3,-6 0,-4 -2,-8 -9,-8l-10 0c-1,0 -2,0 -2,1l0 30zm36 -5c0,-1 0,-2 -2,-2l-5 0c-1,0 -2,0 -2,2l0 5c0,1 0,2 2,2l5 0c1,0 2,-1 2,-2l0 -5zm-3 -4c1,0 1,-1 1,-2l2 -8c0,-1 0,-3 0,-3l0 -16c0,-1 0,-2 -2,-2l-5 0c-2,0 -2,1 -2,2l0 16c0,0 1,2 1,3l1 8c0,1 0,2 2,2l2 0z"/>
    <path id="1" class="fil1" d="M537 92c0,0 0,-1 1,-1l2 0c2,0 3,2 3,4 0,2 -1,4 -4,4l-1 0c0,0 -1,0 -1,0l0 -7zm0 -12c0,-1 1,-1 1,-1l1 0c2,0 3,1 3,3 0,1 -1,3 -3,3l-1 0c0,0 -1,0 -1,-1l0 -4zm-8 24c0,0 0,2 2,2l9 0c3,0 12,-1 12,-10 0,-5 -2,-7 -4,-8 0,0 -1,0 -1,-1 0,0 0,0 0,0 1,-1 4,-2 4,-6 0,-4 -3,-8 -10,-8l-10 0c-1,0 -2,0 -2,1l0 30zm27 0c0,1 0,2 2,2l5 0c0,0 1,-1 1,-2l0 -12c0,0 0,0 1,0l4 0c0,0 1,0 1,0l0 12c0,1 1,2 1,2l5 0c2,0 2,-1 2,-2l0 -30c0,-1 -1,-1 -2,-1l-5 0c0,0 -1,0 -1,1l0 10c0,0 -1,1 -1,1l-4 0c-1,0 -1,-1 -1,-1l0 -10c0,-1 -1,-1 -1,-1l-5 0c-1,0 -2,0 -2,1l0 30zm34 -30c0,-1 0,-1 -1,-1l-5 0c-1,0 -2,0 -2,1l0 30c0,1 0,2 2,2l5 0c1,0 1,-1 1,-2l0 -30zm0 -9c0,-1 0,-2 -1,-2l-5 0c-2,0 -2,1 -2,2l0 4c0,0 0,1 2,1l5 0c1,0 1,-1 1,-1l0 -4zm13 27c0,0 0,-1 1,-1l1 0c3,0 4,2 4,4 0,2 -1,4 -4,4l-1 0c-1,0 -1,0 -1,0l0 -7zm0 -12c0,-1 0,-1 1,-1l1 0c2,0 3,1 3,3 0,1 -1,3 -3,3l-1 0c-1,0 -1,0 -1,-1l0 -4zm-8 24c0,0 0,2 1,2l10 0c2,0 12,-1 12,-10 0,-5 -2,-7 -4,-8 0,0 -1,0 -1,-1 0,0 0,0 0,0 1,-1 3,-2 3,-6 0,-4 -2,-8 -9,-8l-10 0c-1,0 -2,0 -2,1l0 30zm36 -5c0,-1 0,-2 -2,-2l-5 0c-1,0 -2,0 -2,2l0 5c0,1 0,2 2,2l5 0c1,0 2,-1 2,-2l0 -5zm-3 -4c1,0 1,-1 1,-2l2 -8c0,-1 0,-3 0,-3l0 -16c0,-1 0,-2 -2,-2l-5 0c-2,0 -2,1 -2,2l0 16c0,0 1,2 1,3l1 8c0,1 0,2 2,2l2 0z"/>
   </g>
  </g>
 </g>
</svg>
