<?xml version="1.0" encoding="UTF-8"?>
<!DOCTYPE svg PUBLIC "-//W3C//DTD SVG 1.1//EN" "http://www.w3.org/Graphics/SVG/1.1/DTD/svg11.dtd">
<!-- Creator: CorelDRAW X7 -->
<svg xmlns="http://www.w3.org/2000/svg" xml:space="preserve" width="26.884mm" height="4.4072mm" version="1.1" style="shape-rendering:geometricPrecision; text-rendering:geometricPrecision; image-rendering:optimizeQuality; fill-rule:evenodd; clip-rule:evenodd"
viewBox="0 0 2568 421"
 xmlns:xlink="http://www.w3.org/1999/xlink">
 <defs>
  <style type="text/css">
   <![CDATA[
    .str1 {stroke:#393185;stroke-width:7.2788}
    .str0 {stroke:#FEFEFE;stroke-width:95.5223;stroke-linecap:round;stroke-linejoin:round}
    .fil0 {fill:none;fill-rule:nonzero}
    .fil2 {fill:#FEFEFE;fill-rule:nonzero}
    .fil1 {fill:#393185;fill-rule:nonzero}
   ]]>
  </style>
 </defs>
 <g id="Слой_x0020_1">
  <metadata id="CorelCorpID_0Corel-Layer"/>
  <g>
   <path class="fil0 str0" d="M81 166c-2,0 -3,-1 -3,-3l0 -30c0,-1 0,-3 3,-3l9 0c16,0 22,9 22,18 0,10 -7,18 -22,18l-9 0zm1 -63c-2,0 -4,-1 -4,-2l0 -22c0,-2 1,-3 4,-3l6 0c16,0 19,7 19,14 0,7 -5,13 -19,13l-6 0zm-34 82c0,5 2,7 6,7l43 0c35,0 47,-19 47,-41 0,-18 -9,-31 -24,-36l0 -1c13,-5 19,-16 19,-29 0,-18 -13,-36 -46,-36l-39 0c-6,0 -6,4 -6,6l0 130zm186 -131c0,-3 -1,-6 -24,-6 -41,0 -48,22 -48,41l0 58c0,22 4,47 46,47 25,0 28,-4 28,-9l0 -18c0,-1 0,-4 -3,-4 -13,0 -5,3 -19,3 -17,0 -22,-6 -22,-30l0 -34c0,-14 0,-29 21,-29 9,0 16,3 18,3 3,0 3,-2 3,-3l0 -19zm17 131c0,7 4,7 7,7l70 0c7,0 7,-3 7,-7l0 -14c0,-3 0,-5 -6,-5l-45 0c-3,0 -3,-1 -3,-3l0 -29c0,-1 0,-3 3,-3l32 0c4,0 4,-3 4,-4l0 -19c0,-1 0,-4 -4,-4l-32 0c-3,0 -3,-2 -3,-3l0 -22c0,-3 3,-3 4,-3l41 0c2,0 6,0 6,-5l0 -14c0,-4 0,-8 -7,-8l-67 0c-7,0 -7,4 -7,8l0 128zm211 -22c0,1 0,3 -3,3l-21 0c-2,0 -3,-1 -3,-2 0,0 0,-1 0,-1 7,-42 6,-22 10,-72l1 -13c0,-2 2,-2 3,-2l10 0c2,0 3,2 3,2l0 85zm-38 -114c-4,0 -7,0 -7,6l-1 16c0,16 -1,45 -8,78 -1,5 -3,17 -8,17l-2 0c-4,0 -7,0 -7,7l0 38c0,4 0,7 7,7l15 0c4,0 7,0 7,-7l0 -15c0,-1 0,-4 4,-4l49 0c3,0 4,1 4,3l0 16c0,4 0,7 7,7l15 0c3,0 7,0 7,-7l0 -38c0,-7 -4,-7 -7,-7l-5 0c-2,0 -2,-1 -2,-3l0 -106c0,-4 0,-8 -7,-8l-61 0zm115 0c-8,0 -8,4 -8,8l0 32c0,75 -3,75 -15,75l-2 0c-5,0 -5,2 -5,5l0 17c0,6 3,7 14,7 35,0 38,-31 38,-68 0,-8 0,-15 0,-23l1 -24c0,-3 2,-3 2,-3l18 0c2,0 4,1 4,4l0 106c0,4 0,7 7,7l16 0c6,0 7,-3 7,-7l0 -128c0,-4 0,-8 -7,-8l-70 0zm158 54c0,2 0,4 -3,4l-10 0c-11,0 -18,-6 -18,-16 0,-7 4,-16 18,-16l9 0c3,0 4,2 4,4l0 24zm-15 -54c-38,0 -49,23 -49,40 0,10 3,23 15,32 4,3 8,3 8,5 0,1 0,2 -1,4l-26 55c-2,4 0,7 4,7l21 0c6,0 7,-2 8,-4l24 -53c1,-2 3,-3 5,-3l4 0c2,0 2,1 2,2l0 51c0,4 0,7 7,7l16 0c3,0 7,0 7,-7l0 -128c0,-4 0,-8 -7,-8l-38 0zm141 59c-1,0 -2,-1 -2,-2l0 -28c0,-2 1,-3 3,-3l11 0c14,0 19,9 19,17 0,10 -9,16 -19,16l-12 0zm-25 -59c-7,0 -7,4 -7,8l0 128c0,7 3,7 7,7l16 0c3,0 7,0 7,-7l0 -47c0,-2 1,-3 3,-3l13 0c6,0 49,0 49,-42 0,-15 -5,-44 -51,-44l-37 0zm123 143c7,0 8,-3 9,-7l27 -70 0 0 0 70c0,4 0,7 7,7l16 0c7,0 7,-3 7,-7l0 -128c0,-4 0,-8 -7,-8l-16 0c-6,0 -7,4 -8,8l-27 66 0 0 0 -66c0,-4 0,-8 -8,-8l-16 0c-7,0 -7,4 -7,8l0 128c0,7 4,7 7,7l16 0zm113 -63c0,-1 1,-2 3,-2l10 0c13,0 20,8 20,20 0,11 -9,19 -20,19l-10 0c-2,0 -3,-1 -3,-3l0 -34zm-23 -80c-7,0 -7,4 -7,8l0 128c0,3 0,7 7,7l36 0c34,0 52,-20 52,-46 0,-16 -6,-46 -53,-46l-10 0c-2,0 -2,-1 -2,-3l0 -19c0,-2 1,-2 3,-2l47 0c2,0 4,-1 4,-4l0 -19c0,-1 0,-4 -4,-4l-73 0zm140 92c-2,0 -2,-1 -2,-2 0,-1 0,-1 0,-2l8 -36c0,-1 1,-2 1,-2 1,0 1,1 2,2l9 36c0,1 0,1 0,2 0,1 -1,2 -2,2l-16 0zm-5 -92c-3,0 -5,1 -7,6l-31 131c-1,2 -1,6 3,6l20 0c5,0 5,-3 6,-5l4 -16c0,-2 2,-3 4,-3l28 0c2,0 3,0 4,3l4 15c1,3 2,6 6,6l20 0c6,0 5,-4 4,-6l-33 -131c-1,-5 -3,-6 -6,-6l-26 0zm98 0c-7,0 -7,4 -7,8l0 32c0,75 -3,75 -16,75l-2 0c-4,0 -5,2 -5,5l0 17c0,6 3,7 14,7 35,0 38,-31 38,-68 0,-8 0,-15 1,-23l0 -24c0,-3 2,-3 3,-3l17 0c2,0 4,1 4,4l0 106c0,4 0,7 7,7l16 0c7,0 7,-3 7,-7l0 -128c0,-4 0,-8 -7,-8l-70 0zm94 136c0,7 3,7 7,7l16 0c3,0 7,0 7,-7l0 -51c0,-1 1,-3 2,-3l10 0c5,0 16,1 16,20l0 34c0,4 0,7 7,7l16 0c7,0 7,-3 7,-7l0 -43c0,-23 -14,-22 -17,-27l0 -1c2,-3 11,-2 11,-17l0 -16c0,-3 0,-8 4,-8l4 0c1,0 5,0 5,-5l0 -13c0,-4 -3,-6 -7,-6l-13 0c-12,0 -22,8 -22,24l0 16c0,12 -5,14 -11,14l-9 0c-3,0 -3,-1 -3,-2l0 -44c0,-4 0,-8 -7,-8l-16 0c-7,0 -7,4 -7,8l0 128zm129 7c6,0 8,-3 9,-7l26 -70 1 0 0 70c0,4 0,7 7,7l16 0c7,0 7,-3 7,-7l0 -128c0,-4 0,-8 -7,-8l-17 0c-5,0 -6,4 -7,8l-27 66 -1 0 0 -66c0,-4 0,-8 -7,-8l-16 0c-7,0 -7,4 -7,8l0 128c0,7 3,7 7,7l16 0zm115 -24c0,-2 -1,-5 -6,-5l-19 0c-2,0 -6,0 -6,5l0 18c0,3 1,6 6,6l19 0c3,0 6,0 6,-6l0 -18zm-11 -12c4,0 4,-3 4,-6l6 -30c0,-2 1,-8 1,-11l0 -52c0,-4 0,-8 -8,-8l-15 0c-8,0 -8,4 -8,8l0 52c0,3 1,9 1,11l6 30c0,3 0,6 4,6l9 0z"/>
   <path id="1" class="fil1" d="M81 166c-2,0 -3,-1 -3,-3l0 -30c0,-1 0,-3 3,-3l9 0c16,0 22,9 22,18 0,10 -7,18 -22,18l-9 0zm1 -63c-2,0 -4,-1 -4,-2l0 -22c0,-2 1,-3 4,-3l6 0c16,0 19,7 19,14 0,7 -5,13 -19,13l-6 0zm-34 82c0,5 2,7 6,7l43 0c35,0 47,-19 47,-41 0,-18 -9,-31 -24,-36l0 -1c13,-5 19,-16 19,-29 0,-18 -13,-36 -46,-36l-39 0c-6,0 -6,4 -6,6l0 130zm186 -131c0,-3 -1,-6 -24,-6 -41,0 -48,22 -48,41l0 58c0,22 4,47 46,47 25,0 28,-4 28,-9l0 -18c0,-1 0,-4 -3,-4 -13,0 -5,3 -19,3 -17,0 -22,-6 -22,-30l0 -34c0,-14 0,-29 21,-29 9,0 16,3 18,3 3,0 3,-2 3,-3l0 -19zm17 131c0,7 4,7 7,7l70 0c7,0 7,-3 7,-7l0 -14c0,-3 0,-5 -6,-5l-45 0c-3,0 -3,-1 -3,-3l0 -29c0,-1 0,-3 3,-3l32 0c4,0 4,-3 4,-4l0 -19c0,-1 0,-4 -4,-4l-32 0c-3,0 -3,-2 -3,-3l0 -22c0,-3 3,-3 4,-3l41 0c2,0 6,0 6,-5l0 -14c0,-4 0,-8 -7,-8l-67 0c-7,0 -7,4 -7,8l0 128zm211 -22c0,1 0,3 -3,3l-21 0c-2,0 -3,-1 -3,-2 0,0 0,-1 0,-1 7,-42 6,-22 10,-72l1 -13c0,-2 2,-2 3,-2l10 0c2,0 3,2 3,2l0 85zm-38 -114c-4,0 -7,0 -7,6l-1 16c0,16 -1,45 -8,78 -1,5 -3,17 -8,17l-2 0c-4,0 -7,0 -7,7l0 38c0,4 0,7 7,7l15 0c4,0 7,0 7,-7l0 -15c0,-1 0,-4 4,-4l49 0c3,0 4,1 4,3l0 16c0,4 0,7 7,7l15 0c3,0 7,0 7,-7l0 -38c0,-7 -4,-7 -7,-7l-5 0c-2,0 -2,-1 -2,-3l0 -106c0,-4 0,-8 -7,-8l-61 0zm115 0c-8,0 -8,4 -8,8l0 32c0,75 -3,75 -15,75l-2 0c-5,0 -5,2 -5,5l0 17c0,6 3,7 14,7 35,0 38,-31 38,-68 0,-8 0,-15 0,-23l1 -24c0,-3 2,-3 2,-3l18 0c2,0 4,1 4,4l0 106c0,4 0,7 7,7l16 0c6,0 7,-3 7,-7l0 -128c0,-4 0,-8 -7,-8l-70 0zm158 54c0,2 0,4 -3,4l-10 0c-11,0 -18,-6 -18,-16 0,-7 4,-16 18,-16l9 0c3,0 4,2 4,4l0 24zm-15 -54c-38,0 -49,23 -49,40 0,10 3,23 15,32 4,3 8,3 8,5 0,1 0,2 -1,4l-26 55c-2,4 0,7 4,7l21 0c6,0 7,-2 8,-4l24 -53c1,-2 3,-3 5,-3l4 0c2,0 2,1 2,2l0 51c0,4 0,7 7,7l16 0c3,0 7,0 7,-7l0 -128c0,-4 0,-8 -7,-8l-38 0zm141 59c-1,0 -2,-1 -2,-2l0 -28c0,-2 1,-3 3,-3l11 0c14,0 19,9 19,17 0,10 -9,16 -19,16l-12 0zm-25 -59c-7,0 -7,4 -7,8l0 128c0,7 3,7 7,7l16 0c3,0 7,0 7,-7l0 -47c0,-2 1,-3 3,-3l13 0c6,0 49,0 49,-42 0,-15 -5,-44 -51,-44l-37 0zm123 143c7,0 8,-3 9,-7l27 -70 0 0 0 70c0,4 0,7 7,7l16 0c7,0 7,-3 7,-7l0 -128c0,-4 0,-8 -7,-8l-16 0c-6,0 -7,4 -8,8l-27 66 0 0 0 -66c0,-4 0,-8 -8,-8l-16 0c-7,0 -7,4 -7,8l0 128c0,7 4,7 7,7l16 0zm113 -63c0,-1 1,-2 3,-2l10 0c13,0 20,8 20,20 0,11 -9,19 -20,19l-10 0c-2,0 -3,-1 -3,-3l0 -34zm-23 -80c-7,0 -7,4 -7,8l0 128c0,3 0,7 7,7l36 0c34,0 52,-20 52,-46 0,-16 -6,-46 -53,-46l-10 0c-2,0 -2,-1 -2,-3l0 -19c0,-2 1,-2 3,-2l47 0c2,0 4,-1 4,-4l0 -19c0,-1 0,-4 -4,-4l-73 0zm140 92c-2,0 -2,-1 -2,-2 0,-1 0,-1 0,-2l8 -36c0,-1 1,-2 1,-2 1,0 1,1 2,2l9 36c0,1 0,1 0,2 0,1 -1,2 -2,2l-16 0zm-5 -92c-3,0 -5,1 -7,6l-31 131c-1,2 -1,6 3,6l20 0c5,0 5,-3 6,-5l4 -16c0,-2 2,-3 4,-3l28 0c2,0 3,0 4,3l4 15c1,3 2,6 6,6l20 0c6,0 5,-4 4,-6l-33 -131c-1,-5 -3,-6 -6,-6l-26 0zm98 0c-7,0 -7,4 -7,8l0 32c0,75 -3,75 -16,75l-2 0c-4,0 -5,2 -5,5l0 17c0,6 3,7 14,7 35,0 38,-31 38,-68 0,-8 0,-15 1,-23l0 -24c0,-3 2,-3 3,-3l17 0c2,0 4,1 4,4l0 106c0,4 0,7 7,7l16 0c7,0 7,-3 7,-7l0 -128c0,-4 0,-8 -7,-8l-70 0zm94 136c0,7 3,7 7,7l16 0c3,0 7,0 7,-7l0 -51c0,-1 1,-3 2,-3l10 0c5,0 16,1 16,20l0 34c0,4 0,7 7,7l16 0c7,0 7,-3 7,-7l0 -43c0,-23 -14,-22 -17,-27l0 -1c2,-3 11,-2 11,-17l0 -16c0,-3 0,-8 4,-8l4 0c1,0 5,0 5,-5l0 -13c0,-4 -3,-6 -7,-6l-13 0c-12,0 -22,8 -22,24l0 16c0,12 -5,14 -11,14l-9 0c-3,0 -3,-1 -3,-2l0 -44c0,-4 0,-8 -7,-8l-16 0c-7,0 -7,4 -7,8l0 128zm129 7c6,0 8,-3 9,-7l26 -70 1 0 0 70c0,4 0,7 7,7l16 0c7,0 7,-3 7,-7l0 -128c0,-4 0,-8 -7,-8l-17 0c-5,0 -6,4 -7,8l-27 66 -1 0 0 -66c0,-4 0,-8 -7,-8l-16 0c-7,0 -7,4 -7,8l0 128c0,7 3,7 7,7l16 0zm115 -24c0,-2 -1,-5 -6,-5l-19 0c-2,0 -6,0 -6,5l0 18c0,3 1,6 6,6l19 0c3,0 6,0 6,-6l0 -18zm-11 -12c4,0 4,-3 4,-6l6 -30c0,-2 1,-8 1,-11l0 -52c0,-4 0,-8 -8,-8l-15 0c-8,0 -8,4 -8,8l0 52c0,3 1,9 1,11l6 30c0,3 0,6 4,6l9 0z"/>
  </g>
  <path class="fil2 str1" d="M411 295c-5,0 -5,3 -5,6l0 92c0,5 2,5 5,5l11 0c3,0 6,0 6,-5l0 -76c0,-2 1,-3 2,-3l16 0c1,0 2,1 2,3l0 76c0,3 0,5 5,5l12 0c5,0 5,-2 5,-5l0 -92c0,-3 0,-6 -5,-6l-54 0zm94 43c-1,0 -2,-1 -2,-2l0 -20c0,-1 1,-2 2,-2l8 0c11,0 14,6 14,12 0,7 -6,12 -13,12l-9 0zm-18 -43c-5,0 -5,3 -5,6l0 92c0,5 2,5 5,5l11 0c3,0 5,0 5,-5l0 -34c0,-1 1,-2 3,-2l9 0c4,0 36,0 36,-30 0,-11 -4,-32 -37,-32l-27 0zm114 63c0,13 0,22 -10,22 -11,0 -11,-9 -11,-22l0 -23c0,-12 0,-22 11,-22 10,0 10,10 10,22l0 23zm-42 3c0,9 -1,39 32,39 32,0 32,-30 32,-39l0 -28c0,-14 -2,-39 -32,-39 -33,0 -32,29 -32,39l0 28zm121 16c0,1 0,2 -2,2l-15 0c-2,0 -2,0 -3,-1 0,0 0,0 0,-1 6,-30 5,-16 8,-52l1 -9c0,-1 1,-1 2,-1l7 0c2,0 2,1 2,1l0 61zm-27 -82c-3,0 -5,0 -5,5l-1 11c0,12 -1,33 -6,56 -1,4 -2,12 -6,12l-1 0c-3,0 -5,1 -5,5l0 28c0,3 0,5 5,5l11 0c2,0 5,0 5,-5l0 -11c0,-1 0,-3 3,-3l35 0c2,0 3,1 3,3l0 11c0,3 0,5 5,5l10 0c3,0 6,0 6,-5l0 -28c0,-5 -3,-5 -6,-5l-3 0c-2,0 -2,0 -2,-2l0 -76c0,-3 0,-6 -5,-6l-43 0zm92 66c-1,0 -1,0 -1,-1 0,0 0,-1 0,-1l6 -26c0,-1 0,-1 1,-1 0,0 1,0 1,1l6 26c1,0 1,1 1,1 0,1 -1,1 -2,1l-12 0zm-3 -66c-2,0 -4,1 -5,5l-23 94c0,1 0,4 3,4l14 0c4,0 4,-2 4,-3l3 -12c1,-1 2,-2 3,-2l20 0c1,0 3,0 3,2l3 11c1,2 1,4 5,4l14 0c4,0 4,-3 3,-4l-24 -94c-1,-4 -2,-5 -5,-5l-18 0zm114 103c2,0 5,0 5,-5l0 -36c0,-2 1,-3 2,-3l5 0c4,0 11,2 11,14l0 25c0,5 3,5 5,5l12 0c3,0 5,0 5,-5l0 -31c0,-10 -5,-15 -8,-17 -1,-1 -4,-2 -4,-2 0,-1 2,-1 2,-2 4,-2 6,-7 6,-11l0 -12c0,-5 2,-5 4,-5l1 0c4,0 4,-4 4,-5l0 -8c0,-2 0,-5 -6,-5l-9 0c-4,0 -15,1 -15,18l0 9c0,6 0,12 -7,12l-6 0c-1,0 -2,0 -2,-2l0 -31c0,-3 0,-6 -5,-6l-12 0c-5,0 -5,3 -5,6l0 31c0,2 -1,2 -3,2l-5 0c-7,0 -8,-6 -8,-12l0 -9c0,-17 -10,-18 -15,-18l-9 0c-5,0 -6,3 -6,5l0 8c0,1 0,5 5,5l1 0c2,0 4,0 4,5l0 12c0,4 1,9 5,11 1,1 2,1 2,2 0,0 -3,1 -4,2 -2,2 -8,7 -8,17l0 31c0,3 0,5 6,5l11 0c5,0 5,-2 5,-5l0 -25c0,-12 8,-14 11,-14l5 0c2,0 3,1 3,3l0 36c0,3 0,5 5,5l12 0zm65 -21c-2,0 -4,0 -4,4l0 13c0,2 0,4 4,4l2 0c1,0 1,1 1,2l0 0c0,4 -1,6 -4,6 -2,1 -3,0 -3,3l0 5c0,1 0,2 2,2l2 0c8,0 17,-7 17,-19l0 -16c0,-2 0,-4 -4,-4l-13 0zm69 -82c-5,0 -5,3 -5,6l0 92c0,5 3,5 5,5l12 0c3,0 5,0 5,-5l0 -76c0,-2 1,-3 2,-3l16 0c2,0 3,1 3,3l0 76c0,3 0,5 5,5l11 0c5,0 5,-2 5,-5l0 -92c0,-3 0,-6 -5,-6l-54 0zm95 43c-2,0 -2,-1 -2,-2l0 -20c0,-1 0,-2 2,-2l8 0c10,0 13,6 13,12 0,7 -5,12 -13,12l-8 0zm-19 -43c-5,0 -5,3 -5,6l0 92c0,5 3,5 5,5l12 0c2,0 5,0 5,-5l0 -34c0,-1 1,-2 2,-2l10 0c4,0 35,0 35,-30 0,-11 -3,-32 -37,-32l-27 0zm114 63c0,13 0,22 -10,22 -10,0 -10,-9 -10,-22l0 -23c0,-12 0,-22 10,-22 10,0 10,10 10,22l0 23zm-42 3c0,9 0,39 32,39 33,0 32,-30 32,-39l0 -28c0,-14 -2,-39 -32,-39 -32,0 -32,29 -32,39l0 28zm75 32c0,5 3,5 5,5l12 0c2,0 5,0 5,-5l0 -36c0,-1 1,-3 2,-3l7 0c3,0 11,1 11,15l0 24c0,3 0,5 6,5l11 0c5,0 5,-2 5,-5l0 -31c0,-17 -11,-15 -12,-19l0 -1c1,-2 7,-2 7,-12l0 -12c0,-2 1,-5 4,-5l3 0c0,0 3,0 3,-4l0 -9c0,-3 -2,-5 -5,-5l-10 0c-8,0 -15,6 -15,18l0 11c0,8 -4,10 -8,10l-7 0c-2,0 -2,-1 -2,-2l0 -31c0,-3 0,-6 -5,-6l-12 0c-5,0 -5,3 -5,6l0 92zm103 -32c-1,0 -1,0 -1,-1 0,0 0,-1 0,-1l6 -26c0,-1 0,-1 1,-1 0,0 1,0 1,1l6 26c0,0 0,1 0,1 0,1 0,1 -1,1l-12 0zm-3 -66c-2,0 -4,1 -5,5l-23 94c0,1 -1,4 3,4l14 0c3,0 4,-2 4,-3l3 -12c0,-1 1,-2 3,-2l20 0c1,0 3,0 3,2l3 11c1,2 1,4 5,4l14 0c4,0 3,-3 3,-4l-24 -94c-1,-4 -2,-5 -5,-5l-18 0zm52 0c-2,0 -3,1 -3,3l0 14c0,2 1,3 4,3l18 0c2,0 3,1 3,3l0 75c0,3 0,5 5,5l11 0c5,0 6,-2 6,-5l0 -75c0,-2 1,-3 2,-3l19 0c3,0 3,-1 3,-3l0 -13c0,-2 0,-4 -3,-4l-65 0zm107 0c-2,0 -3,1 -3,3l0 14c0,2 1,3 4,3l18 0c2,0 3,1 3,3l0 75c0,3 0,5 5,5l12 0c4,0 5,-2 5,-5l0 -75c0,-2 1,-3 2,-3l20 0c2,0 3,-1 3,-3l0 -13c0,-2 -1,-4 -3,-4l-66 0zm101 66c0,0 -1,0 -1,-1 0,0 0,-1 0,-1l6 -26c0,-1 1,-1 1,-1 1,0 1,0 1,1l7 26c0,0 0,1 0,1 0,1 -1,1 -1,1l-13 0zm-3 -66c-2,0 -4,1 -5,5l-22 94c-1,1 -1,4 2,4l14 0c4,0 4,-2 5,-3l2 -12c1,-1 2,-2 3,-2l21 0c1,0 2,0 3,2l2 11c1,2 1,4 5,4l14 0c5,0 4,-3 3,-4l-23 -94c-1,-4 -3,-5 -5,-5l-19 0zm112 43c-1,0 -1,-1 -1,-2l0 -20c0,-1 0,-2 1,-2l9 0c10,0 13,6 13,12 0,7 -6,12 -13,12l-9 0zm-18 -43c-5,0 -5,3 -5,6l0 92c0,5 2,5 5,5l11 0c3,0 6,0 6,-5l0 -34c0,-1 0,-2 2,-2l9 0c4,0 36,0 36,-30 0,-11 -4,-32 -37,-32l-27 0zm72 98c0,5 3,5 6,5l50 0c5,0 5,-2 5,-5l0 -10c0,-2 0,-4 -4,-4l-33 0c-2,0 -2,0 -2,-1l0 -21c0,-2 0,-3 2,-3l23 0c3,0 3,-2 3,-3l0 -13c0,-1 0,-3 -3,-3l-23 0c-2,0 -2,-1 -2,-3l0 -15c0,-2 2,-2 3,-2l29 0c2,0 5,-1 5,-4l0 -10c0,-3 0,-6 -5,-6l-48 0c-6,0 -6,3 -6,6l0 92zm94 -54c0,0 0,0 1,0l11 29c1,2 3,4 4,4l5 0c3,0 4,-2 4,-4l12 -28c0,0 0,0 0,0 1,0 1,0 1,1l0 52c0,3 0,5 5,5l11 0c3,0 6,0 6,-5l0 -92c0,-3 0,-6 -6,-6l-12 0c-3,0 -5,3 -6,4l-15 32c-1,1 -1,2 -2,2 -1,0 -1,-1 -2,-2l-16 -32c0,-1 -2,-4 -5,-4l-13 0c-5,0 -5,3 -5,6l0 92c0,5 2,5 5,5l11 0c3,0 6,0 6,-5l0 -54zm113 19c0,13 0,22 -10,22 -10,0 -11,-9 -11,-22l0 -23c0,-12 1,-22 11,-22 10,0 10,10 10,22l0 23zm-42 3c0,9 -1,39 32,39 32,0 32,-30 32,-39l0 -28c0,-14 -2,-39 -32,-39 -33,0 -32,29 -32,39l0 28zm80 -66c-5,0 -5,3 -5,6l0 92c0,5 2,5 5,5l11 0c3,0 5,0 5,-5l0 -38c0,-1 1,-3 3,-3l16 0c1,0 2,1 2,3l0 38c0,3 0,5 5,5l12 0c5,0 5,-2 5,-5l0 -92c0,-3 0,-6 -5,-6l-12 0c-5,0 -5,3 -5,6l0 28c0,2 -1,3 -2,3l-16 0c-3,0 -3,-2 -3,-3l0 -28c0,-3 0,-6 -5,-6l-11 0zm69 0c-3,0 -4,1 -4,3l0 14c0,2 2,3 4,3l19 0c1,0 2,1 2,3l0 75c0,3 0,5 5,5l12 0c5,0 5,-2 5,-5l0 -75c0,-2 1,-3 3,-3l19 0c3,0 3,-1 3,-3l0 -13c0,-2 0,-4 -3,-4l-65 0zm107 46c0,20 13,25 24,25 9,0 14,-3 15,-3 1,0 1,0 1,1l0 29c0,3 0,5 5,5l11 0c3,0 6,0 6,-5l0 -92c0,-3 0,-6 -6,-6l-11 0c-5,0 -5,3 -5,6l0 33c0,5 -1,12 -9,12 -4,0 -9,-2 -9,-11l0 -34c0,-3 0,-6 -5,-6l-12 0c-5,0 -5,3 -5,6l0 40zm115 17c0,13 0,22 -10,22 -11,0 -11,-9 -11,-22l0 -23c0,-12 0,-22 11,-22 10,0 10,10 10,22l0 23zm-42 3c0,9 -1,39 32,39 32,0 32,-30 32,-39l0 -28c0,-14 -2,-39 -32,-39 -33,0 -32,29 -32,39l0 28zm98 18c-1,0 -2,0 -2,-1l0 -22c0,-1 0,-2 3,-2l6 0c11,0 16,6 16,13 0,7 -5,12 -16,12l-7 0zm1 -45c-1,0 -3,0 -3,-1l0 -16c0,-1 1,-2 3,-2l5 0c11,0 14,5 14,9 0,6 -4,10 -14,10l-5 0zm-24 59c0,4 1,5 4,5l32 0c25,0 33,-14 33,-29 0,-13 -6,-23 -18,-26l0 -1c10,-3 14,-11 14,-20 0,-14 -9,-27 -33,-27l-28 0c-4,0 -4,3 -4,5l0 93zm86 -98c-6,0 -6,3 -6,6l0 92c0,5 3,5 6,5l11 0c3,0 5,0 5,-5l0 -38c0,-1 1,-3 2,-3l16 0c2,0 3,1 3,3l0 38c0,3 0,5 5,5l11 0c5,0 5,-2 5,-5l0 -92c0,-3 0,-6 -5,-6l-11 0c-5,0 -5,3 -5,6l0 28c0,2 -2,3 -3,3l-16 0c-2,0 -2,-2 -2,-3l0 -28c0,-3 0,-6 -5,-6l-11 0zm70 98c0,5 3,5 5,5l12 0c2,0 5,0 5,-5l0 -92c0,-3 0,-6 -5,-6l-12 0c-5,0 -5,3 -5,6l0 92zm57 -14c-1,0 -2,0 -2,-1l0 -22c0,-1 0,-2 3,-2l6 0c11,0 16,6 16,13 0,7 -5,12 -16,12l-7 0zm1 -45c-1,0 -3,0 -3,-1l0 -16c0,-1 1,-2 3,-2l5 0c11,0 14,5 14,9 0,6 -4,10 -14,10l-5 0zm-24 59c0,4 1,5 4,5l32 0c25,0 33,-14 33,-29 0,-13 -6,-23 -18,-26l0 -1c10,-3 14,-11 14,-20 0,-14 -9,-27 -33,-27l-28 0c-4,0 -4,3 -4,5l0 93z"/>
 </g>
</svg>
